<svg width="549" height="368" viewBox="0 0 549 368" fill="none" xmlns="http://www.w3.org/2000/svg">
<g clip-path="url(#clip0_810_34061)">
<g opacity="0.3">
<path opacity="0.8" d="M97.1385 175.167C101.129 408.741 447.84 408.706 451.791 175.167C447.81 -58.4073 101.085 -58.3723 97.1385 175.167Z" fill="#DFB8FF"/>
<path opacity="0.6" d="M309.315 248.456C311.65 385.311 514.798 385.291 517.112 248.456C514.778 111.601 311.63 111.626 309.315 248.456Z" fill="#DFB8FF"/>
<path opacity="0.6" d="M239.684 248.456C237.349 385.311 34.2014 385.291 31.8867 248.456C34.2064 111.601 237.369 111.626 239.684 248.456Z" fill="#DFB8FF"/>
<path opacity="0.5" d="M174.258 142.459C172.656 236.224 33.4734 236.209 31.887 142.459C33.4883 48.6943 172.671 48.7093 174.258 142.459Z" fill="#DFB8FF"/>
<path opacity="0.5" d="M374.741 142.459C376.343 236.224 515.526 236.209 517.112 142.459C515.511 48.6943 376.328 48.7093 374.741 142.459Z" fill="#DFB8FF"/>
</g>
<g opacity="0.5">
<path opacity="0.5" d="M81.664 353.413C71.981 372.864 477.049 372.864 467.336 353.413C477.019 333.982 71.9511 333.982 81.664 353.413Z" fill="#FF5EF7"/>
<g opacity="0.5">
<g style="mix-blend-mode:multiply">
<path d="M110.987 353.413C102.661 362.276 446.363 362.276 438.012 353.413C446.338 344.55 102.636 344.55 110.987 353.413Z" fill="#FF5EF7"/>
</g>
</g>
</g>
<path opacity="0.5" d="M462.113 197.767H428.2C424.899 197.767 422.224 195.086 422.224 191.778V157.796C422.224 154.488 424.899 151.807 428.2 151.807H462.113C465.413 151.807 468.089 154.488 468.089 157.796V191.778C468.089 195.086 465.413 197.767 462.113 197.767Z" fill="#6A5ADF"/>
<path opacity="0.5" d="M398.063 151.802H378.458C376.549 151.802 375.001 150.251 375.001 148.338V128.692C375.001 126.779 376.549 125.228 378.458 125.228H398.063C399.973 125.228 401.521 126.779 401.521 128.692V148.338C401.521 150.251 399.973 151.802 398.063 151.802Z" fill="#6A5ADF"/>
<path opacity="0.5" d="M433.034 116.6H423.027C422.054 116.6 421.266 115.81 421.266 114.835V104.807C421.266 103.833 422.054 103.043 423.027 103.043H433.034C434.006 103.043 434.795 103.833 434.795 104.807V114.835C434.795 115.81 434.006 116.6 433.034 116.6Z" fill="#6A5ADF"/>
<path opacity="0.5" d="M147.07 78.8678H173.795C176.395 78.8678 178.504 80.9806 178.504 83.5868V110.366C178.504 112.972 176.395 115.085 173.795 115.085H147.07C144.47 115.085 142.361 112.972 142.361 110.366V83.5868C142.361 80.9806 144.47 78.8678 147.07 78.8678Z" fill="#6A5ADF"/>
<path opacity="0.5" d="M197.535 57.9272H212.985C214.489 57.9272 215.709 59.1492 215.709 60.6567V76.1383C215.709 77.6457 214.489 78.8677 212.985 78.8677H197.535C196.031 78.8677 194.812 77.6457 194.812 76.1383V60.6567C194.812 59.1492 196.031 57.9272 197.535 57.9272Z" fill="#6A5ADF"/>
<path opacity="0.5" d="M169.988 40.4462H177.875C178.641 40.4462 179.262 41.0684 179.262 41.8359V49.7391C179.262 50.5067 178.641 51.1288 177.875 51.1288H169.988C169.222 51.1288 168.601 50.5067 168.601 49.7391V41.8359C168.601 41.0684 169.222 40.4462 169.988 40.4462Z" fill="#6A5ADF"/>
<g opacity="0.8">
<path d="M96.4657 301.644C94.3955 287.103 82.9964 276.33 69.1529 272.606C43.3467 265.057 40.9372 245.747 37.5 255.404C34.0628 265.062 41.2814 275.485 35.0905 283.028C28.8996 290.572 33.8184 304.714 43.7458 307.813C53.6732 310.912 89.2073 334.532 89.2073 353.413H115.951C117.323 353.413 117.323 343.09 117.268 342.316C116.74 325.924 100.302 316.771 96.4657 301.644Z" fill="#974EEA"/>
<g opacity="0.8">
<path d="M77.1396 313.897C77.6983 304.619 73.428 295.316 66.4938 289.192C62.5528 285.693 58.1578 283.153 54.3365 279.764C51.3433 277.265 47.9411 274.86 46.2449 271.226C47.6118 275.725 51.5927 278.669 54.8204 281.804C66.6983 291.267 75.5332 297.345 77.1396 313.897Z" fill="white"/>
</g>
</g>
<path d="M1.49184 318.536C5.20338 330.198 15.3154 336.682 26.8291 339.241C59.5696 346.505 74.8997 351.094 79.9931 352.738C82.3627 354.068 107.7 353.178 110.793 353.418C101.953 332.823 103.2 296.93 58.0281 300.02C27.752 305.753 16.2832 283.493 8.93988 277.15C7.38342 275.805 1.45692 270.106 0.534012 274.65C3.63196 289.292 -2.7086 303.919 1.49184 318.536Z" fill="#974EEA"/>
<path d="M12.721 300.23C18.3731 322.26 45.5263 322.945 64.0641 324.594C75.8373 325.969 87.4608 332.653 90.5039 344.82C88.9824 332.203 76.9448 324.219 65.1666 322.48C46.6787 320.075 20.5981 321.115 12.721 300.23Z" fill="#974EEA"/>
<path opacity="0.8" d="M12.721 300.23C18.3731 322.26 45.5263 322.945 64.0641 324.594C75.8373 325.969 87.4608 332.653 90.5039 344.82C88.9824 332.203 76.9448 324.219 65.1666 322.48C46.6787 320.075 20.5981 321.115 12.721 300.23Z" fill="white"/>
<g opacity="0.8">
<path d="M452.535 301.644C454.605 287.103 466.004 276.33 479.848 272.606C505.654 265.057 508.063 245.747 511.501 255.405C514.938 265.062 507.719 275.485 513.91 283.028C520.101 290.572 515.177 304.714 505.255 307.813C495.332 310.912 459.793 334.532 459.793 353.413H433.049C431.677 353.413 431.677 343.09 431.732 342.316C432.256 325.924 448.699 316.771 452.535 301.644Z" fill="#6A5ADF"/>
<g opacity="0.8">
<path d="M471.861 313.897C471.303 304.619 475.573 295.316 482.507 289.192C486.448 285.693 490.843 283.154 494.664 279.764C497.657 277.265 501.06 274.86 502.756 271.226C501.389 275.725 497.408 278.669 494.18 281.804C482.302 291.267 473.468 297.345 471.861 313.897Z" fill="white"/>
</g>
</g>
<path d="M547.508 318.536C543.797 330.198 533.685 336.682 522.171 339.241C489.431 346.505 474.101 351.094 469.007 352.738C466.638 354.068 441.3 353.178 438.207 353.418C447.047 332.823 445.8 296.931 490.972 300.02C521.248 305.754 532.717 283.494 540.06 277.15C541.617 275.805 547.543 270.106 548.461 274.65C545.368 289.292 551.714 303.919 547.508 318.536Z" fill="#6A5ADF"/>
<path d="M536.279 300.23C530.627 322.26 503.474 322.945 484.936 324.594C473.163 325.969 461.539 332.653 458.496 344.82C459.993 332.203 472.056 324.22 483.834 322.48C502.327 320.075 528.402 321.115 536.279 300.23Z" fill="#974EEA"/>
<path opacity="0.8" d="M536.279 300.23C530.627 322.26 503.474 322.945 484.936 324.594C473.163 325.969 461.539 332.653 458.496 344.82C459.993 332.203 472.056 324.22 483.834 322.48C502.327 320.075 528.402 321.115 536.279 300.23Z" fill="white"/>
<path d="M152.348 272.661C132.563 210.129 231.783 200.411 224.749 265.362C213.774 348.069 230.71 340.731 165.588 289.407C159.661 285.215 155.065 279.401 152.348 272.661ZM182.669 280.159C199.486 284.403 215.29 266.022 207.987 249.801C205.724 244.427 201.455 240.154 196.091 237.893C190.726 235.631 184.692 235.561 179.277 237.698C159.018 245.262 161.812 276.03 182.669 280.134V280.159Z" fill="url(#paint0_linear_810_34061)"/>
<g style="mix-blend-mode:multiply">
<path d="M214.043 322.885L220.588 263.598C224.055 247.771 214.726 229.24 200.135 222.606C216.931 227.905 228.63 247.896 224.759 265.367L218.213 324.654C217.715 328.653 212.891 329.408 210.476 326.529C211.394 326.414 212.246 325.992 212.894 325.33C213.541 324.668 213.946 323.806 214.043 322.885Z" fill="url(#paint1_linear_810_34061)"/>
</g>
<path d="M194.168 184.12C194.168 184.12 198.159 191.553 196.273 193.618C194.387 195.682 181.587 197.617 181.587 197.617L182.534 184.765L186.86 190.014L190.262 184.27L194.168 184.12Z" fill="url(#paint2_linear_810_34061)"/>
<path d="M194.168 184.12C191.554 177.796 184.365 167.698 180.739 163.029C179.741 162.7 178.783 163.029 177.745 164.654C172.727 174.102 181.168 183.245 186.875 190.009C187.753 188.194 189.743 185.874 194.168 184.12Z" fill="url(#paint3_linear_810_34061)"/>
<path d="M154.469 339.591C158.111 344.795 157.702 348.664 149.026 348.519C147.64 348.519 143.778 345.87 143.649 344.35C143.519 342.83 147.36 338.226 147.36 338.226L154.469 339.591Z" fill="url(#paint4_linear_810_34061)"/>
<path d="M172.084 146.318C172.084 146.318 170.767 158.505 174.578 160.03C174.578 160.03 168.662 166.409 162.605 157.031C162.605 157.031 163.813 150.622 162.605 145.603L172.084 146.318Z" fill="url(#paint5_linear_810_34061)"/>
<path d="M181.433 135.84C177.262 141.809 181.557 151.537 170.692 155.601C170.692 155.601 160.331 151.937 159.218 145.363C159.218 145.363 159.353 142.599 159.333 140.834C159.313 139.07 157.033 137.68 158.699 135.166C160.366 132.651 161.244 134.711 161.244 134.711C161.244 134.711 161.977 132.641 162.74 130.941C163.503 129.242 181.433 135.84 181.433 135.84Z" fill="url(#paint6_linear_810_34061)"/>
<path d="M187.648 268.821C187.917 237.073 186.151 226.106 183.123 214.598L172.527 211.514C168.97 215.857 166.465 220.966 165.209 226.441C162.884 238.528 171.878 268.846 173.744 278.659C171.777 294.19 172.416 309.94 175.635 325.259C176.209 328.633 176.962 331.543 176.538 334.937C179.187 336.327 184.644 335.332 184.545 334.717C182.614 312.852 188.396 290.812 187.648 268.821Z" fill="url(#paint7_linear_810_34061)"/>
<path style="mix-blend-mode:multiply" opacity="0.5" d="M164.665 232.039C164.9 241.742 172.018 271.531 173.744 278.659C172.088 271.261 170.592 241.267 175.929 227.55C181.267 213.833 183.841 219.087 183.841 219.087L184.181 218.557C183.902 217.219 183.549 215.897 183.123 214.598L172.527 211.514C171.799 211.514 165.648 225.676 165.209 226.441C164.811 228.279 164.629 230.158 164.665 232.039Z" fill="url(#paint8_linear_810_34061)"/>
<path d="M155.047 215.133C155.047 215.133 147.145 227.535 148.517 258.124C149.899 293.176 148.831 325.109 147.359 338.236C147.359 338.236 150.353 341.301 154.468 339.601C154.668 338.046 155.057 336.102 155.596 333.792C163.822 310.752 168.536 248.251 174.622 217.188C179.377 197.707 155.047 215.133 155.047 215.133Z" fill="url(#paint9_linear_810_34061)"/>
<path d="M148.567 176.302C149.116 189.219 151.904 202.746 155.052 215.133C166.466 220.132 183.143 215.673 183.133 214.603C180.883 196.462 189.499 178.341 181.193 163.504C179.013 160.675 174.448 160.32 172.547 157.116C172.742 157.616 173.869 161.035 170.637 161.035C164.985 160.815 162.615 157.081 162.615 157.081C158.25 156.991 149.679 163.469 149.679 163.469C148.672 166.899 148.392 171.393 148.567 176.302Z" fill="url(#paint10_linear_810_34061)"/>
<path d="M179.936 185.829L179.392 185.964C179.577 185.935 179.758 185.89 179.936 185.829Z" fill="url(#paint11_linear_810_34061)"/>
<path d="M162.685 156.521C162.685 156.521 161.308 156.551 161.009 157.266C160.709 157.981 164.092 165.359 165.563 166.054C167.035 166.749 170.632 161.02 170.632 161.02C170.632 161.02 163.972 159.52 162.685 156.521Z" fill="url(#paint12_linear_810_34061)"/>
<path d="M172.572 157.171C175.705 158.765 174.069 170.953 170.631 161.035C170.631 161.02 173.251 160.685 172.572 157.171Z" fill="url(#paint13_linear_810_34061)"/>
<path d="M181.502 135.406C180.1 136.75 177.411 138.745 170.098 137.525C174.508 134.131 163.378 135.99 162.869 139.285C160.989 143.314 160.375 137.15 161.228 134.706C161.228 134.706 160.355 132.651 158.684 135.166C157.013 137.68 159.293 139.065 159.317 140.834C159.377 143.334 159.058 145.123 159.342 145.993C159.342 145.993 154.314 139.205 158.729 129.772C163.144 120.339 178.638 127.597 181.502 135.406Z" fill="url(#paint14_linear_810_34061)"/>
<path d="M178.878 137.095C179.332 139.095 182.135 138.815 182.155 136.275C182.085 135.121 178.878 137.095 178.878 137.095Z" fill="url(#paint15_linear_810_34061)"/>
<path d="M158.23 127.402C159.507 124.403 161.224 121.638 163.942 119.734C171.061 114.355 184.246 119.069 183.672 128.767C183.513 129.477 183.558 130.327 184.296 130.691C189.325 133.831 195.116 135.221 185.354 136.9C173.955 138.555 173.082 133.996 164.476 133.336C160.026 133.406 155.826 133.361 158.23 127.402Z" fill="url(#paint16_linear_810_34061)"/>
<path d="M161.009 157.281C160.63 158.041 154.389 170.663 154.214 171.018C154.534 170.788 144.237 175.017 144.786 172.018C145.32 169.948 146.981 162.925 149.48 161.77C152.024 160.805 158.544 158.226 161.009 157.281Z" fill="url(#paint17_linear_810_34061)"/>
<path d="M173.53 171.128C173.839 172.832 171.689 173.192 171.42 171.488C171.151 169.783 173.266 169.423 173.53 171.128Z" fill="url(#paint18_linear_810_34061)"/>
<path d="M175.626 180.651C175.93 182.355 173.785 182.715 173.516 181.011C173.246 179.306 175.356 178.946 175.626 180.651Z" fill="url(#paint19_linear_810_34061)"/>
<path d="M177.841 190.284C178.145 191.983 176 192.348 175.73 190.638C175.461 188.929 177.571 188.574 177.841 190.284Z" fill="url(#paint20_linear_810_34061)"/>
<path d="M179.173 200.181C179.477 201.881 177.327 202.246 177.063 200.536C176.798 198.827 178.878 198.472 179.173 200.181Z" fill="url(#paint21_linear_810_34061)"/>
<path d="M176.538 334.652C176.538 334.652 181.028 336.052 184.545 334.717C189.079 340.086 198.294 336.512 199.097 342.385C199.097 342.385 187.867 345.935 175.65 343.485C175.635 343.48 174.597 338.981 176.538 334.652Z" fill="url(#paint22_linear_810_34061)"/>
<path style="mix-blend-mode:multiply" d="M148.566 176.302C149.115 189.219 151.904 202.746 155.052 215.133C166.466 220.132 183.143 215.673 183.133 214.603C157.791 218.292 155.581 210.349 157.282 207.99C158.983 205.63 172.826 201.736 172.826 201.736L170.541 195.387C170.541 195.387 153.031 197.887 154.548 194.183C156.064 190.478 155.456 176.457 155.456 176.457L148.566 176.302Z" fill="url(#paint23_linear_810_34061)"/>
<path d="M166.341 201.731L167.543 202.931C167.434 202.806 167.358 202.655 167.321 202.493C167.284 202.33 167.289 202.161 167.334 202.001L167.424 201.436L170.886 179.641C170.093 178.141 188.506 177.881 188.875 177.501C189.274 177.501 189.903 177.316 190.262 177.546C189.763 177.176 189.229 176.102 188.501 176.197L170.542 177.596C170.326 177.613 170.122 177.702 169.962 177.848C169.803 177.995 169.698 178.192 169.664 178.406L166.092 200.901C166.069 201.049 166.079 201.201 166.122 201.345C166.165 201.488 166.24 201.62 166.341 201.731Z" fill="#59458C"/>
<path d="M167.544 202.931C167.642 203.044 167.766 203.132 167.905 203.188C168.043 203.245 168.193 203.268 168.342 203.256L184.705 201.966C184.909 201.949 185.102 201.868 185.257 201.734C185.412 201.6 185.521 201.421 185.568 201.221L190.751 178.611C190.784 178.465 190.782 178.313 190.746 178.168C190.711 178.022 190.642 177.887 190.545 177.773C190.448 177.658 190.327 177.568 190.189 177.509C190.052 177.45 189.903 177.423 189.753 177.431C189.619 177.471 189.05 177.471 188.895 177.501L171.779 178.831C171.564 178.847 171.36 178.935 171.201 179.083C171.043 179.23 170.939 179.427 170.906 179.641L167.444 201.436L167.354 202.001C167.31 202.16 167.304 202.327 167.337 202.489C167.37 202.65 167.441 202.802 167.544 202.931Z" fill="#553A6D"/>
<g style="mix-blend-mode:multiply" opacity="0.5">
<path d="M167.519 202.431L169.888 202.241C169.784 202.233 169.684 202.198 169.599 202.137C169.514 202.076 169.448 201.994 169.406 201.898C169.365 201.802 169.351 201.696 169.366 201.593C169.38 201.489 169.423 201.392 169.489 201.311L175.346 194.093L176.438 189.564C176.438 189.564 177.87 192.728 177.331 194.673C176.793 196.617 183.173 188.644 183.173 188.644C183.173 188.644 182.924 193.443 180.539 195.482L185.149 191.848C184.433 193.7 183.167 195.286 181.522 196.392C183.158 195.597 185.593 194.433 185.593 194.433C185.593 194.433 184.146 196.837 182.215 197.807L184.42 197.447C183.557 199.671 179.516 201.256 175.885 201.766L183.866 201.136C185.248 201.636 189.593 177.986 189.923 177.436C190.055 177.454 190.183 177.5 190.297 177.57C190.411 177.641 190.51 177.734 190.586 177.845C190.662 177.955 190.714 178.081 190.739 178.213C190.764 178.344 190.761 178.48 190.731 178.611L185.553 201.221C186.296 202.606 168.661 202.916 168.327 203.261C168.08 203.279 167.836 203.203 167.644 203.047C167.452 202.891 167.327 202.667 167.294 202.421C167.369 202.43 167.444 202.433 167.519 202.431Z" fill="#553A6D"/>
</g>
<path d="M175.814 200.786H175.75C174.752 201.106 173.784 201.416 172.806 201.721C172.947 200.557 172.814 199.377 172.417 198.275C172.02 197.172 171.371 196.178 170.521 195.372C171.549 195.212 172.412 195.087 173.071 195.002C174.223 194.003 174.288 192.503 175.101 191.263C175.934 190.263 175.076 189.214 175.296 188.879C175.515 188.544 175.675 188.564 176.243 189.264C176.987 189.509 175.849 195.372 178.239 193.823L180.324 191.908C180.324 191.908 181.082 190.373 181.726 188.974C182.37 187.574 183.627 186.904 183.168 188.629C182.744 190.203 181.357 193.293 180.459 194.303C181.711 193.893 181.871 193.378 183.677 191.658C184.764 190.563 186.171 190.368 185.143 191.833C184.22 193.153 181.911 195.522 180.708 196.202C181.901 195.982 182.205 195.462 184.155 194.048C185.378 193.103 186.799 193.108 185.587 194.418C184.38 195.633 183.042 196.71 181.596 197.627C182.135 197.436 182.655 197.198 183.153 196.917C184.395 196.197 185.702 196.372 184.43 197.417C183.158 198.462 180.025 200.291 179.027 200.311C178.119 200.236 176.777 200.771 175.78 200.771L175.814 200.786Z" fill="url(#paint24_linear_810_34061)"/>
<path d="M141.678 200.011C141.942 206.51 142.75 208.73 149.16 207.87C157.287 206.315 164.994 204.036 172.842 201.731C172.986 200.567 172.854 199.386 172.457 198.283C172.06 197.18 171.409 196.186 170.557 195.382C161.777 196.682 149.944 198.702 141.678 200.011Z" fill="url(#paint25_linear_810_34061)"/>
<path d="M142.237 181.985C142.79 175.592 142.935 167.204 148.273 162.779C150.129 161.24 151.536 161.365 152.573 162.175C154.449 163.634 155.147 167.288 155.167 167.403C156.724 177.496 154.234 187.319 151.456 196.927C149.216 196.967 144.826 197.302 141.713 199.197C141.583 193.454 141.758 187.709 142.237 181.985Z" fill="url(#paint26_linear_810_34061)"/>
<path d="M151.44 196.927C150.942 199.127 150.368 201.496 150.567 203.776L142.785 206.275C141.748 204.076 141.723 201.551 141.698 199.197C144.825 197.302 149.215 196.967 151.44 196.927Z" fill="url(#paint27_linear_810_34061)"/>
<path d="M240.328 97.2239L343.004 79.1678L341.887 74.6388C342.46 74.7638 356.658 77.5132 356.748 77.5532C361.507 78.473 362.944 85.7414 362.515 86.2313C362.515 91.3602 363.233 339.706 363.228 339.876C363.268 344.635 360.05 348.214 356.469 348.659L341.742 351.579L345.045 347.08L240.388 328.764C236.676 328.114 233.698 323.66 233.698 318.811V107.102C233.673 102.288 236.636 97.8738 240.328 97.2239Z" fill="#553A6D"/>
<path d="M222.833 331.293L338.794 351.589C344.067 352.508 348.382 348.449 348.362 342.506L347.634 83.3819C347.634 77.4982 343.309 73.4891 338.071 74.4139L222.778 94.6895C219.002 95.3494 215.974 99.8634 215.974 104.777L216.004 321.12C215.999 326.079 219.042 330.628 222.833 331.293Z" fill="#6A5ADF"/>
<path d="M227.512 321.88L332.428 338.661C336.314 339.286 339.482 336.222 339.467 331.813L338.843 93.9796C338.843 89.6155 335.665 86.5862 331.804 87.211L227.432 104.002C224.558 104.467 222.249 107.852 222.249 111.576L222.299 314.257C222.279 317.986 224.623 321.42 227.512 321.88Z" fill="#C8D3F9"/>
<mask id="mask0_810_34061" style="mask-type:luminance" maskUnits="userSpaceOnUse" x="222" y="87" width="118" height="252">
<path d="M227.512 321.88L332.428 338.661C336.314 339.286 339.482 336.222 339.467 331.813L338.843 93.9796C338.843 89.6155 335.665 86.5862 331.804 87.211L227.432 104.002C224.558 104.467 222.249 107.852 222.249 111.576L222.299 314.257C222.279 317.986 224.623 321.42 227.512 321.88Z" fill="white"/>
</mask>
<g mask="url(#mask0_810_34061)">
<g opacity="0.8">
<g opacity="0.5">
<path d="M250.394 152.432C250.718 152.392 250.983 152.722 250.988 153.167C250.733 154.541 252.255 155.506 251.601 156.666C250.434 157.946 249.012 152.627 250.394 152.432ZM252.569 157.561C252.719 157.146 253.068 156.961 253.362 157.146C253.986 157.836 256.106 157.756 255.857 159.145C255.747 159.56 255.452 159.835 255.103 159.72C254.026 159.15 252.21 159.02 252.569 157.561ZM257.019 159.52C257.378 158.106 259.284 159.52 260.082 159.43C260.259 159.506 260.404 159.643 260.488 159.817C260.572 159.99 260.591 160.189 260.541 160.375C260.461 160.815 260.177 161.12 259.823 161.055C259.069 160.675 256.829 160.99 257.019 159.52ZM261.738 160.64C262.087 159.17 264.133 160.57 264.871 160.535C265.048 160.617 265.19 160.76 265.27 160.938C265.351 161.116 265.365 161.317 265.31 161.505C264.851 162.914 263.444 161.62 262.197 161.585C262.02 161.509 261.875 161.372 261.791 161.199C261.707 161.025 261.688 160.826 261.738 160.64ZM266.507 161.87C266.617 161.43 266.961 161.165 267.285 161.285C268.383 161.88 270.279 161.99 269.954 163.494C269.341 164.764 268.004 162.994 266.901 162.884C266.728 162.788 266.594 162.633 266.522 162.448C266.45 162.263 266.445 162.058 266.507 161.87ZM270.997 164.369C272.119 162.994 274.075 168.248 272.658 168.583C272.304 168.668 272 168.383 271.945 167.933C272.08 166.549 270.363 165.609 271.002 164.354L270.997 164.369ZM270.084 172.822C271.082 172.257 271.486 169.823 272.459 170.263C273.456 171.313 271.461 173.722 270.433 174.322C269.745 174.312 269.645 173.187 270.089 172.807L270.084 172.822ZM265.709 175.607C266.757 175.417 268.203 173.547 268.797 174.817C269.042 176.317 266.996 176.592 265.884 177.221C265.14 177.226 265.1 175.812 265.714 175.592L265.709 175.607ZM260.99 177.411C262.082 177.296 263.684 175.767 264.093 177.146C264.168 178.646 262.267 178.466 261.1 179.036C260.356 179.046 260.346 177.561 260.995 177.396L260.99 177.411ZM256.246 178.971C257.149 178.916 258.93 177.376 259.324 178.801C259.393 180.301 257.328 180.076 256.37 180.581C255.627 180.591 255.612 179.111 256.251 178.956L256.246 178.971ZM251.556 180.891C252.2 180.756 254.24 178.956 254.609 180.391C254.799 181.755 252.479 181.93 251.756 182.46C251.048 182.45 251.013 181.106 251.561 180.876L251.556 180.891ZM249.301 182.55C250.05 181.86 250.544 183.345 250 183.81C249.541 184.25 249.272 184.853 249.252 185.49C249.331 185.954 249.252 186.629 248.793 186.734C247.221 186.344 248.423 183.37 249.306 182.515L249.301 182.55ZM249.461 188.094C250.13 187.364 250.524 188.594 250.958 189.029C251.402 189.719 252.569 190.219 252.095 191.218C251.467 192.248 250.633 190.678 250.165 190.219C249.716 189.599 248.897 188.869 249.466 188.079L249.461 188.094ZM253.133 191.983C253.706 190.733 255.098 192.543 256.071 192.683C256.232 192.787 256.356 192.941 256.423 193.121C256.491 193.301 256.498 193.498 256.445 193.683C256.335 194.098 256.031 194.353 255.687 194.218C254.704 193.598 252.813 193.418 253.138 191.968L253.133 191.983ZM257.623 194.143C258.057 192.748 259.618 194.193 260.681 194.188C260.86 194.265 261.005 194.403 261.092 194.578C261.179 194.753 261.201 194.953 261.154 195.142C260.805 196.597 258.92 195.182 258.052 195.142C257.87 195.054 257.725 194.903 257.645 194.716C257.564 194.53 257.553 194.322 257.613 194.128L257.623 194.143ZM262.367 195.407C262.701 193.953 264.422 195.197 265.48 195.107C265.664 195.168 265.82 195.295 265.918 195.464C266.015 195.633 266.048 195.831 266.008 196.022C265.734 197.522 263.774 196.287 262.871 196.337C262.683 196.272 262.526 196.139 262.431 195.964C262.336 195.79 262.31 195.586 262.357 195.392L262.367 195.407ZM267.251 196.192C267.535 194.693 269.326 195.837 270.403 195.692C270.592 195.743 270.755 195.863 270.86 196.029C270.964 196.195 271.003 196.394 270.967 196.587C270.738 198.087 268.717 196.962 267.794 197.087C267.605 197.033 267.442 196.909 267.34 196.741C267.237 196.572 267.202 196.371 267.241 196.177L267.251 196.192ZM272.908 195.932C273.905 196.252 275.956 195.492 276.016 197.022C275.781 198.522 273.816 197.457 272.803 197.602C271.995 197.547 272.075 195.837 272.898 195.917L272.908 195.932ZM277.981 196.322C278.979 196.617 281.129 195.887 281.144 197.407C280.959 198.907 278.894 197.857 277.891 198.007C277.068 197.957 277.153 196.237 277.971 196.307L277.981 196.322ZM283.144 196.722C284.282 197.052 286.272 196.312 286.347 197.877C286.048 199.407 284.197 198.272 283.04 198.417C282.202 198.362 282.291 196.607 283.139 196.707L283.144 196.722ZM287.669 198.027C287.958 196.477 290.089 197.722 291.046 197.632C291.242 197.694 291.407 197.827 291.511 198.004C291.615 198.181 291.651 198.39 291.61 198.592C291.256 200.091 289.385 198.847 288.248 198.962C288.047 198.91 287.873 198.782 287.764 198.605C287.654 198.428 287.617 198.216 287.659 198.012L287.669 198.027ZM292.942 198.847C293.346 197.292 295.436 198.787 296.394 198.822C296.586 198.908 296.742 199.06 296.833 199.25C296.925 199.441 296.946 199.657 296.893 199.861C296.394 201.336 294.648 199.816 293.481 199.861C293.277 199.79 293.107 199.645 293.005 199.454C292.904 199.263 292.877 199.041 292.932 198.832L292.942 198.847ZM298.2 200.346C298.325 199.891 298.699 199.646 299.063 199.801C300.186 200.511 302.361 200.866 301.917 202.456C301.208 203.701 299.737 201.636 298.609 201.456C298.417 201.347 298.27 201.173 298.193 200.965C298.117 200.758 298.115 200.53 298.19 200.321L298.2 200.346ZM303.004 203.511C304.376 202.566 305.114 206.175 305.284 207.14C305.409 208.455 303.827 208.42 303.887 207.14C303.947 205.86 302.226 204.68 302.994 203.511H303.004ZM301.508 212.149C302.635 211.609 303.289 209.109 304.306 209.824C305.304 211.024 303.034 213.149 301.887 213.758C301.158 213.713 300.994 212.509 301.513 212.124L301.508 212.149ZM296.718 215.008C297.571 214.634 298.404 214.215 299.213 213.753C300.106 213.284 300.52 214.993 299.777 215.338C298.948 215.568 296.888 217.598 296.329 216.118C296.261 215.915 296.262 215.696 296.334 215.494C296.406 215.293 296.543 215.122 296.723 215.008H296.718ZM291.615 216.933C292.698 216.853 294.514 215.193 295.007 216.643C295.157 218.237 292.892 218.103 291.775 218.642C290.992 218.607 290.902 217.088 291.62 216.908L291.615 216.933ZM286.462 218.377C287.564 218.377 289.355 216.878 289.824 218.377C289.899 219.967 287.684 219.617 286.592 220.097C285.808 220.052 285.734 218.507 286.467 218.352L286.462 218.377ZM281.339 219.537C282.411 219.577 284.252 218.187 284.651 219.682C284.686 221.257 282.516 220.792 281.443 221.227C280.645 221.202 280.6 219.627 281.344 219.507L281.339 219.537ZM276.26 220.537C277.258 220.607 279.173 219.287 279.518 220.787C279.518 222.342 277.363 221.817 276.355 222.217C275.577 222.172 275.522 220.582 276.265 220.507L276.26 220.537ZM271.242 221.397C272.239 221.482 274.14 220.212 274.454 221.707C274.454 223.246 272.314 222.706 271.326 223.066C270.563 223.006 270.508 221.432 271.246 221.347L271.242 221.397ZM266.288 222.192L268.757 221.797C269.096 221.742 269.411 222.067 269.451 222.527C269.49 222.719 269.457 222.92 269.359 223.09C269.261 223.261 269.103 223.389 268.917 223.451L266.422 223.841C265.629 223.916 265.534 222.227 266.293 222.142L266.288 222.192ZM261.394 223.011C262.162 223.106 264.262 221.832 264.522 223.311C264.562 224.811 262.267 224.311 261.484 224.651C260.745 224.606 260.691 223.051 261.399 222.961L261.394 223.011ZM256.141 225.206C256.031 223.706 257.573 224.001 258.969 223.496C259.299 223.421 259.608 223.726 259.668 224.176C259.823 225.611 257.358 225.296 256.889 225.756C257.528 226.256 259.962 226.371 259.753 227.755C259.408 229.21 257.218 227.415 256.645 227.331C256.146 227.111 256.106 226.006 256.67 225.781C256.528 225.745 256.401 225.666 256.307 225.554C256.213 225.441 256.156 225.302 256.146 225.156L256.141 225.206ZM260.945 228.17C261.02 227.725 261.339 227.45 261.668 227.55C262.402 228.02 264.662 227.795 264.537 229.27C264.183 230.725 262.157 229.15 261.414 229.16C261.227 229.069 261.078 228.915 260.993 228.725C260.908 228.535 260.893 228.321 260.95 228.12L260.945 228.17ZM265.759 229.63C265.864 228.925 266.398 228.895 266.876 229.13C267.749 229.565 269.535 229.315 269.411 230.72C269.096 232.099 267.505 230.805 266.642 230.755C266.5 230.753 266.361 230.719 266.235 230.655C266.109 230.59 265.999 230.498 265.914 230.384C265.829 230.271 265.771 230.139 265.745 230C265.719 229.86 265.726 229.717 265.764 229.58L265.759 229.63ZM270.668 231.005C271.002 229.545 273.082 231.135 273.885 231.16C274.068 231.246 274.217 231.392 274.307 231.573C274.398 231.754 274.425 231.961 274.384 232.159C273.995 233.589 272.249 232.079 271.177 231.994C270.993 231.911 270.842 231.768 270.75 231.589C270.658 231.409 270.629 231.203 270.668 231.005ZM275.612 232.614C276.016 231.115 278.146 232.954 278.884 233.059C279.061 233.17 279.197 233.335 279.272 233.53C279.346 233.724 279.356 233.938 279.298 234.139C279.183 234.569 278.844 234.809 278.49 234.639C277.732 234.054 275.427 234.124 275.597 232.629L275.612 232.614ZM280.515 234.789C281.144 233.529 282.93 235.594 282.955 237.043C282.99 237.678 282.456 239.223 281.643 238.448C281.254 238.038 281.448 237.418 281.643 236.998C281.817 236.678 279.982 235.764 280.5 234.804L280.515 234.789ZM277.238 239.553C278.236 239.508 279.907 237.793 280.441 239.148C280.71 240.708 278.445 240.753 277.402 241.222C276.654 241.217 276.539 239.743 277.223 239.568L277.238 239.553ZM272.329 240.693C273.192 240.553 274.02 240.393 274.793 240.193C275.567 239.993 275.821 241.722 275.043 241.852C274.115 241.852 272.12 243.107 271.805 241.607C271.772 241.421 271.805 241.23 271.898 241.065C271.991 240.901 272.138 240.775 272.314 240.708L272.329 240.693ZM267.395 241.297C268.468 241.442 270.259 240.323 270.553 241.797C270.553 243.332 268.513 242.642 267.455 242.957C266.677 242.967 266.617 241.357 267.38 241.312L267.395 241.297ZM262.491 241.612C263.604 241.792 265.345 240.783 265.594 242.267C265.52 243.767 263.624 242.987 262.531 243.267C261.768 243.272 261.688 241.647 262.476 241.627L262.491 241.612ZM257.642 241.797C258.64 241.992 260.506 241.038 260.701 242.517C260.636 244.017 258.67 243.182 257.707 243.437C256.924 243.502 256.854 241.822 257.627 241.812L257.642 241.797ZM252.853 241.982C253.801 242.152 255.687 241.217 255.847 242.677C255.787 244.152 253.806 243.347 252.853 243.612C252.155 243.617 252.095 242.002 252.838 242.002L252.853 241.982ZM248.129 242.327C248.967 242.452 250.928 241.432 251.122 242.892C251.122 244.352 249.027 243.632 248.199 243.942C247.471 243.947 247.401 242.392 248.114 242.342L248.129 242.327ZM243.47 243.142C244.263 243.142 246.189 241.897 246.463 243.347C246.513 244.777 244.423 244.312 243.614 244.732C242.906 244.727 242.826 243.287 243.455 243.157L243.47 243.142ZM239.075 245.772C239.625 245.019 240.351 244.413 241.19 244.007C241.963 243.662 242.243 245.267 241.619 245.507C240.576 245.886 240.252 246.806 239.489 247.136C238.905 247.086 238.741 246.191 239.06 245.786L239.075 245.772ZM238.746 248.446C239.683 248.271 239.683 250.336 240.701 251.14C241.055 251.53 240.965 252.525 240.342 252.53C239.284 251.9 237.678 249.226 238.741 248.461L238.746 248.446ZM241.739 253.235C242.382 252.12 243.654 254.28 244.517 254.65C244.665 254.785 244.769 254.962 244.815 255.157C244.862 255.352 244.848 255.557 244.777 255.744C244.632 256.124 244.278 256.274 244.004 256.049C243.106 255.144 241.355 254.645 241.734 253.25L241.739 253.235ZM245.834 256.519C245.969 256.119 246.308 255.964 246.603 256.164C247.311 256.919 249.336 257.279 249.052 258.664C248.927 259.059 248.598 259.239 248.289 259.044C247.376 258.249 245.545 257.954 245.819 256.534L245.834 256.519ZM250.15 259.379C250.269 258.969 250.609 258.794 250.913 258.979C251.681 259.703 253.716 259.978 253.462 261.403C252.933 262.713 251.232 260.658 250.469 260.458C250.314 260.334 250.199 260.167 250.14 259.977C250.08 259.787 250.078 259.584 250.135 259.394L250.15 259.379ZM254.589 262.068C255.118 260.758 256.759 262.738 257.583 262.958C257.745 263.08 257.866 263.249 257.93 263.441C257.995 263.634 257.999 263.842 257.942 264.037C257.413 265.357 255.742 263.368 254.914 263.148C254.758 263.024 254.642 262.857 254.582 262.667C254.521 262.478 254.519 262.274 254.574 262.083L254.589 262.068ZM259.119 264.702C259.229 264.282 259.578 264.093 259.887 264.272L262.182 265.592C262.746 265.847 262.721 267.207 261.978 267.177C262.023 267.302 259.513 265.792 259.483 265.787C259.319 265.668 259.195 265.502 259.128 265.311C259.06 265.12 259.052 264.913 259.104 264.717L259.119 264.702ZM263.714 267.352C263.828 266.932 264.178 266.737 264.497 266.922C265.395 267.697 267.425 267.922 267.186 269.386C266.627 270.711 264.956 268.682 264.078 268.447C263.909 268.329 263.781 268.162 263.71 267.969C263.64 267.776 263.631 267.566 263.684 267.367L263.714 267.352ZM268.363 270.091C268.483 269.671 268.862 269.491 269.161 269.686C270.159 270.536 272.105 270.761 271.85 272.266C271.72 272.681 271.351 272.856 271.037 272.651C270.259 271.911 268.084 271.576 268.348 270.106L268.363 270.091ZM273.027 273.036C273.043 272.947 273.081 272.865 273.136 272.795C273.192 272.725 273.264 272.669 273.346 272.634C273.428 272.599 273.518 272.585 273.607 272.593C273.696 272.601 273.781 272.631 273.856 272.681C274.853 273.625 276.804 274.015 276.475 275.53C275.811 276.745 274.319 274.53 273.347 274.175C273.185 274.043 273.067 273.865 273.007 273.664C272.947 273.464 272.949 273.25 273.012 273.051L273.027 273.036ZM277.602 276.47C278.5 275.205 280.326 278.639 280.55 279.099C281.049 280.209 279.672 280.864 279.338 279.599C279.188 278.784 277.058 277.73 277.587 276.495L277.602 276.47ZM277.457 283.468C278.749 283.133 279.428 281.114 280.261 281.969C281.064 283.393 279.084 284.543 277.732 285.088C277.028 285.073 276.854 283.753 277.442 283.493L277.457 283.468ZM272.748 285.293C273.746 285.203 275.407 283.628 275.951 285.053C276.23 286.553 273.91 286.513 272.958 286.953C272.244 286.923 272.08 285.493 272.733 285.318L272.748 285.293ZM268.014 287.852C268.383 287.502 270.588 285.233 271.162 286.768C271.556 288.157 269.166 288.347 268.882 289.142C268.139 289.897 267.475 288.382 267.999 287.877L268.014 287.852ZM267.969 290.757C268.967 290.257 269.141 291.986 269.964 292.576C270.418 293.076 271.152 293.651 270.758 294.401C270.119 295.836 266.847 291.312 267.954 290.782L267.969 290.757ZM271.87 295.341C271.889 295.254 271.93 295.174 271.988 295.107C272.046 295.04 272.12 294.989 272.202 294.958C272.285 294.927 272.374 294.918 272.462 294.931C272.549 294.943 272.632 294.978 272.703 295.031C273.456 295.896 275.617 296.181 275.392 297.67C274.808 299.045 272.933 296.79 272.184 296.495C272.025 296.36 271.909 296.181 271.851 295.98C271.792 295.779 271.794 295.566 271.855 295.366L271.87 295.341ZM276.624 298.34C277.123 296.965 278.889 298.84 279.872 298.97C280.059 299.072 280.208 299.232 280.297 299.425C280.387 299.619 280.413 299.836 280.371 300.045C280.296 300.495 279.957 300.74 279.607 300.595C278.54 299.93 276.475 299.895 276.609 298.35L276.624 298.34ZM281.638 300.55C282.002 299.095 283.953 300.779 284.945 300.834C285.136 300.927 285.292 301.077 285.391 301.264C285.491 301.451 285.529 301.665 285.499 301.874C285.185 303.374 283.045 301.684 282.162 301.604C281.977 301.507 281.827 301.353 281.734 301.166C281.641 300.978 281.609 300.766 281.643 300.56L281.638 300.55ZM286.811 302.274C286.851 301.809 287.18 301.519 287.539 301.619C288.537 302.119 290.747 301.799 290.762 303.339C290.732 303.749 290.448 304.124 290.039 304.024C288.941 303.524 286.821 303.864 286.796 302.284L286.811 302.274Z" fill="#59458C"/>
<path d="M250.933 150.882C251.656 150.682 251.606 149.562 251.976 148.943C252.37 148.148 251.437 147.198 250.978 148.223C250.713 149.023 249.716 150.642 250.933 150.882Z" fill="#59458C"/>
</g>
<path d="M299.482 293.331C310.656 294.261 312.612 317.976 299.527 316.861C288.686 315.781 286.801 292.491 299.482 293.331ZM299.517 311.792C306.925 312.372 305.813 298.97 299.492 298.4C292.233 297.865 293.316 311.217 299.517 311.792Z" fill="url(#paint28_linear_810_34061)"/>
<path d="M244.971 127.757C248.493 106.437 268.548 118.259 260.027 134.656C249.451 154.926 253.008 158.256 245.755 134.096C245.037 132.065 244.77 129.902 244.971 127.757ZM250.06 133.596C257.742 139.885 262.102 121.748 253.966 121.099C249.052 120.734 246.528 130.252 250.06 133.596Z" fill="url(#paint29_linear_810_34061)"/>
<g style="mix-blend-mode:multiply">
<path d="M251.626 149.637L259.384 133.641C261.743 129.717 262.058 123.093 259.773 119.284C262.696 122.993 262.621 130.442 260.027 134.676L252.26 150.672C251.706 151.792 250.659 151.222 250.534 150.172C250.75 150.246 250.986 150.231 251.19 150.13C251.395 150.03 251.552 149.853 251.626 149.637Z" fill="url(#paint30_linear_810_34061)"/>
</g>
<g style="mix-blend-mode:multiply">
<path d="M274.425 138.48C275.587 169.888 309.739 162.865 309.475 134.531C308.173 102.748 274.056 110.646 274.425 138.48Z" fill="#C8D3F9"/>
</g>
<g style="mix-blend-mode:multiply">
<path d="M227.142 193.753C227.741 227.176 262.955 225.566 263.265 192.603C262.471 158.611 227.297 161.455 227.142 193.753Z" fill="#C8D3F9"/>
</g>
<g style="mix-blend-mode:multiply">
<path d="M267.64 254.24C267.525 308.003 332.712 317.526 334.413 258.379C334.553 203.366 268.433 197.012 267.64 254.24Z" fill="#C8D3F9"/>
</g>
</g>
</g>
<path d="M350.597 236.739C391.573 157.256 496.709 243.617 427.517 299.54C337.447 368.795 360.863 378.058 347.294 265.682C345.595 255.917 346.742 245.868 350.597 236.739ZM372.691 273.231C384.854 293.551 417.774 291.052 426.304 268.347C429.283 260.977 429.268 252.732 426.261 245.374C423.255 238.015 417.497 232.127 410.216 228.965C383.362 216.723 356.503 249.121 372.691 273.206V273.231Z" fill="url(#paint31_linear_810_34061)"/>
<g style="mix-blend-mode:multiply">
<path d="M361.911 344.755L425.192 293.821C443.74 281.889 452.54 254.995 444.818 234.499C455.947 255.814 448.04 286.403 427.512 299.54L364.236 350.479C359.836 353.853 354.588 349.979 354.967 344.825C355.963 345.599 357.191 346.014 358.451 346.001C359.712 345.988 360.931 345.549 361.911 344.755Z" fill="url(#paint32_linear_810_34061)"/>
</g>
</g>
<defs>
<linearGradient id="paint0_linear_810_34061" x1="232.625" y1="298.434" x2="147.751" y2="222.888" gradientUnits="userSpaceOnUse">
<stop stop-color="#6F00BF"/>
<stop offset="1" stop-color="#E35BFF"/>
</linearGradient>
<linearGradient id="paint1_linear_810_34061" x1="234.83" y1="299.054" x2="168.791" y2="240.269" gradientUnits="userSpaceOnUse">
<stop stop-color="#6F00BF"/>
<stop offset="1" stop-color="#E35BFF"/>
</linearGradient>
<linearGradient id="paint2_linear_810_34061" x1="214.567" y1="183.23" x2="180.805" y2="191.745" gradientUnits="userSpaceOnUse">
<stop stop-color="#F0877E"/>
<stop offset="1" stop-color="#FABEB2"/>
</linearGradient>
<linearGradient id="paint3_linear_810_34061" x1="188.805" y1="156.476" x2="178.988" y2="211.467" gradientUnits="userSpaceOnUse">
<stop stop-color="#6F00BF"/>
<stop offset="1" stop-color="#6A5ADF"/>
</linearGradient>
<linearGradient id="paint4_linear_810_34061" x1="149.81" y1="337.387" x2="150.185" y2="345.425" gradientUnits="userSpaceOnUse">
<stop stop-color="#00082A"/>
<stop offset="1" stop-color="#000477"/>
</linearGradient>
<linearGradient id="paint5_linear_810_34061" x1="167.998" y1="147.103" x2="168.579" y2="158.33" gradientUnits="userSpaceOnUse">
<stop stop-color="#F0877E"/>
<stop offset="1" stop-color="#FABEB2"/>
</linearGradient>
<linearGradient id="paint6_linear_810_34061" x1="183.196" y1="139.634" x2="182.068" y2="162.405" gradientUnits="userSpaceOnUse">
<stop stop-color="#F0877E"/>
<stop offset="1" stop-color="#FABEB2"/>
</linearGradient>
<linearGradient id="paint7_linear_810_34061" x1="180.155" y1="230.24" x2="169.606" y2="329.844" gradientUnits="userSpaceOnUse">
<stop stop-color="#08005C"/>
<stop offset="1" stop-color="#94008F"/>
</linearGradient>
<linearGradient id="paint8_linear_810_34061" x1="173.879" y1="229.575" x2="163.335" y2="329.179" gradientUnits="userSpaceOnUse">
<stop stop-color="#08005C"/>
<stop offset="1" stop-color="#94008F"/>
</linearGradient>
<linearGradient id="paint9_linear_810_34061" x1="161.851" y1="228.305" x2="151.308" y2="327.909" gradientUnits="userSpaceOnUse">
<stop stop-color="#08005C"/>
<stop offset="1" stop-color="#94008F"/>
</linearGradient>
<linearGradient id="paint10_linear_810_34061" x1="164.391" y1="206.155" x2="170.041" y2="153.119" gradientUnits="userSpaceOnUse">
<stop stop-color="#6F00BF"/>
<stop offset="1" stop-color="#6A5ADF"/>
</linearGradient>
<linearGradient id="paint11_linear_810_34061" x1="182.39" y1="170.342" x2="170.713" y2="236.683" gradientUnits="userSpaceOnUse">
<stop stop-color="#6F00BF"/>
<stop offset="1" stop-color="#E35BFF"/>
</linearGradient>
<linearGradient id="paint12_linear_810_34061" x1="165.389" y1="164.809" x2="166.646" y2="148.143" gradientUnits="userSpaceOnUse">
<stop stop-color="#6F00BF"/>
<stop offset="1" stop-color="#E35BFF"/>
</linearGradient>
<linearGradient id="paint13_linear_810_34061" x1="172.153" y1="165.309" x2="173.405" y2="148.663" gradientUnits="userSpaceOnUse">
<stop stop-color="#6F00BF"/>
<stop offset="1" stop-color="#E35BFF"/>
</linearGradient>
<linearGradient id="paint14_linear_810_34061" x1="176.595" y1="133.753" x2="189.781" y2="111.342" gradientUnits="userSpaceOnUse">
<stop stop-color="#23005C"/>
<stop offset="1" stop-color="#2500B9"/>
</linearGradient>
<linearGradient id="paint15_linear_810_34061" x1="191.233" y1="132.163" x2="192.277" y2="127.162" gradientUnits="userSpaceOnUse">
<stop stop-color="#23005C"/>
<stop offset="1" stop-color="#2500B9"/>
</linearGradient>
<linearGradient id="paint16_linear_810_34061" x1="183.995" y1="113.987" x2="163.494" y2="132.422" gradientUnits="userSpaceOnUse">
<stop stop-color="#6F00BF"/>
<stop offset="1" stop-color="#6A5ADF"/>
</linearGradient>
<linearGradient id="paint17_linear_810_34061" x1="148.672" y1="204.43" x2="154.322" y2="151.449" gradientUnits="userSpaceOnUse">
<stop stop-color="#6F00BF"/>
<stop offset="1" stop-color="#6A5ADF"/>
</linearGradient>
<linearGradient id="paint18_linear_810_34061" x1="172.927" y1="168.728" x2="161.477" y2="233.781" gradientUnits="userSpaceOnUse">
<stop stop-color="#6F00BF"/>
<stop offset="1" stop-color="#E35BFF"/>
</linearGradient>
<linearGradient id="paint19_linear_810_34061" x1="176.549" y1="169.543" x2="165.099" y2="234.596" gradientUnits="userSpaceOnUse">
<stop stop-color="#6F00BF"/>
<stop offset="1" stop-color="#E35BFF"/>
</linearGradient>
<linearGradient id="paint20_linear_810_34061" x1="180.305" y1="170.383" x2="168.855" y2="235.436" gradientUnits="userSpaceOnUse">
<stop stop-color="#6F00BF"/>
<stop offset="1" stop-color="#E35BFF"/>
</linearGradient>
<linearGradient id="paint21_linear_810_34061" x1="183.248" y1="171.088" x2="171.799" y2="236.141" gradientUnits="userSpaceOnUse">
<stop stop-color="#6F00BF"/>
<stop offset="1" stop-color="#E35BFF"/>
</linearGradient>
<linearGradient id="paint22_linear_810_34061" x1="186.944" y1="335.647" x2="187.32" y2="343.665" gradientUnits="userSpaceOnUse">
<stop stop-color="#00082A"/>
<stop offset="1" stop-color="#000477"/>
</linearGradient>
<linearGradient id="paint23_linear_810_34061" x1="170.527" y1="168.743" x2="158.937" y2="234.601" gradientUnits="userSpaceOnUse">
<stop stop-color="#6F00BF"/>
<stop offset="1" stop-color="#E35BFF"/>
</linearGradient>
<linearGradient id="paint24_linear_810_34061" x1="131.884" y1="197.062" x2="186.181" y2="194.259" gradientUnits="userSpaceOnUse">
<stop stop-color="#F0877E"/>
<stop offset="1" stop-color="#FABEB2"/>
</linearGradient>
<linearGradient id="paint25_linear_810_34061" x1="132.214" y1="203.101" x2="186.486" y2="200.298" gradientUnits="userSpaceOnUse">
<stop stop-color="#F0877E"/>
<stop offset="1" stop-color="#FABEB2"/>
</linearGradient>
<linearGradient id="paint26_linear_810_34061" x1="146.233" y1="204.185" x2="151.883" y2="151.184" gradientUnits="userSpaceOnUse">
<stop stop-color="#6F00BF"/>
<stop offset="1" stop-color="#6A5ADF"/>
</linearGradient>
<linearGradient id="paint27_linear_810_34061" x1="132.184" y1="202.371" x2="186.406" y2="199.563" gradientUnits="userSpaceOnUse">
<stop stop-color="#F0877E"/>
<stop offset="1" stop-color="#FABEB2"/>
</linearGradient>
<linearGradient id="paint28_linear_810_34061" x1="304.401" y1="312.122" x2="290.588" y2="291.948" gradientUnits="userSpaceOnUse">
<stop stop-color="#6F00BF"/>
<stop offset="1" stop-color="#E35BFF"/>
</linearGradient>
<linearGradient id="paint29_linear_810_34061" x1="259.464" y1="146.051" x2="247.809" y2="113.158" gradientUnits="userSpaceOnUse">
<stop stop-color="#6F00BF"/>
<stop offset="1" stop-color="#E35BFF"/>
</linearGradient>
<linearGradient id="paint30_linear_810_34061" x1="259.598" y1="146.581" x2="249.729" y2="118.727" gradientUnits="userSpaceOnUse">
<stop stop-color="#6F00BF"/>
<stop offset="1" stop-color="#E35BFF"/>
</linearGradient>
<linearGradient id="paint31_linear_810_34061" x1="403.27" y1="339.146" x2="394.189" y2="184.305" gradientUnits="userSpaceOnUse">
<stop stop-color="#6F00BF"/>
<stop offset="1" stop-color="#E35BFF"/>
</linearGradient>
<linearGradient id="paint32_linear_810_34061" x1="404.811" y1="341.868" x2="397.745" y2="221.39" gradientUnits="userSpaceOnUse">
<stop stop-color="#6F00BF"/>
<stop offset="1" stop-color="#E35BFF"/>
</linearGradient>
<clipPath id="clip0_810_34061">
<rect width="549" height="368" fill="white" transform="matrix(-1 0 0 1 549 0)"/>
</clipPath>
</defs>
</svg>
