<svg width="41" height="40" viewBox="0 0 41 40" fill="none" xmlns="http://www.w3.org/2000/svg">
<g clip-path="url(#clip0_876_34062)">
<path d="M3.41702 18.0537C3.57223 17.9648 3.70828 17.846 3.81728 17.7042C3.92628 17.5624 4.00607 17.4004 4.05203 17.2275C4.09799 17.0547 4.10922 16.8744 4.08505 16.6972C4.06088 16.52 4.00181 16.3493 3.91124 16.1951C3.77701 15.9631 3.57702 15.7762 3.33656 15.6579C3.09609 15.5396 2.82596 15.4953 2.56031 15.5306C2.29466 15.5658 2.04543 15.679 1.84412 15.8559C1.64282 16.0328 1.49849 16.2654 1.42938 16.5243C1.36027 16.7832 1.36949 17.0568 1.45586 17.3105C1.54224 17.5642 1.7019 17.7866 1.91465 17.9495C2.1274 18.1124 2.38368 18.2086 2.6511 18.2259C2.91852 18.2432 3.18506 18.1808 3.41702 18.0466V18.0537Z" fill="white"/>
<path d="M5.93668 27.6792C6.13036 26.9564 5.7014 26.2134 4.97857 26.0197C4.25574 25.826 3.51276 26.255 3.31908 26.9778C3.12539 27.7007 3.55436 28.4436 4.27718 28.6373C5.00001 28.831 5.743 28.402 5.93668 27.6792Z" fill="white"/>
<path d="M12.2805 34.5005C12.1465 34.2685 11.9467 34.0814 11.7064 33.9629C11.466 33.8444 11.196 33.7999 10.9303 33.8348C10.6647 33.8698 10.4154 33.9827 10.2139 34.1594C10.0124 34.336 9.86786 34.5684 9.79845 34.8272C9.72904 35.086 9.73792 35.3596 9.82396 35.6133C9.91 35.8671 10.0693 36.0896 10.2818 36.2528C10.4943 36.416 10.7505 36.5126 11.0178 36.5302C11.2852 36.5479 11.5518 36.4859 11.7839 36.3521C11.9381 36.2632 12.0733 36.1447 12.1818 36.0035C12.2902 35.8623 12.3698 35.7012 12.4159 35.5292C12.462 35.3573 12.4738 35.1779 12.4505 35.0014C12.4273 34.8249 12.3695 34.6547 12.2805 34.5005Z" fill="white"/>
<path d="M23.9989 22.9511L17.4866 18.8484V22.464L26.3329 28.0494V19.3355L24.784 22.717C24.7518 22.7876 24.7048 22.8505 24.6463 22.9015C24.5878 22.9524 24.519 22.9902 24.4446 23.0124C24.3703 23.0346 24.292 23.0406 24.2152 23.03C24.1383 23.0194 24.0646 22.9925 23.9989 22.9511Z" fill="white"/>
<path d="M26.4443 11.4161C26.4813 11.3912 26.525 11.378 26.5696 11.3782C26.6149 11.3784 26.6593 11.3915 26.6973 11.4161L31.5993 14.5091L35.449 12.0782L26.572 6.47388L17.6949 12.0782L21.5447 14.5091L26.4443 11.4161Z" fill="white"/>
<path d="M26.5713 11.8943L21.9862 14.7887L26.5713 17.6831L31.1541 14.7887L26.5713 11.8943Z" fill="white"/>
<path d="M39.3176 8.8127L27.8418 2.19157C27.4823 1.98402 27.0745 1.87476 26.6594 1.87476C26.2443 1.87476 25.8366 1.98402 25.4771 2.19157L14.4127 8.57623L14.3914 8.58805L5.68935 13.6107C5.37797 13.7903 5.15072 14.0864 5.05759 14.4336C4.96446 14.7808 5.01309 15.1508 5.19277 15.4622C5.37245 15.7736 5.66846 16.0009 6.0157 16.094C6.36293 16.1871 6.73294 16.1385 7.04432 15.9588L12.8213 12.6246V14.9254L1.18462 21.6341C0.871038 21.8141 0.641806 22.1112 0.547348 22.4603C0.45289 22.8093 0.500943 23.1815 0.680937 23.4951C0.86093 23.8086 1.15812 24.0379 1.50713 24.1323C1.85613 24.2268 2.22837 24.1787 2.54195 23.9988L12.8213 18.0634V21.0405L7.08925 24.3511C6.93498 24.44 6.79978 24.5584 6.6914 24.6997C6.58302 24.841 6.50359 25.0022 6.45767 25.1742C6.41176 25.3463 6.40026 25.5257 6.42383 25.7021C6.4474 25.8786 6.50558 26.0487 6.59503 26.2026C6.68369 26.3568 6.80194 26.492 6.94298 26.6003C7.08403 26.7087 7.24509 26.7881 7.41692 26.834C7.58875 26.8799 7.76796 26.8915 7.94425 26.8679C8.12055 26.8444 8.29046 26.7863 8.44422 26.6969L12.8236 24.1619C12.8334 24.5364 12.9319 24.9031 13.1112 25.232C13.2904 25.5609 13.5452 25.8425 13.8546 26.0537L2.88956 32.391C2.73052 32.4774 2.59038 32.5947 2.47741 32.736C2.36445 32.8774 2.28094 33.04 2.23183 33.2141C2.18271 33.3883 2.16899 33.5706 2.19145 33.7501C2.21392 33.9297 2.27213 34.1029 2.36264 34.2596C2.45315 34.4163 2.57413 34.5533 2.71845 34.6625C2.86276 34.7716 3.02748 34.8508 3.20289 34.8953C3.3783 34.9398 3.56084 34.9487 3.73974 34.9214C3.91865 34.8942 4.09028 34.8314 4.24453 34.7368L16.5551 27.6309L19.012 29.0497L13.7222 32.1025C13.568 32.1915 13.4329 32.31 13.3245 32.4512C13.2161 32.5924 13.1366 32.7535 13.0904 32.9255C13.0443 33.0974 13.0325 33.2767 13.0557 33.4532C13.0789 33.6297 13.1367 33.7999 13.2256 33.9541C13.3146 34.1083 13.4331 34.2434 13.5743 34.3518C13.7155 34.4602 13.8766 34.5397 14.0486 34.5859C14.2205 34.632 14.3998 34.6438 14.5763 34.6206C14.7528 34.5974 14.923 34.5397 15.0772 34.4507L21.722 30.6199L23.9495 31.9063L17.6736 35.5243C17.5194 35.6132 17.3843 35.7317 17.2759 35.8729C17.1675 36.0141 17.088 36.1753 17.0418 36.3472C16.9957 36.5191 16.9839 36.6985 17.0071 36.8749C17.0303 37.0514 17.0881 37.2216 17.177 37.3758C17.266 37.53 17.3845 37.6651 17.5257 37.7735C17.6669 37.8819 17.828 37.9615 18 38.0076C18.1719 38.0537 18.3512 38.0655 18.5277 38.0423C18.7042 38.0191 18.8744 37.9614 19.0286 37.8724L27.8418 32.7836L39.3176 26.1624C39.6771 25.9549 39.9756 25.6564 40.1831 25.2969C40.3907 24.9375 40.5 24.5297 40.5 24.1146V10.8723C40.502 10.4553 40.3938 10.0451 40.1861 9.68333C39.9785 9.32161 39.6788 9.02124 39.3176 8.8127ZM38.0431 17.3421L36.1253 18.56V22.6036C36.1252 22.6431 36.1152 22.6821 36.0962 22.7168C36.0772 22.7515 36.0498 22.7809 36.0165 22.8022L26.6973 28.6879L26.6642 28.6998H26.6452C26.6241 28.7032 26.6025 28.7032 26.5814 28.6998C26.561 28.703 26.5403 28.703 26.5199 28.6998C26.5199 28.6998 26.5081 28.6998 26.501 28.6998L26.4679 28.6879L17.125 22.7928C17.0913 22.7717 17.0634 22.7424 17.044 22.7077C17.0245 22.673 17.0142 22.6339 17.0139 22.5941V18.56L15.0961 17.3516C14.985 17.2812 14.9032 17.1729 14.8658 17.0469C14.8284 16.9208 14.838 16.7854 14.8927 16.6658L17.0446 11.9696L17.0588 11.953C17.0645 11.9419 17.0716 11.9315 17.0801 11.9223L17.1014 11.9057L17.1226 11.8892L26.4419 6.00345C26.4797 5.97948 26.5236 5.96676 26.5684 5.96676C26.6132 5.96676 26.6571 5.97948 26.6949 6.00345L36.0141 11.8892L36.0354 11.9081L36.0543 11.9223C36.063 11.9319 36.0709 11.9422 36.078 11.953L36.0922 11.9696L38.2488 16.6682C38.3005 16.7866 38.3083 16.9196 38.2705 17.0432C38.2328 17.1668 38.1521 17.2728 38.0431 17.3421Z" fill="white"/>
<path d="M28.357 22.717L26.8058 19.3355V28.0494L35.6521 22.464V18.8484L29.1397 22.9511C29.0743 22.9925 29.0007 23.0194 28.924 23.0299C28.8473 23.0405 28.7693 23.0345 28.6951 23.0123C28.6209 22.9901 28.5523 22.9523 28.494 22.9013C28.4357 22.8504 28.389 22.7875 28.357 22.717Z" fill="white"/>
<path d="M3.41702 18.0537C3.57223 17.9648 3.70828 17.846 3.81728 17.7042C3.92628 17.5624 4.00607 17.4004 4.05203 17.2275C4.09799 17.0547 4.10922 16.8744 4.08505 16.6972C4.06088 16.52 4.00181 16.3493 3.91124 16.1951C3.77701 15.9631 3.57702 15.7762 3.33656 15.6579C3.09609 15.5396 2.82596 15.4953 2.56031 15.5306C2.29466 15.5658 2.04543 15.679 1.84412 15.8559C1.64282 16.0328 1.49849 16.2654 1.42938 16.5243C1.36027 16.7832 1.36949 17.0568 1.45586 17.3105C1.54224 17.5642 1.7019 17.7866 1.91465 17.9495C2.1274 18.1124 2.38368 18.2086 2.6511 18.2259C2.91852 18.2432 3.18506 18.1808 3.41702 18.0466V18.0537Z" fill="white"/>
<path d="M5.93668 27.6792C6.13036 26.9564 5.7014 26.2134 4.97857 26.0197C4.25574 25.826 3.51276 26.255 3.31908 26.9778C3.12539 27.7007 3.55436 28.4436 4.27718 28.6373C5.00001 28.831 5.743 28.402 5.93668 27.6792Z" fill="white"/>
<path d="M12.2805 34.5005C12.1465 34.2685 11.9467 34.0814 11.7064 33.9629C11.466 33.8444 11.196 33.7999 10.9303 33.8348C10.6647 33.8698 10.4154 33.9827 10.2139 34.1594C10.0124 34.336 9.86786 34.5684 9.79845 34.8272C9.72904 35.086 9.73792 35.3596 9.82396 35.6133C9.91 35.8671 10.0693 36.0896 10.2818 36.2528C10.4943 36.416 10.7505 36.5126 11.0178 36.5302C11.2852 36.5479 11.5518 36.4859 11.7839 36.3521C11.9381 36.2632 12.0733 36.1447 12.1818 36.0035C12.2902 35.8623 12.3698 35.7012 12.4159 35.5292C12.462 35.3573 12.4738 35.1779 12.4505 35.0014C12.4273 34.8249 12.3695 34.6547 12.2805 34.5005Z" fill="white"/>
<path d="M23.9989 22.9511L17.4866 18.8484V22.464L26.3329 28.0494V19.3355L24.784 22.717C24.7518 22.7876 24.7048 22.8505 24.6463 22.9015C24.5878 22.9524 24.519 22.9902 24.4446 23.0124C24.3703 23.0346 24.292 23.0406 24.2152 23.03C24.1383 23.0194 24.0646 22.9925 23.9989 22.9511Z" fill="white"/>
<path d="M26.4443 11.4161C26.4813 11.3912 26.525 11.378 26.5696 11.3782C26.6149 11.3784 26.6593 11.3915 26.6973 11.4161L31.5993 14.5091L35.449 12.0782L26.572 6.47388L17.6949 12.0782L21.5447 14.5091L26.4443 11.4161Z" fill="white"/>
<path d="M26.5713 11.8943L21.9862 14.7887L26.5713 17.6831L31.1541 14.7887L26.5713 11.8943Z" fill="white"/>
<path d="M39.3176 8.8127L27.8418 2.19157C27.4823 1.98402 27.0745 1.87476 26.6594 1.87476C26.2443 1.87476 25.8366 1.98402 25.4771 2.19157L14.4127 8.57623L14.3914 8.58805L5.68935 13.6107C5.37797 13.7903 5.15072 14.0864 5.05759 14.4336C4.96446 14.7808 5.01309 15.1508 5.19277 15.4622C5.37245 15.7736 5.66846 16.0009 6.0157 16.094C6.36293 16.1871 6.73294 16.1385 7.04432 15.9588L12.8213 12.6246V14.9254L1.18462 21.6341C0.871038 21.8141 0.641806 22.1112 0.547348 22.4603C0.45289 22.8093 0.500943 23.1815 0.680937 23.4951C0.86093 23.8086 1.15812 24.0379 1.50713 24.1323C1.85613 24.2268 2.22837 24.1787 2.54195 23.9988L12.8213 18.0634V21.0405L7.08925 24.3511C6.93498 24.44 6.79978 24.5584 6.6914 24.6997C6.58302 24.841 6.50359 25.0022 6.45767 25.1742C6.41176 25.3463 6.40026 25.5257 6.42383 25.7021C6.4474 25.8786 6.50558 26.0487 6.59503 26.2026C6.68369 26.3568 6.80194 26.492 6.94298 26.6003C7.08403 26.7087 7.24509 26.7881 7.41692 26.834C7.58875 26.8799 7.76796 26.8915 7.94425 26.8679C8.12055 26.8444 8.29046 26.7863 8.44422 26.6969L12.8236 24.1619C12.8334 24.5364 12.9319 24.9031 13.1112 25.232C13.2904 25.5609 13.5452 25.8425 13.8546 26.0537L2.88956 32.391C2.73052 32.4774 2.59038 32.5947 2.47741 32.736C2.36445 32.8774 2.28094 33.04 2.23183 33.2141C2.18271 33.3883 2.16899 33.5706 2.19145 33.7501C2.21392 33.9297 2.27213 34.1029 2.36264 34.2596C2.45315 34.4163 2.57413 34.5533 2.71845 34.6625C2.86276 34.7716 3.02748 34.8508 3.20289 34.8953C3.3783 34.9398 3.56084 34.9487 3.73974 34.9214C3.91865 34.8942 4.09028 34.8314 4.24453 34.7368L16.5551 27.6309L19.012 29.0497L13.7222 32.1025C13.568 32.1915 13.4329 32.31 13.3245 32.4512C13.2161 32.5924 13.1366 32.7535 13.0904 32.9255C13.0443 33.0974 13.0325 33.2767 13.0557 33.4532C13.0789 33.6297 13.1367 33.7999 13.2256 33.9541C13.3146 34.1083 13.4331 34.2434 13.5743 34.3518C13.7155 34.4602 13.8766 34.5397 14.0486 34.5859C14.2205 34.632 14.3998 34.6438 14.5763 34.6206C14.7528 34.5974 14.923 34.5397 15.0772 34.4507L21.722 30.6199L23.9495 31.9063L17.6736 35.5243C17.5194 35.6132 17.3843 35.7317 17.2759 35.8729C17.1675 36.0141 17.088 36.1753 17.0418 36.3472C16.9957 36.5191 16.9839 36.6985 17.0071 36.8749C17.0303 37.0514 17.0881 37.2216 17.177 37.3758C17.266 37.53 17.3845 37.6651 17.5257 37.7735C17.6669 37.8819 17.828 37.9615 18 38.0076C18.1719 38.0537 18.3512 38.0655 18.5277 38.0423C18.7042 38.0191 18.8744 37.9614 19.0286 37.8724L27.8418 32.7836L39.3176 26.1624C39.6771 25.9549 39.9756 25.6564 40.1831 25.2969C40.3907 24.9375 40.5 24.5297 40.5 24.1146V10.8723C40.502 10.4553 40.3938 10.0451 40.1861 9.68333C39.9785 9.32161 39.6788 9.02124 39.3176 8.8127ZM38.0431 17.3421L36.1253 18.56V22.6036C36.1252 22.6431 36.1152 22.6821 36.0962 22.7168C36.0772 22.7515 36.0498 22.7809 36.0165 22.8022L26.6973 28.6879L26.6642 28.6998H26.6452C26.6241 28.7032 26.6025 28.7032 26.5814 28.6998C26.561 28.703 26.5403 28.703 26.5199 28.6998C26.5199 28.6998 26.5081 28.6998 26.501 28.6998L26.4679 28.6879L17.125 22.7928C17.0913 22.7717 17.0634 22.7424 17.044 22.7077C17.0245 22.673 17.0142 22.6339 17.0139 22.5941V18.56L15.0961 17.3516C14.985 17.2812 14.9032 17.1729 14.8658 17.0469C14.8284 16.9208 14.838 16.7854 14.8927 16.6658L17.0446 11.9696L17.0588 11.953C17.0645 11.9419 17.0716 11.9315 17.0801 11.9223L17.1014 11.9057L17.1226 11.8892L26.4419 6.00345C26.4797 5.97948 26.5236 5.96676 26.5684 5.96676C26.6132 5.96676 26.6571 5.97948 26.6949 6.00345L36.0141 11.8892L36.0354 11.9081L36.0543 11.9223C36.063 11.9319 36.0709 11.9422 36.078 11.953L36.0922 11.9696L38.2488 16.6682C38.3005 16.7866 38.3083 16.9196 38.2705 17.0432C38.2328 17.1668 38.1521 17.2728 38.0431 17.3421Z" fill="white"/>
<path d="M28.357 22.717L26.8058 19.3355V28.0494L35.6521 22.464V18.8484L29.1397 22.9511C29.0743 22.9925 29.0007 23.0194 28.924 23.0299C28.8473 23.0405 28.7693 23.0345 28.6951 23.0123C28.6209 22.9901 28.5523 22.9523 28.494 22.9013C28.4357 22.8504 28.389 22.7875 28.357 22.717Z" fill="white"/>
</g>
<defs>
<clipPath id="clip0_876_34062">
<rect width="40" height="40" fill="white" transform="translate(0.5)"/>
</clipPath>
</defs>
</svg>
