<svg width="180" height="140" viewBox="0 0 180 140" fill="none" xmlns="http://www.w3.org/2000/svg">
<path d="M172.613 136.758C151.192 136.758 129.767 136.612 108.35 136.841C86.9324 137.071 65.5027 136.996 44.0814 137.004C32.0444 137.004 20.0088 137.004 7.9746 137.004C7.79408 137 7.61486 137.035 7.44928 137.107C7.28369 137.179 7.13565 137.286 7.01532 137.421L6.77758 137.442C6.52869 137.442 6.28999 137.54 6.114 137.716C5.93801 137.892 5.83914 138.13 5.83914 138.379C5.83914 138.628 5.93801 138.866 6.114 139.042C6.28999 139.218 6.52869 139.317 6.77758 139.317L7.01114 139.337C7.13194 139.472 7.28066 139.58 7.44701 139.652C7.61336 139.724 7.79338 139.759 7.9746 139.754C29.3848 139.754 50.8061 139.764 72.2386 139.783C93.664 139.783 115.081 139.992 136.507 140H172.613C174.699 140 174.699 136.758 172.613 136.758Z" fill="#5A9FDF"/>
<path d="M176.434 131.712H3.56604C2.62128 131.709 1.71615 131.332 1.0481 130.665C0.380051 129.998 0.00329762 129.093 0 128.149C0.00330332 127.206 0.380188 126.302 1.04836 125.635C1.71652 124.969 2.62167 124.593 3.56604 124.591H176.434C177.378 124.593 178.283 124.969 178.952 125.635C179.62 126.302 179.997 127.206 180 128.149C179.997 129.093 179.62 129.998 178.952 130.665C178.284 131.332 177.379 131.709 176.434 131.712Z" fill="#282B52"/>
<path d="M154.637 124.703C164.096 111.367 169.165 95.4203 169.139 79.0756C169.139 35.4021 133.687 0 89.9897 0C46.292 0 10.8442 35.4188 10.8442 79.0756C10.8208 95.4193 15.8875 111.365 25.342 124.703H154.637Z" fill="#D7E1FF"/>
<path d="M29.047 72.0626C29.047 72.0626 21.1224 64.9581 18.8201 61.3578C16.5178 57.7576 15.5627 54.7699 15.5877 53.8116C15.5836 53.5514 15.6577 53.2959 15.8004 53.0782C15.9432 52.8606 16.1481 52.6907 16.3885 52.5906C16.3885 52.5906 16.4177 50.7989 17.1226 50.2238C17.1226 50.2238 16.3885 49.1529 18.232 48.1404C20.0755 47.1278 25.6853 51.9781 26.0648 52.0864C26.4444 52.1948 27.6873 55.57 27.7623 56.3367C27.8374 57.1034 28.2837 61.7037 28.6424 62.5871C29.0011 63.4705 31.1699 68.0041 31.27 67.8249L29.047 72.0626Z" fill="#FDBEAF"/>
<path d="M15.3958 34.8104C11.0206 36.6605 7.51716 40.9358 6.8248 45.6819C6.06154 50.9072 8.16364 57.4743 13.5565 59.3452C18.9494 61.2162 25.5893 59.4244 28.8717 54.6658C31.2116 51.2697 31.3742 46.2694 30.415 42.3775C30.0435 40.821 29.3365 39.3642 28.3433 38.1088C27.35 36.8534 26.0946 35.8297 24.6644 35.1092C23.2343 34.3886 21.664 33.9886 20.0632 33.937C18.4623 33.8854 16.8695 34.1835 15.3958 34.8104Z" fill="#6A5ADF"/>
<path d="M16.0548 37.2147C12.5388 38.7023 9.72353 42.14 9.16881 45.9652C8.5557 50.1655 10.2449 55.4408 14.5909 56.9451C18.9369 58.4493 24.2588 57.0076 26.899 53.1948C28.78 50.4655 28.9218 46.4444 28.1502 43.3193C27.8551 42.0631 27.2883 40.8868 26.4895 39.8729C25.6908 38.8589 24.6795 38.032 23.5268 37.4503C22.3741 36.8685 21.1078 36.5459 19.8169 36.5052C18.5261 36.4645 17.242 36.7067 16.0548 37.2147Z" fill="#FBF1EC"/>
<path d="M45.8345 40.9025C45.8345 40.9025 43.332 30.556 43.4738 26.2933C43.6156 22.0305 44.5248 19.0178 45.0879 18.2428C45.2319 18.0262 45.4378 17.858 45.6788 17.7599C45.9198 17.6618 46.1848 17.6384 46.4393 17.6927C46.4393 17.6927 47.482 16.2302 48.3912 16.1551C48.3912 16.1551 48.3912 14.8551 50.4766 15.0759C52.562 15.2968 54.4389 22.4597 54.6891 22.7597C54.9394 23.0597 54.0552 26.5516 53.6798 27.2266C53.3044 27.9017 51.0647 31.9436 50.8687 32.8645C50.6726 33.7854 49.876 38.7648 50.0637 38.6648C50.2514 38.5648 45.8345 40.9025 45.8345 40.9025Z" fill="#FDBEAF"/>
<path d="M48.9543 2.91684C48.9543 2.91684 60.2364 17.8219 60.3323 18.4928C60.4282 19.1637 40.8212 35.7855 40.1539 35.7855C39.4865 35.7855 28.0084 20.8804 27.5288 19.9262C27.0492 18.972 47.6155 3.20436 48.9543 2.91684Z" fill="#282B52"/>
<path d="M48.3953 4.73779C48.3953 4.73779 58.4303 17.9928 58.5137 18.5845C58.5972 19.1762 41.1673 33.9771 40.5709 33.9771C39.9745 33.9771 29.7726 20.7221 29.3472 19.872C28.9218 19.022 47.2067 4.99197 48.3953 4.73779Z" fill="#FBF1EC"/>
<path d="M142.848 40.9025C142.848 40.9025 145.35 30.556 145.204 26.2933C145.058 22.0305 144.153 19.0178 143.59 18.2428C143.446 18.0262 143.24 17.858 142.999 17.7599C142.758 17.6618 142.493 17.6384 142.239 17.6927C142.239 17.6927 141.196 16.2302 140.291 16.1551C140.291 16.1551 140.291 14.8551 138.206 15.0759C136.12 15.2968 134.243 22.4597 133.989 22.7597C133.734 23.0597 134.627 26.5516 135.002 27.2266C135.378 27.9017 137.617 31.9436 137.813 32.8645C138.01 33.7854 138.806 38.7648 138.614 38.6648L142.848 40.9025Z" fill="#FDBEAF"/>
<path d="M147.329 18.7681L130.092 10.0239C129.153 9.54774 128.006 9.92193 127.529 10.8597L123.936 17.9301C123.459 18.8678 123.834 20.014 124.772 20.4902L142.009 29.2343C142.948 29.7105 144.095 29.3363 144.572 28.3986L148.165 21.3282C148.642 20.3904 148.267 19.2442 147.329 18.7681Z" fill="#282B52"/>
<path d="M146.712 18.9599L130.605 10.7892C129.667 10.3131 128.519 10.6873 128.043 11.625L124.935 17.7405C124.458 18.6783 124.833 19.8245 125.771 20.3006L141.878 28.4713C142.816 28.9474 143.964 28.5733 144.44 27.6355L147.548 21.52C148.025 20.5822 147.65 19.436 146.712 18.9599Z" fill="#5A9FDF"/>
<path d="M136.087 39.0399C136.087 39.0399 136.6 34.0396 136.191 31.4311C135.782 28.8226 133.272 24.5348 133.718 23.6223C134.389 22.2347 136.775 23.8431 138.756 27.235C140.641 30.456 141.647 36.4772 140.762 40.2274C139.878 43.9777 137.597 43.2151 137.246 42.8776C136.896 42.5401 136.087 39.0399 136.087 39.0399Z" fill="#FDBEAF"/>
<path d="M103.192 63.4913C103.192 63.4913 120.759 56.6409 125.785 53.6574C130.811 50.6739 134.089 37.8731 134.564 36.7272C135.04 35.5813 144.02 39.5107 144.458 40.4774C144.896 41.4442 143.231 54.8825 139.536 59.9703C135.841 65.0581 121.13 73.1919 121.13 73.1919L103.192 63.4913Z" fill="#5A9FDF"/>
<path d="M159.652 72.0626C159.652 72.0626 167.576 64.9581 169.875 61.3578C172.173 57.7576 173.136 54.7699 173.111 53.8116C173.115 53.5515 173.04 53.2963 172.898 53.0787C172.755 52.8611 172.55 52.6912 172.31 52.5906C172.31 52.5906 172.281 50.7989 171.572 50.2238C171.572 50.2238 172.31 49.1529 170.463 48.1404C168.615 47.1278 163.014 51.9781 162.634 52.0864C162.255 52.1948 161.007 55.57 160.932 56.3367C160.857 57.1034 160.415 61.7037 160.057 62.5871C159.698 63.4705 157.529 68.0041 157.429 67.8249L159.652 72.0626Z" fill="#FDBEAF"/>
<path d="M166.104 54.895C169.38 54.895 172.035 52.1712 172.035 48.8113C172.035 45.4513 169.38 42.7276 166.104 42.7276C162.829 42.7276 160.173 45.4513 160.173 48.8113C160.173 52.1712 162.829 54.895 166.104 54.895Z" fill="#FEB172"/>
<path d="M167.899 53.2981C170.291 52.3082 171.427 49.5685 170.436 47.1787C169.445 44.7889 166.703 43.654 164.311 44.6439C161.919 45.6338 160.783 48.3736 161.774 50.7634C162.765 53.1532 165.507 54.288 167.899 53.2981Z" fill="#FEE072"/>
<path d="M155.302 65.3081C155.302 65.3081 158.551 61.487 159.698 59.0994C160.845 56.7117 161.208 51.7656 162.092 51.2656C163.431 50.4989 164.482 53.174 164.177 57.0993C163.906 60.8203 161.308 66.3665 158.438 68.95C155.569 71.5335 154.134 69.6167 154.042 69.1375C153.95 68.6583 155.302 65.3081 155.302 65.3081Z" fill="#FDBEAF"/>
<path d="M113.986 68.4625C113.986 68.4625 132.337 72.7627 138.176 73.1461C144.016 73.5294 153.959 64.8331 155.01 64.1622C156.061 63.4913 161.224 71.8043 161.032 72.8586C160.841 73.9128 151.857 84.0384 145.922 86.1385C139.987 88.2387 123.245 86.6177 123.245 86.6177L113.986 68.4625Z" fill="#5A9FDF"/>
<path d="M52.9916 38.2731C52.9916 38.2731 52.4786 33.2728 52.8873 30.6685C53.296 28.0642 55.8069 23.7723 55.3606 22.8597C54.6891 21.468 52.3076 23.0806 50.3222 26.4683C48.437 29.6893 47.4319 35.7313 48.3328 39.4815C49.2337 43.2318 51.4984 42.4692 51.8488 42.1275C52.1991 41.7859 52.9916 38.2731 52.9916 38.2731Z" fill="#FDBEAF"/>
<path d="M85.5073 63.4913C85.5073 63.4913 67.9357 56.6409 62.914 53.6574C57.8924 50.6739 54.6224 37.8731 54.1344 36.7272C53.6465 35.5813 44.6792 39.5107 44.2371 40.4774C43.795 41.4442 45.4675 54.8825 49.1628 59.9703C52.8582 65.0581 67.5687 73.1919 67.5687 73.1919L85.5073 63.4913Z" fill="#5A9FDF"/>
<path d="M33.3971 65.3081C33.3971 65.3081 30.1438 61.487 28.9968 59.0994C27.8499 56.7117 27.4912 51.7656 26.607 51.2656C25.2681 50.4989 24.2171 53.174 24.5215 57.0993C24.7926 60.8203 27.3869 66.3665 30.2564 68.95C33.1259 71.5335 34.5607 69.6167 34.6566 69.1375C34.7526 68.6583 33.3971 65.3081 33.3971 65.3081Z" fill="#FDBEAF"/>
<path d="M74.7132 68.4625C74.7132 68.4625 56.3616 72.7627 50.5224 73.1461C44.6833 73.5294 34.7442 64.8331 33.6932 64.1622C32.6421 63.4913 27.4745 71.8043 27.6664 72.8586C27.8582 73.9128 36.8422 84.0384 42.7772 86.1385C48.7123 88.2387 65.4456 86.6177 65.4456 86.6177L74.7132 68.4625Z" fill="#5A9FDF"/>
<path d="M93.8072 13.5217C72.0981 13.5217 71.8103 33.2062 74.2961 43.6193C76.7819 54.0324 63.4895 65.7873 79.3637 74.767C95.2378 83.7467 111.3 75.0504 113.794 70.8501C117.13 65.2123 111.404 53.2699 113.126 45.2444C114.903 36.8939 117.047 13.5217 93.8072 13.5217Z" fill="#282B52"/>
<path d="M82.1373 69.9917C82.2332 70.5626 84.815 92.2555 85.3905 92.1597C85.9661 92.0639 105.665 91.393 104.902 90.8221C104.138 90.2513 107.292 72.6669 106.812 71.7126C106.332 70.7584 97.9197 68.9416 96.4849 68.5583C95.0501 68.1749 82.1373 69.9917 82.1373 69.9917Z" fill="#FBF1EC"/>
<path d="M83.9557 62.0621C85.7742 61.3912 86.7293 60.7245 87.6845 59.6703C88.6396 58.616 88.6396 53.9408 88.6396 53.9408L98.7788 54.7991C98.7788 54.7991 98.9707 58.2368 99.8299 59.3827C100.689 60.5286 102.224 61.0995 103.746 62.0579L104.326 71.421C104.326 71.421 96.6767 78.8714 82.8088 71.421C82.8088 71.421 82.3291 66.2623 82.3291 65.879C82.3291 65.4956 83.9557 62.0621 83.9557 62.0621Z" fill="#FDBEAF"/>
<path d="M83.9557 62.0621C83.9557 62.0621 83.8598 77.6338 88.5436 91.7764L69.1327 122.732C69.1327 122.732 57.8464 114.515 56.6995 101.998C55.5525 89.4804 64.624 76.4338 68.7489 71.3293C72.0022 67.3124 80.0352 63.208 83.9557 62.0621Z" fill="#5A9FDF"/>
<path d="M103.746 62.0621C103.746 62.0621 103.842 77.6338 99.1584 91.7764L118.574 122.732C118.574 122.732 129.856 114.515 131.003 101.998C132.15 89.4804 123.078 76.4338 118.953 71.3293C115.704 67.3124 107.671 63.208 103.746 62.0621Z" fill="#5A9FDF"/>
<path d="M118.332 124.524H69.9126C69.3724 124.524 68.8502 124.33 68.4403 123.979C68.0303 123.627 67.7596 123.141 67.6771 122.607L62.6053 89.5346C62.556 89.2128 62.577 88.8841 62.6667 88.5711C62.7564 88.2581 62.9128 87.9682 63.1251 87.7213C63.3374 87.4743 63.6007 87.2761 63.8968 87.1403C64.193 87.0045 64.515 86.9343 64.8409 86.9344H123.403C123.729 86.9342 124.051 87.0044 124.347 87.1402C124.643 87.2761 124.906 87.4743 125.118 87.7214C125.33 87.9685 125.486 88.2584 125.575 88.5714C125.664 88.8844 125.685 89.213 125.635 89.5346L120.567 122.607C120.484 123.14 120.213 123.626 119.803 123.978C119.393 124.329 118.872 124.523 118.332 124.524Z" fill="#BFCEE5"/>
<path d="M57.5086 10.4923C58.1133 9.94226 59.0476 8.82552 58.2301 7.8838C57.4126 6.94208 56.395 7.61712 55.8111 8.10465C54.9435 6.96708 54.1969 6.1212 54.0218 6.26287C53.3836 6.77123 51.1522 8.76302 50.8645 9.31722C50.5767 9.87142 54.6891 15.8176 55.7443 15.4343C56.7995 15.0509 58.7056 13.4258 58.9934 13.1425C59.1102 13.0258 58.4136 11.8465 57.5086 10.4923Z" fill="#5A9FDF"/>
<path d="M57.5003 8.97554C57.5003 8.97554 57.5003 8.93804 57.5003 8.92553C57.4853 8.88036 57.4627 8.83809 57.4335 8.80053C57.3783 8.67412 57.2868 8.56685 57.1708 8.49218L57.1165 8.46717C57.063 8.43811 57.0022 8.42508 56.9414 8.42967C56.8998 8.4256 56.8579 8.4256 56.8162 8.42967L56.6911 8.48384L56.6411 8.51301C56.5958 8.54168 56.5539 8.57522 56.5159 8.61302C56.4778 8.65171 56.4429 8.69352 56.4117 8.73802C56.3654 8.80264 56.3302 8.87444 56.3074 8.95054C56.3088 8.96021 56.3088 8.97003 56.3074 8.9797V9.12138C56.3051 9.14911 56.3051 9.17699 56.3074 9.20472C56.3054 9.23246 56.3054 9.26031 56.3074 9.28806C56.3093 9.29909 56.3093 9.31036 56.3074 9.32139L56.37 9.46723C56.3829 9.48841 56.3983 9.50799 56.4158 9.52557L56.4575 9.58391C56.4923 9.61531 56.53 9.64323 56.5702 9.66725H56.5952C56.6409 9.69154 56.6883 9.71243 56.737 9.72975H56.7662C56.8106 9.7341 56.8553 9.7341 56.8997 9.72975C56.9603 9.73225 57.0206 9.71935 57.0748 9.69225H57.0331C57.068 9.68244 57.1017 9.66844 57.1332 9.65058H57.1582H57.1874C57.2549 9.60046 57.3141 9.53999 57.3626 9.4714C57.3725 9.45704 57.3809 9.44168 57.3876 9.42557C57.4141 9.37611 57.4364 9.32454 57.4544 9.27139C57.4746 9.19954 57.4844 9.12517 57.4836 9.05054C57.4901 9.02576 57.4956 9.00074 57.5003 8.97554Z" fill="#5668AA"/>
<path d="M16.0924 40.3816C16.0947 40.3469 16.0947 40.3121 16.0924 40.2774C16.0869 40.212 16.0729 40.1476 16.0506 40.0858C16.018 39.9914 15.9731 39.9018 15.9172 39.8191C15.8617 39.7357 15.8004 39.6563 15.7337 39.5816C15.6608 39.5113 15.5779 39.4523 15.4876 39.4066C15.4139 39.3644 15.3285 39.3474 15.2443 39.3579C15.16 39.3684 15.0815 39.406 15.0205 39.4649C14.9615 39.5259 14.9239 39.6044 14.9133 39.6885C14.9028 39.7727 14.9199 39.858 14.9621 39.9316L15.0371 40.0524C15.0793 40.1176 15.1252 40.1802 15.1748 40.2399L15.108 40.1524C15.1605 40.2235 15.2093 40.2972 15.254 40.3733L15.3541 40.5108C15.3743 40.5401 15.3981 40.5667 15.425 40.59L15.4876 40.6316C15.535 40.6761 15.5921 40.709 15.6544 40.7275L15.6836 40.7691C15.7066 40.81 15.7346 40.8478 15.767 40.8816C15.776 40.8922 15.7872 40.9007 15.7998 40.9065C15.8124 40.9123 15.8261 40.9153 15.84 40.9153C15.8539 40.9153 15.8676 40.9123 15.8802 40.9065C15.8928 40.9007 15.904 40.8922 15.913 40.8816C15.9429 40.8318 15.9627 40.7766 15.9714 40.7191V40.6441C16.0441 40.5755 16.0874 40.4814 16.0924 40.3816Z" fill="#282B52"/>
<path d="M15.6476 40.6907L15.6427 40.6858H15.6378L15.6476 40.6907Z" fill="#282B52"/>
<path d="M24.0628 54.7491C24.0567 54.6869 24.0442 54.6254 24.0253 54.5658C24.0008 54.4844 23.9701 54.405 23.9335 54.3283C23.9008 54.2712 23.8616 54.2181 23.8167 54.1699L23.7834 54.1282L23.7417 54.0907C23.7037 54.053 23.6618 54.0194 23.6165 53.9907H23.5915C23.5541 53.9647 23.5151 53.941 23.4747 53.9199L23.3538 53.8699C23.2884 53.8511 23.219 53.8511 23.1536 53.8699C23.1097 53.87 23.0666 53.8815 23.0284 53.9032C22.9668 53.9223 22.9119 53.9584 22.87 54.0074C22.8105 54.0701 22.7662 54.1457 22.7407 54.2283C22.722 54.2922 22.722 54.3602 22.7407 54.4241C22.7414 54.491 22.7616 54.5562 22.799 54.6116L22.8574 54.7033L22.9075 54.8158C22.917 54.8495 22.9311 54.8817 22.9492 54.9116C22.9492 54.9325 22.9492 54.9491 22.9492 54.97V55.0241V55.0491C22.9761 55.1446 23.0262 55.2319 23.0952 55.3033C23.1292 55.3425 23.1702 55.375 23.2161 55.3992C23.2782 55.4368 23.3481 55.4596 23.4205 55.4658C23.4902 55.4842 23.5635 55.4842 23.6332 55.4658L23.7583 55.4117L23.8209 55.3658C23.879 55.3268 23.9263 55.2738 23.9585 55.2116C23.9735 55.1865 23.986 55.16 23.9961 55.1325C24.0294 55.0621 24.0465 54.9853 24.0461 54.9075C24.0753 54.8366 24.067 54.8116 24.0628 54.7491Z" fill="#282B52"/>
<path d="M13.4022 53.5949C13.3816 53.5419 13.3504 53.4937 13.3104 53.4532C13.2532 53.403 13.1866 53.3648 13.1144 53.3407C13.0014 53.3136 12.8823 53.33 12.7807 53.3865C12.612 53.4684 12.4681 53.5935 12.3637 53.7491C12.3359 53.7941 12.3122 53.8415 12.2927 53.8907C12.2514 53.9765 12.2179 54.0657 12.1926 54.1574V54.2866C12.1891 54.3531 12.2035 54.4193 12.2344 54.4783C12.2469 54.5173 12.2683 54.553 12.2969 54.5825C12.331 54.6365 12.3784 54.681 12.4346 54.7116C12.511 54.7507 12.5948 54.7734 12.6806 54.7783C12.8103 54.7752 12.934 54.7231 13.0268 54.6325L13.0977 54.5658C13.1453 54.5182 13.1831 54.4616 13.2089 54.3994C13.2346 54.3372 13.2479 54.2706 13.2479 54.2033C13.2491 54.195 13.2491 54.1865 13.2479 54.1783C13.2818 54.1115 13.3209 54.0474 13.3646 53.9866L13.4105 53.8824C13.425 53.825 13.425 53.7648 13.4105 53.7074C13.4163 53.6698 13.4135 53.6313 13.4022 53.5949Z" fill="#282B52"/>
<path d="M26.436 41.8525C26.4148 41.7719 26.3661 41.7012 26.2984 41.6525C26.2458 41.6095 26.1822 41.5821 26.1149 41.5733C26.0405 41.5662 25.9656 41.5792 25.898 41.6108C25.8434 41.6186 25.791 41.637 25.7436 41.665C25.7089 41.6863 25.6768 41.7115 25.6477 41.74L25.5893 41.7859L25.6811 41.7109L25.4517 41.9025L25.5434 41.8275C25.4466 41.8935 25.3643 41.9786 25.3015 42.0775C25.2883 42.088 25.277 42.1007 25.2682 42.115C25.2305 42.1858 25.2091 42.2641 25.2056 42.3442C25.2042 42.4134 25.223 42.4815 25.2598 42.5401C25.291 42.5997 25.3388 42.6489 25.3975 42.6817C25.4685 42.7227 25.549 42.7443 25.631 42.7442H25.6769H25.7979L25.8604 42.7151L25.9689 42.6692C26.0314 42.6276 26.094 42.5734 26.1524 42.5276C26.1859 42.5032 26.2167 42.4753 26.2441 42.4442L26.2817 42.3984C26.3254 42.3593 26.3571 42.3088 26.3734 42.2526C26.3848 42.2246 26.3918 42.1951 26.3943 42.165C26.4045 42.1365 26.4129 42.1072 26.4193 42.0775C26.4493 42.0064 26.4552 41.9273 26.436 41.8525Z" fill="#282B52"/>
<path d="M22.9325 41.6734C22.8108 41.3307 22.6254 41.014 22.3861 40.74C22.2929 40.5611 22.1577 40.4074 21.9921 40.292C21.8265 40.1766 21.6355 40.103 21.4352 40.0774C21.0549 40.1149 20.6882 40.2389 20.3633 40.4399C20.0272 40.5562 19.7259 40.7554 19.4874 41.0191L19.4582 41.0483C19.4193 41.0885 19.3929 41.1391 19.3823 41.194C19.3717 41.249 19.3774 41.3058 19.3987 41.3575C19.4199 41.4093 19.4558 41.4537 19.5019 41.4854C19.5481 41.517 19.6025 41.5346 19.6584 41.5358H19.7669H19.9212C19.9998 41.5246 20.0777 41.5093 20.1548 41.49C20.3267 41.4395 20.4952 41.3783 20.6594 41.3067L20.8304 41.2317C20.5051 42.2234 20.1631 43.2068 19.7961 44.1818C19.5833 44.7402 19.379 45.3027 19.1579 45.8486C19.0578 46.1028 18.916 46.382 18.7992 46.682L18.7117 46.7195C18.6319 46.759 18.5609 46.8143 18.5031 46.882L18.4781 46.9153C18.4311 46.945 18.3901 46.9831 18.3571 47.0278C18.3205 47.063 18.2945 47.1078 18.2821 47.157C18.2485 47.2213 18.2313 47.2929 18.232 47.3654C17.7273 47.4029 17.2227 47.4529 16.718 47.5237C16.3843 47.5695 16.0465 47.6237 15.717 47.6987L15.3458 47.7946C15.3624 47.7672 15.3805 47.7408 15.4 47.7154C15.4959 47.5737 15.6002 47.4445 15.6878 47.2987C15.7316 47.2142 15.7452 47.1173 15.7262 47.024C15.7072 46.9308 15.6569 46.8469 15.5835 46.7862C15.5059 46.7299 15.4113 46.7022 15.3156 46.7075C15.2199 46.7128 15.1289 46.7509 15.058 46.8153C14.9 46.9683 14.7601 47.1389 14.6409 47.3237C14.5277 47.4813 14.4339 47.652 14.3615 47.8321C14.293 48.0037 14.2634 48.1884 14.275 48.3729C14.2865 48.5574 14.3389 48.737 14.4282 48.8988C14.5946 49.1728 14.8287 49.3995 15.1081 49.5572C15.4125 49.7447 15.8338 49.9739 16.1841 49.7738C16.2648 49.7252 16.3234 49.6472 16.3475 49.5562C16.3717 49.4652 16.3594 49.3684 16.3134 49.2863C16.2261 49.1453 16.0961 49.0359 15.9422 48.9738L15.8338 48.928H15.7837L15.6127 48.8446L15.4542 48.7488C15.4337 48.7312 15.4113 48.7158 15.3875 48.7029C15.5835 48.7029 15.7796 48.6571 15.9464 48.6321C16.255 48.5904 16.5595 48.5529 16.8682 48.5238C17.504 48.4544 18.143 48.4183 18.7825 48.4154C18.8448 48.4236 18.9079 48.4236 18.9702 48.4154L19.1663 48.3904C19.2429 48.3692 19.317 48.3399 19.3873 48.3029C19.4562 48.2643 19.5205 48.2182 19.5792 48.1654L19.4749 48.2446C19.5303 48.2063 19.5833 48.1645 19.6334 48.1196C19.6812 48.0708 19.7245 48.0178 19.7627 47.9612C19.8175 47.8811 19.8545 47.7902 19.8712 47.6945C19.8989 47.557 19.8989 47.4154 19.8712 47.2779C19.8526 47.2162 19.8289 47.1563 19.8002 47.0987C19.7889 47.0697 19.7749 47.0418 19.7585 47.0153L19.721 46.9737C19.8378 46.7112 19.9337 46.4445 20.0338 46.2153C20.284 45.6486 20.5343 45.0819 20.7595 44.5069C21.1391 43.5276 21.4811 42.5401 21.8022 41.54C21.9124 41.7472 22.0453 41.9414 22.1984 42.1192C22.2719 42.1768 22.3612 42.2107 22.4544 42.2162C22.5476 42.2218 22.6403 42.1988 22.7201 42.1503C22.7999 42.1019 22.863 42.0302 22.9009 41.945C22.9389 41.8598 22.9499 41.765 22.9325 41.6734Z" fill="#282B52"/>
<path d="M52.3618 17.7927C52.0786 17.1677 51.7109 16.5845 51.269 16.0593C50.8603 15.4676 50.4502 14.8773 50.0387 14.2884C49.6216 13.7175 49.2379 13.1425 48.8208 12.5799C48.4697 12.0127 48.0368 11.5002 47.5362 11.059C47.411 10.9715 47.2442 11.1173 47.2817 11.2549C47.5306 11.8763 47.8678 12.4587 48.2827 12.9841C48.6623 13.5675 49.0543 14.1425 49.4381 14.7259C49.8218 15.3093 50.2055 15.8885 50.585 16.4718C50.7769 16.7635 50.9604 17.0552 51.1523 17.3469C51.269 17.5219 51.3858 17.7136 51.5151 17.8844C51.5106 17.9265 51.521 17.9688 51.5447 18.0039C51.5684 18.039 51.6037 18.0645 51.6444 18.0761H51.6861L51.757 18.1511V18.1428C52.0031 18.3511 52.4911 18.1844 52.3618 17.7927Z" fill="#5A9FDF"/>
<path d="M51.5902 20.8888C51.1731 19.9387 50.3765 19.0553 49.7384 18.2469C49.0502 17.3719 48.3286 16.526 47.6196 15.6718C46.9106 14.8176 46.2015 13.9592 45.5342 13.0675C45.2047 12.6216 44.8919 12.1674 44.5874 11.7049C44.3689 11.2686 44.0687 10.8783 43.7032 10.5548C43.6908 10.541 43.6737 10.5323 43.6553 10.5303C43.6368 10.5283 43.6183 10.5332 43.6033 10.5441C43.5882 10.555 43.5778 10.571 43.5739 10.5892C43.57 10.6073 43.573 10.6262 43.5822 10.6423C43.6352 11.0945 43.8048 11.5253 44.0744 11.8924C44.3288 12.3507 44.6041 12.7924 44.9086 13.23C45.5092 14.1342 46.1598 14.9967 46.823 15.851C47.4861 16.7052 48.2035 17.5886 48.8708 18.4719C49.1878 18.8886 49.5006 19.3053 49.8009 19.7512C50.1721 20.2108 50.4962 20.7063 50.7686 21.2304C50.7789 21.2994 50.8048 21.365 50.8444 21.4224C50.8839 21.4798 50.936 21.5275 50.9968 21.5617C51.0575 21.596 51.1253 21.616 51.1949 21.6201C51.2646 21.6243 51.3342 21.6125 51.3986 21.5858C51.463 21.559 51.5205 21.5179 51.5666 21.4656C51.6127 21.4133 51.6462 21.3512 51.6647 21.284C51.6832 21.2168 51.6861 21.1463 51.6732 21.0778C51.6603 21.0093 51.6319 20.9446 51.5902 20.8888Z" fill="#5A9FDF"/>
<path d="M48.6581 22.7972C48.241 21.8471 47.4402 20.9638 46.8063 20.1595C46.1181 19.2845 45.3965 18.4344 44.6833 17.5802C43.9701 16.726 43.2652 15.8718 42.5979 14.9759C42.2684 14.5342 41.9514 14.0758 41.647 13.6133C41.4312 13.1776 41.1323 12.7884 40.7669 12.4674C40.7557 12.4609 40.743 12.4575 40.73 12.4573C40.717 12.4572 40.7042 12.4605 40.6929 12.4668C40.6815 12.4731 40.672 12.4822 40.6653 12.4933C40.6585 12.5043 40.6547 12.517 40.6543 12.5299C40.6973 12.9927 40.8628 13.4357 41.134 13.8133C41.3884 14.2717 41.6636 14.7175 41.9681 15.1551C42.5645 16.0551 43.2193 16.9218 43.8825 17.7719C44.5457 18.6219 45.2631 19.5095 45.9304 20.3971C46.2474 20.8137 46.5602 21.2304 46.8605 21.6721C47.2252 22.1308 47.545 22.6234 47.8156 23.1431C47.8328 23.2056 47.8632 23.2638 47.9046 23.3137C47.946 23.3637 47.9976 23.4043 48.0558 23.4329C48.1141 23.4614 48.1778 23.4773 48.2427 23.4795C48.3076 23.4816 48.3722 23.47 48.4323 23.4453C48.4924 23.4207 48.5465 23.3836 48.5911 23.3365C48.6358 23.2893 48.6699 23.2333 48.6912 23.172C48.7126 23.1108 48.7207 23.0457 48.7149 22.9811C48.7092 22.9165 48.6899 22.8538 48.6581 22.7972Z" fill="#5A9FDF"/>
<path d="M46.5018 25.1723C46.1139 24.2139 45.3215 23.3139 44.7042 22.493C44.0327 21.6055 43.332 20.7429 42.6188 19.8762C41.9056 19.0095 41.2383 18.1344 40.596 17.2302C40.2748 16.776 39.9662 16.3176 39.6742 15.8468C39.4653 15.4064 39.1736 15.0103 38.815 14.68C38.8038 14.6735 38.7911 14.6701 38.7781 14.67C38.7651 14.6699 38.7523 14.6731 38.741 14.6794C38.7296 14.6857 38.7201 14.6948 38.7134 14.7059C38.7066 14.717 38.7028 14.7296 38.7024 14.7425C38.7334 15.2058 38.8891 15.6521 39.1528 16.0343C39.3989 16.501 39.6659 16.951 39.9453 17.3927C40.5251 18.3053 41.1548 19.1845 41.8055 20.0512C42.4561 20.9179 43.1652 21.8138 43.8325 22.7264C44.1411 23.143 44.4414 23.5847 44.7334 24.0223C45.0961 24.4893 45.4106 24.9919 45.6718 25.5224C45.6858 25.5885 45.7143 25.6507 45.7552 25.7045C45.796 25.7583 45.8483 25.8025 45.9083 25.8337C45.9682 25.865 46.0343 25.8827 46.1019 25.8855C46.1695 25.8882 46.2368 25.876 46.2991 25.8498C46.3614 25.8235 46.4171 25.7838 46.4623 25.7335C46.5074 25.6832 46.5409 25.6235 46.5603 25.5588C46.5796 25.494 46.5844 25.4258 46.5743 25.359C46.5642 25.2922 46.5395 25.2285 46.5018 25.1723Z" fill="#5A9FDF"/>
<path d="M43.3028 27.2558C42.8857 26.3057 42.0849 25.4224 41.451 24.6181C40.7628 23.7431 40.0412 22.893 39.328 22.0388C38.6148 21.1846 37.9099 20.3304 37.2426 19.4387C36.9131 18.9928 36.5961 18.5344 36.2917 18.0719C36.076 17.6362 35.777 17.247 35.4116 16.926C35.4004 16.9195 35.3877 16.9161 35.3747 16.9159C35.3617 16.9158 35.3489 16.9191 35.3376 16.9254C35.3262 16.9317 35.3167 16.9408 35.31 16.9519C35.3032 16.9629 35.2994 16.9756 35.299 16.9885C35.342 17.4513 35.5075 17.8943 35.7786 18.2719C36.0331 18.7303 36.3083 19.1761 36.6128 19.6137C37.2092 20.5137 37.8641 21.3804 38.5272 22.2305C39.1904 23.0805 39.9077 23.9681 40.5751 24.8557C40.8921 25.2723 41.2049 25.689 41.501 26.1307C41.8717 26.5906 42.1959 27.0862 42.4686 27.61C42.4848 27.6742 42.5146 27.7342 42.5561 27.7858C42.5977 27.8375 42.6499 27.8795 42.7093 27.909C42.7686 27.9385 42.8337 27.9548 42.9 27.9568C42.9662 27.9588 43.0321 27.9464 43.0931 27.9205C43.1541 27.8946 43.2088 27.8557 43.2534 27.8067C43.2979 27.7577 43.3313 27.6996 43.3513 27.6364C43.3712 27.5732 43.3772 27.5065 43.3688 27.4408C43.3604 27.3751 43.3379 27.312 43.3028 27.2558Z" fill="#5A9FDF"/>
<path d="M40.6251 29.1684C40.208 28.2184 39.4072 27.335 38.7732 26.5266C38.085 25.6557 37.3635 24.8057 36.6503 23.9514C35.9371 23.0972 35.2322 22.2388 34.5649 21.3471C34.2368 20.8999 33.9198 20.4457 33.6139 19.9845C33.3994 19.5481 33.1019 19.1575 32.7381 18.8345C32.7265 18.8278 32.7134 18.8243 32.7001 18.8244C32.6868 18.8245 32.6737 18.8281 32.6622 18.8349C32.6508 18.8417 32.6413 18.8514 32.6349 18.863C32.6284 18.8747 32.6251 18.8878 32.6254 18.9011C32.6684 19.3639 32.834 19.8069 33.1051 20.1845C33.3595 20.6429 33.6348 21.0846 33.9393 21.5221C34.5357 22.4263 35.1905 23.2889 35.8537 24.1431C36.5168 24.9973 37.2342 25.8807 37.9015 26.7683C38.2185 27.185 38.5313 27.6017 38.8275 28.0433C39.1982 28.5033 39.5223 28.9988 39.7951 29.5226C39.8099 29.5881 39.839 29.6496 39.8803 29.7027C39.9215 29.7558 39.974 29.7991 40.0338 29.8297C40.0937 29.8603 40.1596 29.8773 40.2268 29.8796C40.294 29.8819 40.3609 29.8694 40.4228 29.843C40.4846 29.8167 40.5399 29.777 40.5847 29.7269C40.6296 29.6768 40.6628 29.6174 40.6821 29.5531C40.7014 29.4887 40.7063 29.4209 40.6964 29.3544C40.6866 29.2879 40.6622 29.2244 40.6251 29.1684Z" fill="#5A9FDF"/>
<path d="M72.0939 68.1833C71.5059 68.1541 70.9678 68.9291 70.5883 69.3042C70.3547 69.5333 70.1337 69.7792 69.9084 70.0125C69.3931 69.9307 68.8671 69.9448 68.3569 70.0542C67.8522 70.1084 67.3475 70.175 66.8429 70.25C66.3382 70.325 65.8335 70.3959 65.3372 70.5001C65.0773 70.55 64.821 70.6168 64.5698 70.7001C64.4741 70.7162 64.3827 70.7515 64.301 70.8038C64.2193 70.856 64.149 70.9242 64.0943 71.0043C64.0777 71.0265 64.0688 71.0536 64.0688 71.0813C64.0688 71.1091 64.0777 71.1361 64.0943 71.1584C64.1714 71.2134 64.2588 71.2521 64.3513 71.2721C64.4438 71.2922 64.5394 71.2932 64.6324 71.2751C64.8951 71.2751 65.1537 71.2334 65.4123 71.2001C65.9211 71.1334 66.4216 71.0584 66.9305 71.0001C67.4393 70.9418 67.944 70.8917 68.4528 70.8459C68.6697 70.8459 68.8991 70.8167 69.1327 70.8042L68.9283 71.0126C67.896 72.1448 66.9215 73.3283 66.0087 74.5586C64.1454 77.0462 62.5213 79.704 61.1581 82.4966C60.7869 83.2592 60.4365 84.0342 60.1028 84.8134C59.936 85.2009 59.7775 85.5926 59.619 85.9843C59.4481 86.3661 59.4042 86.7926 59.4939 87.2011C59.4939 87.2802 59.5982 87.2927 59.6566 87.2677C59.9516 87.1816 60.2004 86.9824 60.3489 86.7135C60.5324 86.3593 60.6534 85.9552 60.8077 85.5843C61.1024 84.8676 61.418 84.1564 61.7545 83.4508C62.401 82.0758 63.1183 80.7257 63.8816 79.4089C65.4258 76.7918 67.1879 74.3092 69.1493 71.9876C69.7055 71.3376 70.2685 70.7001 70.8385 70.075C71.118 69.775 71.4016 69.4792 71.6727 69.1833C71.9438 68.8875 72.2024 68.6999 72.1982 68.3249C72.198 68.2934 72.1878 68.2627 72.169 68.2372C72.1503 68.2118 72.124 68.1929 72.0939 68.1833Z" fill="#5668AA"/>
<path d="M127.111 82.8883C125.814 80.1441 124.168 77.5784 122.215 75.2545C121.116 73.9011 119.942 72.6101 118.699 71.3876L116.901 69.6042L116.726 69.425H116.755C117.527 69.675 118.302 69.9084 119.078 70.1459C119.854 70.3834 120.576 70.6168 121.33 70.8376C121.689 70.9418 122.048 71.0668 122.411 71.1543C122.573 71.2021 122.745 71.2021 122.907 71.1543C122.97 71.136 123.028 71.1015 123.074 71.0543C123.128 70.9668 123.145 70.9501 123.124 71.0168C123.203 70.9876 123.278 70.8793 123.211 70.7959C123.171 70.7028 123.125 70.6124 123.074 70.5251C122.961 70.4062 122.816 70.3223 122.657 70.2834C122.327 70.1709 121.985 70.0876 121.652 69.9876C120.897 69.7709 120.138 69.5709 119.383 69.3584C118.628 69.1458 117.869 68.9417 117.11 68.7375L116.046 68.4625L115.712 68.3708C115.509 68.1933 115.276 68.0523 115.024 67.9541C114.979 67.9425 114.932 67.9428 114.887 67.955C114.842 67.9672 114.801 67.9909 114.768 68.0237C114.736 68.0565 114.712 68.0974 114.7 68.1422C114.687 68.187 114.687 68.2342 114.699 68.2791C114.916 68.9292 115.591 69.4459 116.05 69.9459C116.509 70.4459 117.093 71.046 117.593 71.6127C118.611 72.7711 119.629 73.9378 120.613 75.1254C122.599 77.4546 124.306 80.0066 125.701 82.73C126.043 83.4259 126.369 84.1301 126.652 84.8551C126.828 85.3052 127.036 86.426 127.678 86.401C128.867 86.351 127.332 83.3842 127.111 82.8883Z" fill="#5668AA"/>
<path d="M55.3856 41.0608C55.0937 40.1274 53.6005 40.6816 52.954 40.8525C51.9258 41.124 50.9181 41.4679 49.9385 41.8817C48.9986 42.2696 48.0835 42.7149 47.1983 43.2151C46.3391 43.6985 45.2839 44.2235 44.6458 44.9861C44.4372 45.2277 44.6458 45.7444 45.0003 45.5944C45.8345 45.2527 46.5727 44.6444 47.3652 44.1985C48.2023 43.7296 49.0672 43.3122 49.9552 42.9484C50.8299 42.5953 51.7239 42.2921 52.6329 42.04C53.0875 41.9109 53.5463 41.79 54.0051 41.69C54.3846 41.6109 54.9018 41.7234 55.2188 41.4858C55.2885 41.4422 55.3424 41.3774 55.3725 41.3008C55.4025 41.2243 55.4071 41.1402 55.3856 41.0608Z" fill="#5668AA"/>
<path d="M36.3876 67.0249C35.7119 67.5332 35.2197 68.3833 34.7192 69.0583C34.1562 69.8167 33.614 70.5918 33.1135 71.4001C32.6271 72.1721 32.187 72.9721 31.7955 73.7961C31.6078 74.2128 31.4326 74.6045 31.27 75.017C31.1073 75.4296 31.0197 75.8796 30.8529 76.2671C30.8046 76.3606 30.7906 76.468 30.8134 76.5708C30.8362 76.6735 30.8942 76.765 30.9775 76.8294C31.0608 76.8938 31.164 76.927 31.2693 76.9232C31.3745 76.9194 31.4751 76.879 31.5536 76.8088C31.8247 76.588 31.8872 76.1046 31.9999 75.7879C32.1542 75.3462 32.3252 74.9087 32.5212 74.4837C32.9118 73.6233 33.3562 72.7882 33.8517 71.9835C34.3313 71.2043 34.8485 70.4418 35.3782 69.6875C35.641 69.3125 35.9079 68.9375 36.179 68.5666C36.477 68.2129 36.728 67.8222 36.9256 67.4041C37.0257 67.1499 36.6295 66.8374 36.3876 67.0249Z" fill="#5668AA"/>
<path d="M143.24 45.1986C142.883 44.9098 142.501 44.6546 142.097 44.436C141.215 43.9799 140.295 43.5994 139.348 43.2984C138.268 42.9317 137.171 42.5901 136.066 42.3025C135.532 42.1609 134.986 42.0192 134.443 41.9234C134.085 41.8608 133.538 41.715 133.246 42.0067C133.241 42.0148 133.238 42.0242 133.238 42.0338C133.238 42.0434 133.241 42.0528 133.246 42.0609C133.342 42.4109 133.747 42.5276 134.051 42.6526C134.535 42.8484 135.04 42.9984 135.536 43.1693C136.587 43.5318 137.643 43.8818 138.694 44.2485C139.589 44.5405 140.461 44.9013 141.3 45.3277C141.69 45.5332 142.061 45.7716 142.41 46.0403C142.58 46.201 142.776 46.332 142.99 46.4278C143.169 46.4701 143.354 46.4772 143.536 46.4486C143.577 46.4486 143.617 46.4325 143.646 46.4037C143.676 46.3749 143.693 46.3357 143.694 46.2944C143.736 46.0873 143.715 45.8726 143.634 45.6775C143.553 45.4824 143.416 45.3157 143.24 45.1986Z" fill="#5668AA"/>
<path d="M157.904 74.6212C157.742 74.2045 157.562 73.7878 157.371 73.3711C156.978 72.5257 156.528 71.7084 156.023 70.9251C155.534 70.1657 154.993 69.4404 154.405 68.7541C153.884 68.1458 153.191 67.1665 152.32 67.0874C152.263 67.0886 152.207 67.1046 152.158 67.1338C152.109 67.163 152.068 67.2044 152.04 67.2539C152.012 67.3035 151.997 67.3595 151.997 67.4165C151.997 67.4735 152.012 67.5295 152.04 67.5791C152.274 67.9074 152.536 68.2142 152.824 68.4958C153.108 68.8166 153.4 69.1333 153.658 69.4667C154.22 70.1532 154.735 70.8756 155.202 71.6293C155.654 72.3596 156.06 73.1181 156.415 73.9003C156.595 74.292 156.757 74.692 156.912 75.092C157.066 75.492 157.145 75.9462 157.596 76.0712C157.681 76.0916 157.77 76.0849 157.85 76.052C157.931 76.0191 158 75.9617 158.046 75.8879C158.342 75.5337 158.055 75.0045 157.904 74.6212Z" fill="#5668AA"/>
<path d="M99.1042 57.3576C98.9424 56.5124 98.8338 55.6579 98.7789 54.7991L88.6271 53.9408C88.6271 53.9408 88.6271 58.6202 87.672 59.6703L87.6052 59.7453C88.7105 59.7953 89.8825 59.6994 90.3788 59.6828C92.5961 59.6267 94.7923 59.2376 96.8936 58.5285C97.6783 58.2359 98.4214 57.8423 99.1042 57.3576Z" fill="#FDA19B"/>
<path d="M81.6576 37.8606C81.6576 37.8606 78.346 37.3981 78.346 40.3066C78.346 43.2151 81.3907 43.3526 81.3907 43.3526C81.3907 43.3526 82.6419 57.3785 94.1742 57.3785C104.902 57.3785 106.228 43.6276 106.228 43.6276C106.228 43.6276 109.273 42.7692 109.072 40.5858C108.872 38.4023 106.295 37.8731 106.295 37.8731C106.295 37.8731 96.4265 35.0021 93.7822 26.6224C93.778 26.6141 89.7365 35.9397 81.6576 37.8606Z" fill="#FDBEAF"/>
<path d="M134.694 13.4258C134.45 13.3171 134.201 13.2211 133.947 13.1383C133.53 12.9758 133.113 12.8133 132.696 12.6424L131.445 12.1341C131.028 11.9549 130.56 11.6507 130.085 11.7382C129.999 11.7644 129.926 11.8217 129.881 11.8988C129.835 11.9759 129.82 12.0673 129.839 12.1549C130.027 12.6133 130.535 12.8341 130.94 13.0758C131.345 13.3175 131.72 13.5216 132.125 13.7175C132.529 13.9133 132.988 14.1342 133.426 14.3009C133.864 14.4675 134.506 14.8467 134.952 14.5009C135.399 14.155 135.086 13.63 134.694 13.4258Z" fill="#9095C9"/>
<path d="M137.672 15.6176C137.666 15.4715 137.605 15.3331 137.501 15.2301L137.446 15.1717C137.331 15.0688 137.196 14.9896 137.05 14.9384L137.192 15.0009C137.05 14.9384 136.921 14.8717 136.775 14.8217L136.637 14.7676C136.521 14.7362 136.399 14.7362 136.283 14.7676H136.229C136.139 14.7935 136.061 14.8487 136.007 14.9242C135.952 14.9997 135.925 15.0913 135.928 15.1842C135.924 15.2202 135.924 15.2566 135.928 15.2926C135.926 15.3217 135.926 15.351 135.928 15.3801C135.946 15.4332 135.969 15.4848 135.995 15.5343C135.974 15.4926 135.958 15.4509 135.941 15.4134C136.029 15.6405 136.192 15.8303 136.404 15.951C136.584 16.0795 136.796 16.1546 137.017 16.1676C137.192 16.1752 137.364 16.1156 137.497 16.001L137.576 15.8968C137.598 15.8717 137.616 15.8436 137.63 15.8135C137.642 15.7713 137.642 15.7264 137.63 15.6843C137.63 15.6843 137.63 15.6593 137.63 15.6426L137.672 15.6176Z" fill="#9095C9"/>
<path d="M142.789 26.6183C142.765 26.5818 142.739 26.547 142.71 26.5141C142.656 26.4279 142.579 26.3575 142.489 26.3099C142.429 26.2758 142.366 26.2465 142.301 26.2224C142.193 26.1724 142.076 26.1349 141.959 26.0891C141.833 26.0472 141.703 26.0179 141.571 26.0016H141.446C141.376 25.9979 141.305 26.0123 141.242 26.0432C141.167 26.0724 141.175 26.0682 141.242 26.0432H141.209C141.122 26.0676 141.048 26.1248 141.003 26.2026C140.958 26.2804 140.945 26.3727 140.967 26.4599V26.4974C141.005 26.6389 141.082 26.7671 141.188 26.8683C141.249 26.9258 141.315 26.9787 141.384 27.0266C141.424 27.0609 141.467 27.0916 141.513 27.1183C141.653 27.2311 141.82 27.3057 141.998 27.335C142.175 27.3642 142.358 27.3469 142.527 27.285L142.397 27.3391H142.477C142.544 27.3177 142.607 27.2821 142.66 27.2347C142.714 27.1873 142.756 27.1291 142.785 27.0641C142.824 26.9964 142.845 26.9198 142.846 26.8417C142.847 26.7636 142.827 26.6867 142.789 26.6183Z" fill="#9095C9"/>
<path d="M166.93 48.4113C166.834 48.3863 166.738 48.3654 166.638 48.3488C166.575 47.8779 166.517 47.407 166.455 46.9403C166.425 46.7237 166.4 46.5237 166.371 46.2903C166.51 46.2804 166.649 46.2804 166.788 46.2903C167.088 46.3153 167.41 46.4528 167.689 46.2903C167.732 46.2643 167.766 46.2252 167.785 46.1788C167.805 46.1324 167.809 46.0809 167.798 46.032C167.61 45.5486 166.867 45.4736 166.409 45.4569H166.217C166.201 45.3782 166.182 45.3003 166.158 45.2236C166.137 45.1483 166.089 45.0834 166.023 45.0406C165.958 44.9979 165.879 44.9802 165.801 44.9908C165.724 45.0015 165.653 45.0397 165.601 45.0985C165.549 45.1574 165.521 45.2328 165.52 45.3111C165.52 45.3986 165.52 45.4861 165.52 45.5736C165.324 45.6295 165.134 45.7092 164.957 45.8111C164.161 46.2986 163.572 47.3612 164.052 48.2654C164.365 48.8488 165.016 49.0071 165.675 49.0988C165.675 49.5488 165.716 49.9989 165.733 50.4447C165.733 50.6947 165.733 50.9656 165.754 51.2364C165.474 51.2509 165.196 51.2815 164.92 51.3281C164.749 51.3526 164.586 51.4169 164.444 51.5156C164.414 51.5241 164.387 51.5434 164.369 51.5698C164.01 52.0365 164.682 52.4032 165.07 52.4448C165.387 52.4572 165.705 52.4488 166.021 52.4198C166.292 52.7449 166.934 52.749 167.063 52.2907C167.522 52.2258 167.955 52.0371 168.315 51.7448C168.507 51.5831 168.662 51.3809 168.767 51.1525C168.873 50.9241 168.926 50.6753 168.924 50.4239C168.878 49.3947 167.873 48.6529 166.93 48.4113ZM164.845 47.8612C164.797 47.7616 164.773 47.6527 164.773 47.5425C164.773 47.4322 164.797 47.3233 164.845 47.2237C164.979 46.901 165.229 46.6397 165.545 46.4903C165.545 46.6862 165.57 46.882 165.579 47.0737L165.637 48.1779L165.353 48.1237C165.254 48.1181 165.156 48.0919 165.067 48.0467C164.978 48.0015 164.9 47.9384 164.836 47.8612H164.845ZM167.514 50.9239C167.365 51.0119 167.203 51.0765 167.034 51.1156C167.005 50.8864 166.968 50.6572 166.934 50.4322C166.88 50.0572 166.83 49.678 166.776 49.303H166.797C167.015 49.346 167.22 49.4387 167.396 49.5739C167.573 49.709 167.716 49.8829 167.814 50.0822C167.882 50.2351 167.887 50.4083 167.83 50.5653C167.772 50.7222 167.656 50.8508 167.506 50.9239H167.514Z" fill="#FEB172"/>
<path d="M170.283 44.811C170.083 44.622 169.873 44.4439 169.654 44.2777C169.455 44.1263 169.247 43.9872 169.032 43.861C168.899 43.7814 168.759 43.7131 168.615 43.6568C168.488 43.586 168.343 43.5514 168.198 43.5568C168.144 43.5584 168.092 43.5734 168.045 43.6003C167.998 43.6272 167.959 43.6652 167.931 43.711C167.903 43.7591 167.889 43.8137 167.889 43.8693C167.889 43.9249 167.903 43.9795 167.931 44.0277C168.017 44.1549 168.131 44.2605 168.265 44.336C168.356 44.4027 168.457 44.461 168.552 44.5277C168.648 44.5944 168.661 44.5985 168.711 44.6402L168.773 44.686C168.869 44.761 168.961 44.836 169.053 44.9194C169.229 45.078 169.396 45.2463 169.553 45.4236L169.666 45.5527C169.707 45.5905 169.743 45.6324 169.774 45.6778L169.879 45.8153C169.934 45.8792 169.998 45.9341 170.071 45.9778C170.135 46.0179 170.209 46.0398 170.284 46.0412C170.36 46.0426 170.434 46.0234 170.5 45.9858C170.565 45.9481 170.619 45.8933 170.656 45.8273C170.693 45.7613 170.711 45.6866 170.709 45.6111C170.677 45.2991 170.524 45.0119 170.283 44.811Z" fill="#FED177"/>
<path d="M171.301 46.657C171.276 46.5869 171.235 46.524 171.18 46.4736C171.096 46.3799 170.983 46.3169 170.859 46.2945C170.848 46.2851 170.836 46.2788 170.822 46.2763C170.808 46.2739 170.794 46.2753 170.781 46.2805C170.768 46.2857 170.756 46.2945 170.748 46.3058C170.74 46.3171 170.735 46.3305 170.734 46.3445L170.7 46.3861C170.7 46.3861 170.7 46.432 170.675 46.4528C170.663 46.4791 170.654 46.5072 170.65 46.5362C170.65 46.5903 170.65 46.6487 170.65 46.7028C170.646 46.777 170.659 46.8511 170.688 46.9195C170.707 46.9953 170.744 47.0654 170.796 47.1237L170.855 47.1695C170.896 47.2064 170.944 47.2348 170.997 47.2529C171.064 47.2778 171.138 47.2778 171.205 47.2529C171.255 47.2318 171.299 47.1972 171.33 47.1529C171.351 47.1342 171.366 47.1094 171.372 47.082C171.392 47.0449 171.402 47.0033 171.401 46.9612C171.403 46.9376 171.403 46.9139 171.401 46.8903C171.389 46.8051 171.354 46.7246 171.301 46.657Z" fill="#FED177"/>
<path d="M94.12 110.478C96.746 110.478 98.8748 108.351 98.8748 105.727C98.8748 103.104 96.746 100.977 94.12 100.977C91.4941 100.977 89.3653 103.104 89.3653 105.727C89.3653 108.351 91.4941 110.478 94.12 110.478Z" fill="#FBF1EC"/>
<path d="M80.6191 39.7691C80.499 39.6451 80.3578 39.5435 80.202 39.4691C80.1174 39.4288 80.0275 39.4008 79.9351 39.3857C79.8686 39.3773 79.8013 39.3773 79.7349 39.3857C79.7015 39.3857 79.7682 39.3857 79.7349 39.3857C79.6967 39.3886 79.6589 39.3956 79.6223 39.4066C79.5809 39.4189 79.5447 39.4442 79.5189 39.4787C79.4932 39.5132 79.4792 39.5552 79.4792 39.5982C79.4792 39.6413 79.4932 39.6832 79.5189 39.7178C79.5447 39.7523 79.5809 39.7776 79.6223 39.7899L79.689 39.8149L79.7557 39.8441L79.9059 39.8982H79.9434L80.006 39.9316L80.0644 39.9691H80.0936L80.2104 40.0733L80.2604 40.1274L80.2854 40.1566L80.3146 40.2024C80.148 40.2964 80.0104 40.4343 79.9169 40.6011C79.8235 40.768 79.7778 40.9573 79.7849 41.1483C79.7852 41.273 79.818 41.3955 79.8802 41.5037C79.9424 41.6119 80.0317 41.7019 80.1394 41.765C80.2558 41.8287 80.3904 41.8507 80.521 41.8272C80.6516 41.8037 80.7701 41.7361 80.8568 41.6359C81.3365 41.1233 81.0946 40.2274 80.6191 39.7691Z" fill="#FDA19B"/>
<path d="M107.663 41.4775C107.622 41.3145 107.519 41.1742 107.375 41.0875C107.231 41.0008 107.058 40.9747 106.895 41.015V40.94C106.897 40.9262 106.897 40.9121 106.895 40.8983C106.905 40.8322 106.919 40.7668 106.937 40.7025C106.95 40.6822 106.964 40.6627 106.979 40.6441C106.977 40.6289 106.977 40.6135 106.979 40.5983C107.003 40.5415 107.032 40.4871 107.066 40.4358C107.066 40.4024 107.108 40.3733 107.129 40.3399L107.258 40.1899C107.319 40.1216 107.356 40.0352 107.362 39.9441C107.376 39.9081 107.383 39.87 107.383 39.8316C107.384 39.8153 107.38 39.7992 107.372 39.7851C107.364 39.7711 107.352 39.7597 107.337 39.7524C107.301 39.7342 107.261 39.7229 107.221 39.7191C107.168 39.7032 107.114 39.6987 107.06 39.7059C107.006 39.7131 106.954 39.7318 106.908 39.7607C106.832 39.8092 106.764 39.8698 106.708 39.9399C106.6 40.0653 106.512 40.2057 106.445 40.3566C106.305 40.6467 106.244 40.9688 106.27 41.29C106.267 41.4792 106.314 41.6658 106.406 41.8311C106.498 41.9964 106.633 42.1346 106.795 42.2317C106.905 42.2829 107.028 42.301 107.149 42.2839C107.269 42.2669 107.382 42.2154 107.474 42.1356C107.565 42.0559 107.632 41.9513 107.666 41.8345C107.699 41.7177 107.698 41.5937 107.663 41.4775Z" fill="#FDA19B"/>
<path d="M112.338 37.5272C112.011 37.3945 111.647 37.3842 111.312 37.4981C110.949 37.5522 110.582 37.5939 110.215 37.6189C109.489 37.6731 108.76 37.6731 108.034 37.6189C106.569 37.4975 105.13 37.1605 103.763 36.6189C102.396 36.078 101.123 35.3273 99.9883 34.3937C98.7989 33.3788 97.7486 32.2118 96.8644 30.9227C96.3472 30.1893 95.8718 29.4268 95.4171 28.6559C94.9625 27.885 94.5329 27.06 94.0241 26.3016C93.9881 26.2439 93.9314 26.2022 93.8656 26.1849C93.8656 26.0682 93.8155 25.9557 93.7905 25.8474C93.7856 25.8293 93.776 25.8128 93.7628 25.7995C93.7496 25.7862 93.7331 25.7766 93.715 25.7715C93.697 25.7665 93.6779 25.7662 93.6597 25.7708C93.6415 25.7753 93.6248 25.7845 93.6112 25.7974C93.4933 25.8957 93.3831 26.003 93.2817 26.1182C93.1892 26.2773 93.119 26.4484 93.0731 26.6266C92.9438 26.9724 92.802 27.3058 92.6561 27.6392C92.3462 28.2895 91.9937 28.9187 91.6008 29.5226C90.8 30.7333 89.867 31.8514 88.8189 32.8561C86.6501 34.9646 84.0517 36.8189 81.0862 37.5648C80.2135 37.7868 79.3174 37.9043 78.4169 37.9148C77.9628 37.9176 77.5089 37.8954 77.0572 37.8481C76.6165 37.7769 76.1724 37.7282 75.7267 37.7023C75.6948 37.7023 75.6638 37.7128 75.6384 37.7321C75.613 37.7514 75.5947 37.7785 75.5861 37.8092C75.5776 37.8399 75.5794 37.8726 75.5912 37.9022C75.6031 37.9318 75.6243 37.9567 75.6516 37.9731C76.3883 38.3548 77.2076 38.5494 78.0373 38.5398C78.8756 38.5779 79.7155 38.5177 80.5398 38.3606C82.1538 38.0473 83.6999 37.4521 85.1069 36.6022C87.7932 35.0145 90.1107 32.8739 91.9053 30.3226C92.3929 29.6283 92.8252 28.8969 93.1983 28.135C93.3859 27.7517 93.5528 27.36 93.7071 26.9641C93.7207 26.9374 93.7319 26.9095 93.7405 26.8808C94.0491 27.5308 94.412 28.16 94.7707 28.7851C95.1794 29.4962 95.6132 30.1907 96.072 30.8685C96.973 32.248 98.045 33.5081 99.2626 34.6187C101.577 36.6269 104.443 37.8917 107.487 38.2481C108.334 38.3488 109.188 38.3766 110.04 38.3315C110.457 38.3065 110.895 38.2648 111.32 38.2065C111.537 38.1731 111.758 38.1481 111.971 38.0939C112.159 38.0468 112.323 37.9308 112.43 37.7689C112.442 37.7474 112.448 37.7235 112.45 37.6991C112.452 37.6746 112.448 37.6501 112.439 37.6271C112.431 37.6042 112.417 37.5834 112.4 37.5662C112.382 37.5489 112.361 37.5357 112.338 37.5272Z" fill="#353861"/>
<path d="M77.5077 45.6861C77.3075 44.8527 77.0656 44.0193 76.8278 43.186L76.465 41.9359C76.3775 41.4962 76.2182 41.0739 75.9937 40.6858C75.9799 40.6619 75.9586 40.6433 75.9332 40.6327C75.9077 40.6222 75.8795 40.6203 75.8528 40.6274C75.8262 40.6346 75.8027 40.6503 75.7859 40.6721C75.7691 40.694 75.7601 40.7208 75.7601 40.7483C75.7535 41.1368 75.8098 41.5237 75.9269 41.8942C76.0187 42.3109 76.1146 42.6859 76.2105 43.0776C76.3982 43.8652 76.5984 44.6444 76.7736 45.4319C77.1692 46.9087 77.2824 48.4468 77.1073 49.9655C76.6902 52.8115 75.122 55.32 74.4088 58.0869C74.1948 58.8586 74.0936 59.6572 74.1085 60.4578C74.1335 61.187 74.2628 61.9954 74.8884 62.458C74.9037 62.4668 74.921 62.4714 74.9387 62.4714C74.9563 62.4713 74.9736 62.4666 74.9889 62.4577C75.0041 62.4488 75.0168 62.4361 75.0255 62.4208C75.0342 62.4054 75.0387 62.3881 75.0385 62.3704C75.0385 61.6954 74.8175 61.0454 74.805 60.3703C74.7982 59.6768 74.8866 58.9856 75.0677 58.316C75.4627 56.9363 75.9461 55.5835 76.515 54.2658C77.0767 52.9718 77.4962 51.6208 77.7663 50.2364C77.9831 48.7175 77.8952 47.1707 77.5077 45.6861Z" fill="#353861"/>
<path d="M79.8683 55.5283C80.4231 53.6491 81.1488 51.7781 81.1196 49.778C81.1196 48.7946 80.982 47.6154 80.3146 46.8612C80.2521 46.7903 80.1645 46.8612 80.1728 46.9403C80.2479 47.4112 80.3814 47.8695 80.4481 48.3446C80.5092 48.8114 80.5288 49.2827 80.5065 49.753C80.4488 50.712 80.288 51.6619 80.0268 52.5865C79.4971 54.5325 78.7047 56.4201 78.5337 58.4493C78.4765 58.9664 78.499 59.4892 78.6004 59.9994C78.7147 60.4764 78.9829 60.9025 79.3637 61.212C79.3735 61.222 79.3864 61.2284 79.4004 61.2301C79.4143 61.2319 79.4284 61.2289 79.4404 61.2217C79.4525 61.2145 79.4617 61.2035 79.4667 61.1904C79.4717 61.1773 79.4721 61.1629 79.468 61.1495C79.3576 60.7151 79.2864 60.2716 79.2552 59.8244C79.2031 59.3819 79.1947 58.9352 79.2302 58.491C79.3394 57.484 79.5532 56.4911 79.8683 55.5283Z" fill="#353861"/>
<path d="M83.6846 58.5619C83.614 58.1491 83.5944 57.7293 83.6262 57.3118C83.6512 56.8951 83.7013 56.4784 83.7597 56.0617C83.7851 55.87 83.8256 55.6805 83.8806 55.495C83.9265 55.3534 84.06 55.1908 84.0516 55.045C84.0518 55.0187 84.0433 54.993 84.0275 54.972C84.0116 54.9509 83.9894 54.9356 83.9641 54.9283C83.7805 54.8617 83.5762 55.045 83.4677 55.1783C83.3222 55.3701 83.2224 55.5924 83.1758 55.8284C83.0571 56.3139 82.9817 56.8089 82.9505 57.3076C82.9037 57.8017 82.939 58.3001 83.0548 58.7827C83.1861 59.2318 83.4846 59.6135 83.889 59.8495C83.9515 59.8911 84.0099 59.812 83.9849 59.7536C83.8405 59.3689 83.7397 58.9691 83.6846 58.5619Z" fill="#353861"/>
<path d="M110.545 50.1072C110.286 48.5681 110.299 46.9957 110.582 45.4611C110.749 44.6027 110.97 43.761 111.183 42.9151C111.283 42.4984 111.375 42.0817 111.471 41.665C111.603 41.2477 111.662 40.8107 111.646 40.3733C111.646 40.3552 111.641 40.3376 111.63 40.3232C111.619 40.3088 111.603 40.2986 111.586 40.2942C111.568 40.2899 111.55 40.2916 111.533 40.2992C111.517 40.3067 111.504 40.3196 111.496 40.3358C111.302 40.6284 111.16 40.9528 111.079 41.2942C110.958 41.6775 110.841 42.0692 110.72 42.4567C110.495 43.1943 110.303 43.9401 110.107 44.6902C109.734 46.1665 109.616 47.6953 109.756 49.2113C110.044 52.0156 111.049 54.7325 110.933 57.5743C110.908 58.2884 110.795 58.9968 110.595 59.6828C110.39 60.3536 110.057 60.9745 109.882 61.6495C109.875 61.674 109.876 61.6998 109.884 61.7238C109.892 61.7478 109.907 61.7688 109.927 61.7843C109.947 61.7999 109.971 61.8092 109.997 61.8112C110.022 61.8131 110.047 61.8076 110.069 61.7954C110.581 61.4132 110.959 60.8795 111.15 60.2703C111.363 59.6729 111.503 59.0516 111.567 58.4202C111.695 57.1329 111.642 55.834 111.408 54.5616C111.149 53.0699 110.782 51.6031 110.545 50.1072Z" fill="#353861"/>
<path d="M108.647 53.3074C108.537 52.3352 108.36 51.3717 108.117 50.4239C107.992 49.8822 107.859 49.3405 107.75 48.7946C107.696 48.5237 107.65 48.2529 107.6 47.9612C107.55 47.6695 107.425 47.3445 107.404 47.0362C107.404 47.024 107.399 47.0123 107.391 47.0037C107.382 46.9952 107.37 46.9903 107.358 46.9903C107.346 46.9903 107.334 46.9952 107.326 47.0037C107.317 47.0123 107.312 47.024 107.312 47.0362C107.312 47.2737 107.212 47.4862 107.2 47.7237C107.189 47.9837 107.198 48.2441 107.225 48.5029C107.271 48.9821 107.35 49.4571 107.433 49.928C107.6 50.8822 107.821 51.8239 107.934 52.7865C108.138 54.6023 107.997 56.4403 107.517 58.2035C107.379 58.7077 107.212 59.1994 107.033 59.6869C106.843 60.1419 106.727 60.6245 106.691 61.1162C106.692 61.1294 106.696 61.1421 106.704 61.1529C106.711 61.1637 106.722 61.1722 106.734 61.1774C106.746 61.1826 106.759 61.1843 106.772 61.1823C106.785 61.1803 106.798 61.1747 106.808 61.1662C107.533 60.6036 107.817 59.6328 108.059 58.7827C108.339 57.896 108.536 56.985 108.647 56.0617C108.737 55.1458 108.737 54.2233 108.647 53.3074Z" fill="#353861"/>
<path d="M105.148 56.0367C105.112 55.7528 105.046 55.4735 104.952 55.2033C104.915 55.0918 104.865 54.9854 104.802 54.8866C104.756 54.8158 104.672 54.7825 104.643 54.7408C104.636 54.7299 104.627 54.7215 104.615 54.7167C104.603 54.712 104.59 54.7112 104.578 54.7145C104.566 54.7178 104.555 54.725 104.547 54.735C104.539 54.745 104.535 54.7573 104.535 54.77C104.535 54.8241 104.493 54.8783 104.48 54.9325C104.464 55.043 104.464 55.1553 104.48 55.2658C104.505 55.4908 104.53 55.7117 104.551 55.9409C104.593 56.3674 104.601 56.7965 104.576 57.2243C104.545 57.6445 104.485 58.0622 104.397 58.4744C104.347 58.7285 104.314 59.3077 103.98 59.3494C103.969 59.3521 103.96 59.3576 103.952 59.3653C103.944 59.3729 103.938 59.3825 103.935 59.3931C103.932 59.4036 103.932 59.4148 103.935 59.4254C103.938 59.436 103.943 59.4457 103.951 59.4536C104.247 59.6953 104.622 59.4536 104.81 59.1869C105.055 58.7189 105.184 58.1986 105.185 57.6701C105.235 57.126 105.223 56.5779 105.148 56.0367Z" fill="#353861"/>
<path d="M91.1713 22.193C91.1631 22.1808 91.1508 22.1719 91.1367 22.1678C91.1225 22.1638 91.1074 22.1648 91.094 22.1708C91.0805 22.1767 91.0696 22.1873 91.0631 22.2005C91.0567 22.2137 91.0551 22.2287 91.0586 22.243C91.2029 23.0528 91.1383 23.886 90.871 24.664C90.6647 25.3784 90.3851 26.0696 90.0368 26.7266C89.3974 27.9702 88.5859 29.1177 87.6261 30.1351C85.701 32.1876 83.2594 33.6857 80.5565 34.4729C79.7867 34.7026 78.9982 34.8644 78.2 34.9563C77.7596 35.0105 77.3141 35.0105 76.8737 34.9563C76.45 34.8716 76.0321 34.7602 75.6225 34.6229C75.5849 34.6229 75.5432 34.6604 75.5682 34.6938C76.0103 35.3146 76.8945 35.4563 77.6078 35.4938C78.4028 35.5182 79.1977 35.4398 79.9726 35.2605C81.447 34.9424 82.8654 34.4059 84.181 33.6687C86.8152 32.1984 88.983 30.0182 90.4372 27.3766C90.8731 26.6033 91.2228 25.7844 91.4799 24.9348C91.6448 24.4852 91.7027 24.0034 91.6492 23.5276C91.5956 23.0517 91.432 22.5948 91.1713 22.193Z" fill="#353861"/>
<path d="M89.503 18.9762C89.503 18.9178 89.3987 18.9262 89.3862 18.9762C89.211 19.6012 89.0025 20.2054 88.8648 20.8429C88.7275 21.4811 88.5506 22.1101 88.3351 22.7264C87.9038 23.9419 87.3059 25.0918 86.5584 26.1433C85.0436 28.2496 82.973 29.8941 80.5774 30.8935C79.9068 31.1708 79.2185 31.4033 78.517 31.5894C77.808 31.7811 77.0864 31.8936 76.3816 32.0978C76.269 32.1311 76.3065 32.277 76.4066 32.2936C77.7246 32.4645 79.1468 32.0686 80.3814 31.6269C81.6636 31.1685 82.872 30.5256 83.9683 29.7185C86.143 28.0989 87.8204 25.9034 88.8106 23.3806C89.0893 22.6626 89.307 21.9225 89.4612 21.168C89.5465 20.8101 89.5927 20.444 89.5989 20.0762C89.5932 19.7077 89.5611 19.3401 89.503 18.9762Z" fill="#353861"/>
<path d="M86.4749 18.3761C86.2945 18.8589 86.0828 19.3294 85.841 19.7845C85.6283 20.2429 85.4489 20.7179 85.2362 21.1763C84.8136 22.0754 84.3037 22.9309 83.7139 23.7306C82.5136 25.3452 81.0193 26.7193 79.3095 27.7809C78.834 28.0809 78.3418 28.3434 77.8455 28.6142C77.5869 28.7476 77.32 28.8684 77.0572 28.9893C76.9446 29.0393 76.344 29.3768 76.294 29.1476C76.294 29.1184 76.2356 29.1101 76.2231 29.1476C76.2103 29.171 76.2024 29.1967 76.1998 29.2232C76.1973 29.2498 76.2003 29.2765 76.2085 29.3019C76.2167 29.3272 76.23 29.3506 76.2475 29.3707C76.2651 29.3907 76.2866 29.407 76.3107 29.4185C76.3974 29.4642 76.4931 29.4904 76.591 29.4955C76.689 29.5005 76.7869 29.4842 76.8779 29.4476C77.4126 29.3029 77.9355 29.1176 78.4419 28.8934C79.4633 28.4319 80.4265 27.8515 81.3115 27.1642C83.0794 25.7859 84.5279 24.0417 85.5574 22.0513C85.8544 21.4992 86.1055 20.9236 86.3081 20.3304C86.4639 19.7097 86.5658 19.0768 86.6126 18.4386C86.6167 18.4296 86.619 18.4198 86.6193 18.4099C86.6196 18.4 86.618 18.3901 86.6145 18.3809C86.6111 18.3716 86.6058 18.3631 86.599 18.3558C86.5922 18.3486 86.5841 18.3427 86.575 18.3386C86.566 18.3345 86.5562 18.3322 86.5463 18.3319C86.5364 18.3316 86.5265 18.3332 86.5172 18.3367C86.5079 18.3401 86.4994 18.3454 86.4921 18.3522C86.4849 18.359 86.479 18.3671 86.4749 18.3761Z" fill="#353861"/>
<path d="M109.248 33.1145C108.689 33.1145 108.13 33.1937 107.579 33.227C107.002 33.2689 106.423 33.241 105.852 33.1437C104.719 32.9221 103.641 32.4758 102.683 31.8311C100.618 30.4602 99.2042 28.3142 97.9655 26.2182C97.5985 25.6015 97.2272 24.989 96.8852 24.3556C96.6919 24.0153 96.5366 23.6548 96.4223 23.2806C96.3748 22.9543 96.3009 22.6324 96.2012 22.318C96.2012 22.2972 96.1637 22.2972 96.147 22.318C95.684 22.7347 95.9843 23.6431 96.1845 24.139C96.4593 24.779 96.7741 25.4011 97.1272 26.0016C97.7519 27.1828 98.4628 28.3165 99.2543 29.3934C100.802 31.4436 102.833 33.177 105.39 33.7604C106.641 34.0479 108.259 34.1562 109.298 33.252C109.316 33.2454 109.331 33.2318 109.339 33.2142C109.347 33.1966 109.348 33.1765 109.341 33.1582C109.335 33.14 109.321 33.1252 109.304 33.117C109.286 33.1087 109.266 33.1079 109.248 33.1145Z" fill="#353861"/>
<path d="M110.028 28.7726C109.79 29.2851 109.052 29.3518 108.564 29.2976C107.952 29.2071 107.35 29.0592 106.766 28.8559C105.665 28.5297 104.622 28.0364 103.671 27.3933C101.965 26.1974 100.702 24.4765 99.6339 22.718C99.3211 22.2013 99.0249 21.6721 98.7246 21.1471C98.4621 20.6354 98.1536 20.1487 97.8029 19.6928C97.7737 19.6553 97.7236 19.6928 97.732 19.7345C97.8727 20.2738 98.0713 20.7963 98.3242 21.2929C98.5661 21.818 98.8331 22.3347 99.1042 22.843C99.641 23.8506 100.266 24.8086 100.973 25.7057C101.672 26.589 102.495 27.3665 103.417 28.0142C104.476 28.7195 105.64 29.2525 106.866 29.5934C107.548 29.8599 108.278 29.9833 109.01 29.956C109.3 29.9226 109.571 29.7927 109.778 29.5871C109.985 29.3815 110.117 29.1122 110.153 28.8226C110.149 28.7601 110.061 28.7059 110.028 28.7726Z" fill="#353861"/>
<path d="M109.869 26.1349C109.589 25.8882 109.257 25.7074 108.897 25.6057C108.539 25.4682 108.184 25.314 107.838 25.1432C107.133 24.7904 106.468 24.3614 105.857 23.8639C104.646 22.8803 103.642 21.6665 102.904 20.2929C102.695 19.9002 102.507 19.4968 102.341 19.0845C102.257 18.8761 102.178 18.6678 102.099 18.4511C101.994 18.2465 101.901 18.0364 101.819 17.8219C101.819 17.7844 101.748 17.8219 101.757 17.8427C101.79 18.0427 101.757 18.2594 101.782 18.4594C101.815 18.6708 101.862 18.8796 101.924 19.0845C102.036 19.477 102.175 19.8613 102.341 20.2345C102.663 20.9842 103.07 21.6944 103.554 22.3513C104.534 23.6837 105.792 24.7871 107.241 25.5848C107.644 25.8056 108.063 25.9977 108.493 26.1599C108.905 26.372 109.376 26.4409 109.831 26.3557C109.852 26.3469 109.87 26.3332 109.884 26.3157C109.897 26.2982 109.907 26.2775 109.91 26.2555C109.914 26.2336 109.912 26.211 109.905 26.1899C109.898 26.1689 109.885 26.1499 109.869 26.1349Z" fill="#353861"/>
<path d="M89.8283 38.1939C89.7198 37.7314 89.1985 37.4689 88.7898 37.3106C88.4304 37.1707 88.044 37.1137 87.6595 37.1439C86.9462 37.2106 85.7617 37.6231 85.7993 38.5023C85.8 38.5578 85.8134 38.6125 85.8384 38.6621C85.8634 38.7117 85.8993 38.755 85.9435 38.7887C85.9877 38.8224 86.039 38.8457 86.0935 38.8567C86.148 38.8677 86.2042 38.8662 86.2581 38.8523C86.2164 38.8523 86.2289 38.8523 86.2581 38.8523C86.3411 38.8504 86.4226 38.829 86.4958 38.7898C86.5625 38.7606 86.6293 38.7231 86.696 38.6856C86.7627 38.6481 86.9212 38.5398 87.038 38.4731L87.1298 38.4231L87.184 38.3981L87.355 38.3398L87.551 38.294H87.576H87.6803H87.8889H87.9931C88.1346 38.3252 88.2739 38.3656 88.4102 38.4148H88.4311L88.5228 38.4606C88.5854 38.494 88.6479 38.5273 88.7063 38.5648L88.8148 38.6398L88.8607 38.6731C88.9567 38.7482 89.0699 38.7983 89.1901 38.819C89.2772 38.8416 89.3686 38.8413 89.4556 38.8181C89.5425 38.7949 89.6219 38.7497 89.6861 38.6868C89.7504 38.6239 89.7972 38.5454 89.8221 38.459C89.847 38.3727 89.8492 38.2814 89.8283 38.1939Z" fill="#282B52"/>
<path d="M101.703 38.194C101.594 37.7314 101.073 37.4689 100.664 37.3106C100.306 37.1703 99.9211 37.1133 99.5379 37.1439C98.8206 37.2106 97.6402 37.6231 97.6778 38.5023C97.6787 38.5574 97.692 38.6116 97.7167 38.6608C97.7415 38.71 97.777 38.7531 97.8207 38.7867C97.8644 38.8203 97.9151 38.8437 97.969 38.8551C98.023 38.8664 98.0788 38.8655 98.1324 38.8523C98.0948 38.8523 98.1073 38.8523 98.1324 38.8523C98.2156 38.8514 98.2972 38.8299 98.3701 38.7898C98.4393 38.7601 98.5063 38.7253 98.5703 38.6857C98.6913 38.619 98.7997 38.5398 98.9165 38.4731L99.0082 38.4231L99.0625 38.3981L99.2293 38.3398L99.4295 38.294H99.4545H99.5588H99.7673H99.8716C100.013 38.326 100.152 38.3663 100.289 38.4148L100.385 38.4606L100.568 38.5648L100.677 38.6398L100.718 38.6732C100.816 38.7484 100.93 38.7985 101.052 38.819C101.14 38.8457 101.233 38.8485 101.323 38.827C101.412 38.8056 101.494 38.7607 101.561 38.697C101.627 38.6334 101.675 38.5532 101.7 38.4647C101.725 38.3763 101.726 38.2828 101.703 38.194Z" fill="#282B52"/>
<path d="M88.7355 41.1525C88.671 40.9189 88.5173 40.72 88.3075 40.5984C88.0977 40.4769 87.8485 40.4424 87.6135 40.5024C87.4202 40.5581 87.2495 40.6733 87.1256 40.8316C86.9405 41.0442 86.8178 41.3038 86.771 41.5817C86.7222 41.8799 86.7365 42.1851 86.8127 42.4776C86.874 42.7159 86.974 42.9425 87.1089 43.1484C87.2408 43.3536 87.4445 43.5021 87.6803 43.5651C87.8279 43.5961 87.9807 43.591 88.1259 43.5504C88.2711 43.5098 88.4044 43.4348 88.5144 43.3318C88.9774 42.9234 89.0441 41.8609 88.7355 41.1525Z" fill="#282B52"/>
<path d="M100.785 41.1525C100.721 40.9183 100.568 40.7187 100.358 40.597C100.148 40.4753 99.8981 40.4413 99.6631 40.5025C99.4698 40.5581 99.299 40.6733 99.1751 40.8316C98.99 41.0443 98.8673 41.3038 98.8206 41.5817C98.7731 41.8802 98.7888 42.1854 98.8664 42.4776C98.9244 42.7163 99.0232 42.9433 99.1584 43.1485C99.2903 43.3536 99.4941 43.5022 99.7298 43.5651C99.8774 43.5961 100.03 43.591 100.175 43.5504C100.321 43.5098 100.454 43.4348 100.564 43.3318C101.027 42.9234 101.094 41.8609 100.785 41.1525Z" fill="#282B52"/>
<path d="M95.3881 46.5195C95.3796 46.5533 95.3796 46.5786 95.3881 46.5195V46.5195Z" fill="#FDA19B"/>
<path d="M95.3838 46.3069C95.3666 46.2449 95.3296 46.1902 95.2784 46.1511C95.2272 46.112 95.1646 46.0906 95.1002 46.0903C95.05 46.089 95.0001 46.099 94.9542 46.1194H94.9C94.8366 46.1368 94.7751 46.1606 94.7165 46.1903C94.6164 46.2403 94.5246 46.3028 94.4287 46.357L94.2869 46.432L94.1993 46.4611C94.1492 46.4611 94.0992 46.4861 94.0492 46.4986H93.9574H93.8031H93.7322L93.557 46.457L93.4861 46.432H93.4486L93.3693 46.3986L93.3151 46.3695L93.1733 46.2944C93.1059 46.2493 93.033 46.2129 92.9564 46.1861C92.9183 46.1564 92.8722 46.1386 92.824 46.1349C92.7758 46.1312 92.7275 46.1417 92.6853 46.1653C92.638 46.1927 92.6009 46.2348 92.5798 46.2852C92.5587 46.3356 92.5548 46.3916 92.5685 46.4445C92.5685 46.7028 92.8521 47.0028 93.0273 47.1362C93.3025 47.3365 93.6336 47.4458 93.9741 47.4487C94.294 47.4495 94.6086 47.3677 94.8875 47.2112C95.0536 47.1254 95.1966 47.0011 95.3046 46.8486C95.3658 46.7496 95.4056 46.6389 95.4214 46.5236C95.4308 46.4493 95.4177 46.3738 95.3838 46.3069Z" fill="#FDA19B"/>
<path d="M95.2462 49.6905C95.2308 49.6302 95.1995 49.5751 95.1554 49.5311C95.1114 49.4871 95.0563 49.4558 94.9959 49.4405C94.9107 49.4217 94.8225 49.4217 94.7373 49.4405C94.6479 49.4702 94.5665 49.5201 94.4996 49.5863L94.4579 49.6113L94.3536 49.6738H94.3244C94.2868 49.69 94.2477 49.7026 94.2076 49.7113L94.0867 49.7405H94.0283C93.9491 49.7446 93.8697 49.7446 93.7905 49.7405H93.7363L93.6154 49.7155L93.4986 49.678L93.4277 49.6446C93.3319 49.6026 93.2278 49.5827 93.1232 49.5863C93.0605 49.5874 93.0006 49.6127 92.9563 49.6571C92.9119 49.7014 92.8865 49.7612 92.8855 49.8238C92.901 49.9486 92.9515 50.0665 93.0312 50.1638C93.1109 50.2611 93.2166 50.3339 93.3359 50.3739C93.5555 50.4801 93.7968 50.5343 94.0408 50.5322C94.2588 50.5367 94.4756 50.4985 94.6789 50.4197C94.7924 50.3779 94.9014 50.3249 95.0043 50.2613C95.0955 50.2098 95.1727 50.1369 95.2295 50.0488C95.2753 49.9347 95.2812 49.8084 95.2462 49.6905Z" fill="#FDA19B"/>
<path d="M87.8471 45.7111C87.6932 45.4567 87.4646 45.2559 87.1923 45.136C86.6752 44.924 86.1112 44.8521 85.5574 44.9277H85.3697H85.2821C84.6189 45.0485 83.9766 45.3986 83.8932 46.1194C83.8098 46.8403 84.3937 47.3362 85.0026 47.5195C85.3065 47.5994 85.6186 47.6441 85.9327 47.6529C86.2198 47.682 86.509 47.682 86.7961 47.6529C87.1322 47.6247 87.4507 47.4905 87.7053 47.2695C87.9398 47.0448 88.0799 46.7394 88.0974 46.4153C88.1045 46.2872 88.0861 46.1589 88.0431 46.038C88.0002 45.9171 87.9335 45.806 87.8471 45.7111Z" fill="#FD7A8D"/>
<path d="M103.225 45.7111C103.071 45.4567 102.842 45.2559 102.57 45.136C102.053 44.924 101.489 44.8521 100.935 44.9277H100.747H100.66C99.9967 45.0485 99.3544 45.3986 99.271 46.1194C99.1876 46.8403 99.7715 47.3362 100.38 47.5195C100.684 47.5994 100.996 47.6441 101.311 47.6529C101.598 47.682 101.887 47.682 102.174 47.6529C102.51 47.6247 102.828 47.4905 103.083 47.2695C103.318 47.0448 103.458 46.7394 103.475 46.4153C103.482 46.2872 103.464 46.1589 103.421 46.038C103.378 45.9171 103.311 45.806 103.225 45.7111Z" fill="#FD7A8D"/>
<path d="M103.976 61.7912C103.957 61.7303 103.92 61.6769 103.869 61.6389C103.818 61.6009 103.756 61.5804 103.692 61.5804C103.628 61.5804 103.566 61.6009 103.515 61.6389C103.464 61.6769 103.427 61.7303 103.408 61.7912C103.167 62.7663 103.267 63.8455 103.25 64.8414C103.25 65.904 103.2 66.9665 103.142 68.0249C103.025 70.1084 102.833 72.2293 102.549 74.317C102.266 76.4046 101.907 78.4839 101.465 80.5423C101.24 81.5841 100.996 82.6188 100.735 83.6467C100.602 84.1634 100.464 84.6759 100.318 85.1884C100.174 85.5963 100.059 86.0141 99.9759 86.4385C99.9509 86.6177 100.109 86.7469 100.255 86.8052L100.326 86.8344C100.426 86.8621 100.532 86.8558 100.628 86.8166C100.724 86.7774 100.804 86.7074 100.856 86.6177C101.221 85.6723 101.5 84.6961 101.69 83.7009C101.949 82.6675 102.191 81.6174 102.407 80.5923C102.825 78.5339 103.183 76.4588 103.454 74.3753C103.725 72.2918 103.921 70.1459 104.026 68.0207C104.076 66.9623 104.109 65.8998 104.118 64.8372C104.13 63.8455 104.226 62.7621 103.976 61.7912Z" fill="#5668AA"/>
<path d="M85.2904 74.0961C84.9275 72.0627 84.6064 70.0209 84.4229 67.9624C84.3311 66.9179 84.2755 65.872 84.256 64.8247C84.256 64.2997 84.256 63.7788 84.256 63.2538C84.3125 62.7697 84.2999 62.2801 84.2185 61.7996C84.1601 61.5745 83.8014 61.487 83.6846 61.7287C83.3134 62.5621 83.4302 63.7163 83.426 64.6456C83.426 65.6915 83.4719 66.729 83.5553 67.7832C83.718 69.8209 84.01 71.8502 84.3311 73.8669C84.9943 78.0339 85.8159 82.1716 86.233 86.3677C86.2914 86.9636 87.2215 86.9844 87.1839 86.3677C86.9254 82.2383 86.0203 78.1464 85.2904 74.0961Z" fill="#5668AA"/>
<path d="M73.195 80.409C72.8203 80.8336 72.5276 81.3238 72.3317 81.8549C72.0772 82.3675 71.8228 82.8842 71.5851 83.4092C71.3474 83.9342 71.1305 84.4634 70.9094 84.9968C70.6884 85.5301 70.3589 86.076 70.4548 86.6052C70.509 86.8927 70.8719 86.9094 71.0471 86.7594C71.2477 86.5392 71.3909 86.273 71.4641 85.9843C71.5642 85.7343 71.6602 85.4801 71.7603 85.2343C71.9688 84.7176 72.1774 84.2051 72.4026 83.6925C72.6278 83.18 72.8447 82.6675 73.0782 82.1591C73.362 81.6803 73.5689 81.1601 73.6914 80.6173C73.7289 80.3423 73.3702 80.2548 73.195 80.409Z" fill="#5668AA"/>
<path d="M118.403 86.0635C117.96 84.8384 117.41 83.6467 116.864 82.4633C116.601 81.8841 116.325 81.3174 116.029 80.759C115.931 80.5001 115.774 80.2676 115.571 80.0798C115.482 80.0058 115.369 79.9677 115.254 79.9731C115.139 79.9785 115.03 80.027 114.949 80.109C114.927 80.1325 114.911 80.1607 114.901 80.1914C114.891 80.2221 114.888 80.2547 114.893 80.2866C114.897 80.3185 114.908 80.3491 114.926 80.376C114.944 80.403 114.967 80.4256 114.995 80.4423C115.151 80.5841 115.265 80.7656 115.324 80.9674C115.437 81.2174 115.541 81.4632 115.65 81.7091C115.875 82.2216 116.109 82.73 116.325 83.2467C116.743 84.2593 117.101 85.2926 117.485 86.3219C117.694 86.8969 118.615 86.6636 118.403 86.0635Z" fill="#5668AA"/>
<path d="M147.707 111.352C147.707 111.352 140.262 89.5719 154.593 88.4344C170.088 87.1843 165.783 108.69 164.732 111.557C163.681 114.423 147.707 111.352 147.707 111.352Z" fill="#6DACBC"/>
<path d="M163.702 124.516H148.437C147.553 124.516 146.819 124.124 146.769 123.62L144.988 110.64C144.908 110.077 145.688 109.594 146.656 109.594H165.425C166.413 109.594 167.189 110.077 167.093 110.64L165.333 123.611C165.316 124.124 164.582 124.516 163.702 124.516Z" fill="#6A5ADF"/>
<path d="M147.252 105.565C147.044 105.467 146.815 105.423 146.585 105.435L146.08 105.415C145.922 105.415 145.763 105.39 145.605 105.385C145.436 105.363 145.264 105.377 145.1 105.427H145.046C144.992 105.427 144.938 105.441 144.892 105.469C144.833 105.523 144.817 105.531 144.842 105.506C144.789 105.537 144.751 105.588 144.735 105.647C144.719 105.707 144.728 105.77 144.758 105.823C144.758 105.781 144.758 105.798 144.787 105.877C144.812 105.922 144.848 105.959 144.892 105.985L144.967 106.035C145.013 106.086 145.068 106.129 145.129 106.16C145.23 106.208 145.333 106.25 145.438 106.285C145.605 106.339 145.775 106.382 145.947 106.415C146.151 106.452 146.364 106.481 146.564 106.502C146.798 106.544 147.038 106.512 147.252 106.41C147.324 106.365 147.383 106.303 147.424 106.229C147.465 106.155 147.486 106.072 147.486 105.987C147.486 105.903 147.465 105.82 147.424 105.746C147.383 105.672 147.324 105.61 147.252 105.565Z" fill="#549398"/>
<path d="M147.144 102.723C147.144 102.789 147.144 102.76 147.144 102.635L147.111 102.552V102.606C147.07 102.478 146.986 102.367 146.873 102.293L146.777 102.227C146.671 102.128 146.555 102.04 146.431 101.964C146.314 101.889 146.201 101.802 146.08 101.723L145.918 101.606C145.823 101.546 145.721 101.5 145.613 101.468C145.519 101.436 145.421 101.42 145.321 101.423C145.262 101.424 145.204 101.431 145.146 101.443H145.121C145.09 101.434 145.057 101.432 145.024 101.437C144.992 101.442 144.961 101.454 144.933 101.473C144.906 101.499 144.885 101.532 144.872 101.568C144.859 101.604 144.854 101.643 144.858 101.681C144.856 101.669 144.856 101.656 144.858 101.643C144.857 101.656 144.857 101.668 144.858 101.681C144.822 101.749 144.804 101.825 144.808 101.902C144.807 102.046 144.84 102.189 144.904 102.318C145.022 102.53 145.191 102.707 145.396 102.835C145.554 102.943 145.725 103.03 145.905 103.094C146.071 103.169 146.253 103.203 146.435 103.194H146.627C146.729 103.192 146.829 103.162 146.915 103.106L147.019 103.027C147.098 102.939 147.115 102.914 147.073 102.952C147.103 102.922 147.124 102.886 147.137 102.846C147.149 102.806 147.152 102.764 147.144 102.723Z" fill="#549398"/>
<path d="M147.415 95.9723C147.24 95.7765 147.052 95.5927 146.852 95.4222C146.642 95.2219 146.409 95.0458 146.16 94.8972C146.027 94.8261 145.887 94.7688 145.743 94.7264C145.607 94.6846 145.461 94.6846 145.326 94.7264C145.303 94.7225 145.28 94.7245 145.258 94.7321C145.237 94.7397 145.218 94.7527 145.203 94.7698C145.187 94.7869 145.177 94.8077 145.172 94.83C145.168 94.8523 145.169 94.8754 145.175 94.8972C145.163 94.9549 145.163 95.0145 145.175 95.0722C145.175 95.1222 145.175 95.1722 145.205 95.2222C145.252 95.3683 145.316 95.5082 145.396 95.6389C145.449 95.7229 145.511 95.8011 145.58 95.8723C145.526 95.8056 145.551 95.8431 145.58 95.8723C145.618 95.9265 145.66 95.978 145.705 96.0264C145.797 96.1265 145.901 96.214 145.997 96.3056C146.208 96.5076 146.433 96.6956 146.668 96.8682C146.797 96.9628 146.937 97.0412 147.086 97.1015C147.216 97.1607 147.359 97.1879 147.503 97.1807C147.594 97.1796 147.682 97.1428 147.746 97.0782C147.811 97.0136 147.848 96.9262 147.849 96.8348C147.812 96.5048 147.658 96.1989 147.415 95.9723Z" fill="#549398"/>
<path d="M149.784 91.2387C149.784 91.2095 149.751 91.072 149.763 91.197C149.759 91.1359 149.746 91.0757 149.726 91.0178C149.689 90.9074 149.642 90.8001 149.588 90.697C149.588 90.697 149.567 90.6511 149.555 90.6303C149.608 90.7386 149.599 90.7136 149.53 90.5553C149.53 90.522 149.496 90.4886 149.476 90.4553C149.455 90.422 149.405 90.3053 149.367 90.2261V90.1844C149.367 90.1469 149.338 90.1053 149.321 90.0594C149.305 90.0136 149.267 89.8928 149.246 89.8094C149.215 89.6378 149.169 89.4691 149.108 89.3052C149.09 89.2363 149.059 89.1713 149.017 89.1135C148.971 88.984 148.885 88.8728 148.771 88.7969L148.75 88.7594C148.741 88.7443 148.729 88.7311 148.715 88.7207C148.701 88.7102 148.685 88.7026 148.668 88.6983C148.651 88.6941 148.633 88.6932 148.615 88.6958C148.598 88.6984 148.581 88.7045 148.566 88.7135C148.544 88.7254 148.525 88.7409 148.508 88.7594C148.421 88.7874 148.341 88.8356 148.276 88.9C148.211 88.9644 148.162 89.0433 148.133 89.1302C148.096 89.1763 148.068 89.2285 148.049 89.2844C148.049 89.3594 148.049 89.2844 148.078 89.2469C148.027 89.3433 148 89.4504 147.999 89.5594C147.992 89.6992 148.003 89.8392 148.032 89.9761C148.077 90.2277 148.157 90.4717 148.27 90.7011C148.314 90.7922 148.364 90.88 148.42 90.9637C148.458 91.022 148.504 91.0762 148.545 91.1303C148.574 91.171 148.604 91.21 148.637 91.247L148.754 91.3387L148.696 91.2928C148.696 91.3303 148.779 91.3678 148.808 91.3928C148.837 91.4178 148.896 91.4637 148.946 91.497C148.986 91.519 149.028 91.5384 149.071 91.5554L149.171 91.597C149.204 91.6102 149.24 91.6186 149.275 91.622H149.3H149.384C149.437 91.6318 149.492 91.6288 149.544 91.6132C149.596 91.5977 149.643 91.5701 149.682 91.5326C149.721 91.4952 149.751 91.449 149.769 91.3979C149.786 91.3468 149.792 91.2922 149.784 91.2387Z" fill="#549398"/>
<path d="M156.099 88.176C156.099 88.151 156.099 88.1385 156.099 88.1426V88.0301C156.099 87.9885 156.099 87.9426 156.099 87.901C156.109 87.8277 156.109 87.7534 156.099 87.6801C156.099 87.7843 156.099 87.7635 156.099 87.6176C156.099 87.6176 156.099 87.4468 156.099 87.4509C156.088 87.4097 156.071 87.3704 156.049 87.3343C156.048 87.3218 156.048 87.3092 156.049 87.2968C156.051 87.2635 156.051 87.2301 156.049 87.1968C156.049 87.1801 156.045 87.1636 156.037 87.1486C156.03 87.1337 156.019 87.1206 156.006 87.1106C155.992 87.1005 155.977 87.0936 155.961 87.0905C155.944 87.0874 155.927 87.0881 155.911 87.0926C155.842 87.1135 155.775 87.14 155.711 87.1717C155.444 87.2176 155.215 87.5468 155.127 87.7635C155.042 87.9955 155.003 88.2416 155.01 88.4885C155.022 88.7289 155.074 88.9656 155.164 89.1885C155.184 89.2458 155.208 89.3016 155.235 89.3552C155.235 89.3802 155.34 89.5094 155.285 89.4094C155.323 89.4717 155.367 89.5291 155.419 89.5802C155.469 89.6474 155.535 89.7 155.613 89.7323C155.69 89.7645 155.774 89.7754 155.857 89.7636C155.874 89.7693 155.891 89.7714 155.909 89.7697C155.926 89.7681 155.943 89.7628 155.959 89.7541C155.974 89.7455 155.987 89.7337 155.998 89.7195C156.008 89.7053 156.016 89.6891 156.02 89.6719C156.062 89.6183 156.094 89.5569 156.112 89.4911C156.131 89.4253 156.136 89.3564 156.128 89.2885C156.128 89.251 156.128 89.1094 156.128 89.2385C156.151 89.1427 156.151 89.0427 156.128 88.9469C156.128 88.9469 156.128 88.9135 156.128 88.901C156.128 88.8885 156.128 88.801 156.128 88.7552C156.128 88.7093 156.128 88.5677 156.128 88.476C156.128 88.3843 156.09 88.2676 156.099 88.176Z" fill="#549398"/>
<path d="M163.185 89.5219C163.205 89.4366 163.2 89.3472 163.171 89.2646C163.141 89.182 163.089 89.1097 163.019 89.0564C162.949 89.0031 162.866 88.9711 162.778 88.9642C162.691 88.9573 162.603 88.9759 162.526 89.0177C162.668 88.9302 162.438 89.0552 162.401 89.0802C162.332 89.1248 162.269 89.178 162.213 89.2385L162.042 89.4386C161.905 89.6177 161.763 89.7927 161.625 89.9761L161.646 89.9469C161.629 89.9653 161.614 89.9848 161.6 90.0053L161.504 90.1261C161.425 90.2219 161.341 90.3178 161.271 90.4219C161.14 90.5708 161.042 90.7454 160.983 90.9345C160.958 90.9883 160.937 91.0441 160.92 91.1012C160.907 91.1551 160.908 91.2115 160.923 91.265C160.938 91.3184 160.967 91.367 161.006 91.4061C161.046 91.4451 161.095 91.4733 161.148 91.4878C161.202 91.5022 161.258 91.5026 161.312 91.4887C161.374 91.4713 161.434 91.4475 161.492 91.4178C161.705 91.3398 161.897 91.2144 162.055 91.0512C162.194 90.9196 162.327 90.7805 162.451 90.6345C162.58 90.497 162.701 90.3511 162.818 90.2178C162.903 90.1125 162.983 90.0026 163.056 89.8886C163.099 89.8192 163.134 89.7451 163.16 89.6677C163.172 89.6177 163.223 89.3511 163.185 89.5219Z" fill="#549398"/>
<path d="M152.921 96.0556C152.905 95.9698 152.863 95.8911 152.8 95.8306L152.666 95.7181C152.651 95.6866 152.626 95.6604 152.595 95.6431L152.541 95.5973C152.407 95.4965 152.268 95.4033 152.124 95.3181C151.861 95.1767 151.59 95.0528 151.311 94.9472L151.461 95.0097L151.265 94.9264L151.102 94.8556L151.215 94.9014C151.154 94.8702 151.091 94.8423 151.027 94.8181C150.947 94.7834 150.859 94.7719 150.773 94.7847C150.653 94.8029 150.544 94.8653 150.468 94.9597V94.9847C150.448 95.0006 150.43 95.0188 150.414 95.0389C150.331 95.1902 150.306 95.3662 150.343 95.5345C150.38 95.7029 150.476 95.8524 150.614 95.9556C150.825 96.107 151.057 96.2264 151.302 96.3098C151.478 96.3807 151.649 96.4432 151.828 96.4973C151.923 96.5252 152.021 96.5447 152.12 96.5557C152.197 96.5724 152.276 96.5724 152.353 96.5557C152.32 96.5557 152.32 96.5557 152.353 96.5557H152.491C152.572 96.5591 152.652 96.5372 152.72 96.4932C152.795 96.4499 152.854 96.3845 152.89 96.3062C152.926 96.2278 152.937 96.1403 152.921 96.0556Z" fill="#549398"/>
<path d="M158.547 94.243C158.498 94.1791 158.435 94.1277 158.363 94.0929C158.29 94.0581 158.21 94.041 158.13 94.043C157.986 94.06 157.848 94.1056 157.723 94.1772C157.597 94.2488 157.487 94.3449 157.4 94.4597C157.249 94.6238 157.11 94.7978 156.983 94.9806C156.867 95.158 156.772 95.3481 156.699 95.5473C156.661 95.6491 156.638 95.7557 156.628 95.8639C156.608 96.0145 156.636 96.1676 156.708 96.3015C156.749 96.371 156.813 96.4249 156.888 96.455C156.963 96.4851 157.047 96.4897 157.125 96.4681C157.205 96.4424 157.279 96.3998 157.342 96.3431C157.342 96.3431 157.408 96.2931 157.342 96.3431L157.421 96.2806C157.473 96.2279 157.52 96.1692 157.558 96.1056L157.625 96.0181C157.721 95.8723 157.817 95.7306 157.917 95.6014C157.934 95.572 157.954 95.5442 157.976 95.5181L157.996 95.4931C158.051 95.4264 158.105 95.3639 158.163 95.3014C158.354 95.1475 158.498 94.9442 158.58 94.7139C158.613 94.6384 158.626 94.5563 158.621 94.4744C158.615 94.3925 158.59 94.3132 158.547 94.243Z" fill="#549398"/>
<path d="M156.195 102.385C156.195 102.494 156.195 102.477 156.195 102.323C156.192 102.256 156.181 102.19 156.161 102.127C156.105 101.92 156.028 101.719 155.932 101.527C155.858 101.368 155.77 101.216 155.669 101.073C155.595 100.969 155.515 100.87 155.427 100.777L155.373 100.731C155.322 100.683 155.263 100.644 155.198 100.618C155.172 100.598 155.144 100.58 155.114 100.564C155.027 100.517 154.928 100.496 154.83 100.504C154.731 100.512 154.636 100.549 154.558 100.609C154.479 100.67 154.42 100.751 154.387 100.845C154.354 100.938 154.349 101.039 154.372 101.135C154.372 101.173 154.393 101.206 154.401 101.243C154.451 101.433 154.536 101.611 154.652 101.768C154.756 101.923 154.877 102.077 154.994 102.227C155.019 102.252 155.035 102.281 155.06 102.306L155.019 102.256L155.064 102.314C155.129 102.403 155.199 102.488 155.273 102.569L155.352 102.656C155.386 102.69 155.424 102.719 155.465 102.744C155.604 102.796 155.621 102.805 155.515 102.769C155.515 102.769 155.577 102.814 155.586 102.823C155.623 102.846 155.664 102.861 155.707 102.869L155.748 102.894C155.783 102.913 155.822 102.925 155.862 102.928C155.902 102.93 155.942 102.924 155.979 102.908C156.016 102.893 156.049 102.869 156.076 102.839C156.102 102.809 156.122 102.774 156.132 102.735C156.132 102.706 156.174 102.61 156.132 102.698C156.174 102.621 156.195 102.535 156.191 102.448L156.195 102.385Z" fill="#549398"/>
<path d="M152.353 104.548L152.282 104.427L152.303 104.494C152.286 104.438 152.262 104.385 152.232 104.335C152.163 104.234 152.087 104.138 152.003 104.048C151.902 103.92 151.792 103.801 151.674 103.689C151.557 103.581 151.436 103.469 151.311 103.369C151.117 103.192 150.894 103.051 150.652 102.952L150.806 103.019C150.655 102.924 150.483 102.867 150.305 102.852C150.194 102.821 150.074 102.836 149.974 102.893C149.873 102.95 149.799 103.045 149.767 103.156C149.747 103.242 149.738 103.33 149.742 103.419C149.75 103.548 149.787 103.673 149.851 103.785L149.947 103.914C150.001 103.997 150.064 104.074 150.134 104.144L150.26 104.256C150.376 104.36 150.502 104.456 150.627 104.552C150.795 104.688 150.972 104.813 151.156 104.927C151.252 104.985 151.352 105.035 151.448 105.089C151.584 105.15 151.723 105.201 151.865 105.244C151.943 105.267 152.026 105.268 152.105 105.247C152.183 105.227 152.255 105.185 152.312 105.127L152.366 105.056V105.031C152.41 104.958 152.432 104.873 152.43 104.788C152.428 104.702 152.401 104.619 152.353 104.548Z" fill="#549398"/>
<path d="M160.491 105.56C160.442 105.54 160.389 105.53 160.336 105.531C160.416 105.531 160.42 105.531 160.336 105.531C160.245 105.522 160.154 105.529 160.065 105.552L159.844 105.61C159.686 105.648 159.527 105.698 159.369 105.735C159.19 105.779 159.016 105.837 158.847 105.91C158.781 105.94 158.756 105.944 158.66 105.99L158.572 106.035C158.521 106.066 158.478 106.109 158.447 106.16C158.384 106.181 158.351 106.285 158.426 106.319L158.497 106.41C158.518 106.433 158.544 106.452 158.572 106.465L158.66 106.506C158.749 106.549 158.843 106.583 158.939 106.606C159.127 106.655 159.321 106.675 159.515 106.665C159.717 106.653 159.917 106.626 160.115 106.585C160.202 106.566 160.287 106.541 160.37 106.51C160.529 106.453 160.666 106.346 160.762 106.206C160.795 106.147 160.815 106.082 160.819 106.014C160.823 105.947 160.812 105.879 160.785 105.817C160.759 105.754 160.719 105.699 160.668 105.654C160.617 105.61 160.556 105.578 160.491 105.56Z" fill="#549398"/>
<path d="M161.291 99.8058C161.054 99.8337 160.828 99.9195 160.632 100.056L160.428 100.16H160.399L160.274 100.202C160.119 100.252 159.961 100.306 159.811 100.364C159.727 100.398 159.648 100.418 159.569 100.448C159.513 100.468 159.461 100.501 159.419 100.544C159.376 100.586 159.344 100.637 159.323 100.693C159.323 100.723 159.281 100.739 159.294 100.777C159.308 100.872 159.348 100.961 159.41 101.035C159.473 101.089 159.547 101.127 159.627 101.148C159.706 101.175 159.787 101.196 159.869 101.21C160.11 101.251 160.358 101.241 160.595 101.181C161.037 101.073 161.592 100.856 161.738 100.381C161.754 100.313 161.755 100.242 161.74 100.174C161.725 100.106 161.695 100.042 161.653 99.9865C161.61 99.9313 161.555 99.8864 161.493 99.8552C161.43 99.8239 161.361 99.8071 161.291 99.8058Z" fill="#549398"/>
<path d="M164.745 92.1262C164.711 92.0297 164.644 91.9488 164.555 91.8988C164.465 91.8489 164.361 91.8334 164.261 91.8554C164.215 91.864 164.171 91.8809 164.132 91.9054C164.182 91.8804 164.186 91.8804 164.132 91.9054C164.024 91.9423 163.926 92.002 163.844 92.0804C163.738 92.1817 163.645 92.2966 163.569 92.4221C163.439 92.6096 163.31 92.7971 163.197 92.9929C163.067 93.2101 162.952 93.4356 162.851 93.668C162.772 93.8763 162.651 94.168 162.818 94.3597C162.816 94.3698 162.817 94.3803 162.82 94.39C162.824 94.3996 162.831 94.408 162.839 94.4142C162.847 94.4203 162.857 94.4239 162.867 94.4246C162.878 94.4253 162.888 94.423 162.897 94.418C163.143 94.5389 163.419 94.2972 163.602 94.1513C163.776 93.9973 163.936 93.8271 164.078 93.643C164.24 93.4398 164.392 93.2284 164.532 93.0096C164.628 92.8856 164.696 92.7428 164.733 92.5906C164.77 92.4384 164.774 92.2801 164.745 92.1262Z" fill="#549398"/>
<path d="M166.851 98.4474C166.808 98.35 166.738 98.2668 166.65 98.2077C166.561 98.1487 166.457 98.1162 166.351 98.1141C166.122 98.0989 165.893 98.145 165.687 98.2474C165.475 98.3266 165.27 98.4224 165.066 98.5099C164.899 98.5855 164.736 98.6703 164.578 98.7641C164.436 98.824 164.313 98.9221 164.223 99.0475C164.269 98.96 164.223 99.0225 164.198 99.0475C164.12 99.1135 164.067 99.2049 164.048 99.3058C164.033 99.3652 164.033 99.4276 164.049 99.4868C164.065 99.5461 164.096 99.6 164.14 99.6433C164.228 99.728 164.343 99.7796 164.465 99.7892H164.582C164.482 99.7892 164.507 99.7892 164.657 99.7892L164.832 99.7683L164.953 99.7475C165.143 99.7183 165.33 99.6737 165.512 99.6142C165.733 99.5433 165.954 99.4725 166.171 99.3808L166.434 99.2683C166.544 99.223 166.64 99.1497 166.713 99.0558L166.738 99.0308C166.811 98.9545 166.86 98.859 166.88 98.7556C166.9 98.6522 166.89 98.5452 166.851 98.4474Z" fill="#549398"/>
<path d="M167.039 105.577C166.986 105.45 166.909 105.334 166.81 105.238C166.712 105.141 166.596 105.065 166.467 105.015C166.249 104.9 166.02 104.808 165.783 104.739C165.55 104.671 165.312 104.624 165.07 104.598H164.962C164.928 104.598 164.791 104.598 164.937 104.598C164.849 104.588 164.761 104.588 164.674 104.598H164.641C164.613 104.596 164.585 104.596 164.557 104.598C164.547 104.588 164.536 104.58 164.523 104.574C164.51 104.569 164.496 104.566 164.482 104.566C164.468 104.566 164.454 104.569 164.441 104.574C164.428 104.58 164.417 104.588 164.407 104.598C164.397 104.612 164.384 104.623 164.369 104.631C164.314 104.665 164.27 104.717 164.245 104.777C164.221 104.838 164.216 104.905 164.232 104.969C164.249 105.043 164.281 105.114 164.324 105.177C164.364 105.267 164.422 105.347 164.493 105.414C164.565 105.482 164.649 105.534 164.741 105.569C164.87 105.631 165.003 105.677 165.137 105.727L165.254 105.773L165.308 105.798L165.571 105.923L165.671 105.965L165.725 105.99L165.879 106.06C166.095 106.193 166.343 106.264 166.597 106.265C166.68 106.27 166.763 106.253 166.838 106.216C166.913 106.178 166.976 106.121 167.021 106.051C167.066 105.981 167.091 105.9 167.095 105.817C167.098 105.733 167.079 105.65 167.039 105.577Z" fill="#549398"/>
<path d="M154.96 107.173C154.94 107.135 154.911 107.102 154.875 107.077C154.84 107.053 154.799 107.037 154.756 107.031H154.727C154.777 107.056 154.756 107.031 154.672 107.01C154.622 107.006 154.572 107.006 154.522 107.01H154.497C154.434 107 154.369 107 154.305 107.01C154.202 107.017 154.099 107.03 153.997 107.048C153.847 107.066 153.7 107.101 153.559 107.152L153.363 107.231C153.299 107.252 153.237 107.28 153.179 107.315C153.092 107.371 153.019 107.447 152.966 107.535C152.932 107.597 152.912 107.665 152.908 107.734C152.904 107.804 152.915 107.874 152.942 107.939C152.968 108.004 153.009 108.062 153.061 108.109C153.113 108.156 153.175 108.191 153.242 108.211C153.363 108.246 153.492 108.246 153.613 108.211L153.801 108.161C153.954 108.113 154.102 108.05 154.243 107.973C154.355 107.916 154.464 107.852 154.568 107.781C154.681 107.711 154.778 107.617 154.852 107.506C154.923 107.394 155.023 107.277 154.96 107.173Z" fill="#549398"/>
<path d="M166.688 113.236C165.567 112.14 164.036 112.865 162.893 113.49C162.557 113.716 162.165 113.847 161.76 113.867C161.355 113.888 160.952 113.798 160.595 113.607C159.898 113.223 159.178 112.884 158.439 112.59C157.688 112.313 156.884 112.212 156.088 112.296C155.292 112.38 154.527 112.646 153.851 113.073C153.487 113.316 153.072 113.473 152.638 113.531C152.204 113.588 151.763 113.546 151.348 113.407C150.514 113.169 149.722 112.765 148.871 112.552C148.092 112.334 147.264 112.363 146.502 112.636C145.947 112.857 145.004 113.444 145.359 114.157C145.388 114.208 145.431 114.25 145.482 114.279C145.534 114.309 145.592 114.324 145.651 114.323C145.886 114.303 146.104 114.192 146.26 114.015C146.516 113.797 146.818 113.64 147.144 113.557C147.849 113.435 148.574 113.524 149.229 113.811C150.627 114.303 152.124 115.061 153.634 114.54C154.335 114.298 154.885 113.79 155.619 113.603C156.339 113.437 157.091 113.466 157.796 113.686C159.16 114.065 160.345 115.232 161.821 115.157C162.602 115.047 163.347 114.762 164.002 114.323C164.495 114.057 165.308 113.678 165.821 114.123C165.9 114.202 165.998 114.258 166.106 114.286C166.213 114.315 166.327 114.315 166.434 114.286C166.588 114.234 166.721 114.131 166.809 113.994C166.875 113.872 166.898 113.732 166.876 113.595C166.854 113.458 166.788 113.332 166.688 113.236Z" fill="#FBF1EC"/>
<path d="M165.408 115.965C164.745 116.274 164.228 116.674 163.477 116.799C162.737 116.882 161.988 116.777 161.3 116.494C160.019 116.036 158.768 115.336 157.358 115.553C156.679 115.719 156.017 115.951 155.381 116.244C154.593 116.512 153.743 116.535 152.941 116.311C151.569 115.982 150.305 115.328 148.887 115.198C147.715 115.09 146.076 115.353 145.497 116.532C145.457 116.61 145.446 116.699 145.465 116.784C145.485 116.869 145.533 116.945 145.602 116.998C145.671 117.052 145.757 117.079 145.844 117.076C145.932 117.073 146.015 117.04 146.08 116.982C146.581 116.425 147.28 116.087 148.028 116.04C148.819 116.006 149.61 116.125 150.356 116.39C152.237 117.007 153.98 117.765 155.94 116.986C156.833 116.632 157.609 116.299 158.593 116.511C159.455 116.765 160.302 117.07 161.129 117.424C161.938 117.725 162.809 117.822 163.665 117.707C164.428 117.59 165.421 117.269 165.913 116.636C165.957 116.603 165.994 116.561 166.022 116.514C166.05 116.467 166.068 116.414 166.076 116.36C166.084 116.305 166.081 116.249 166.067 116.196C166.053 116.143 166.029 116.093 165.996 116.048C165.963 116.004 165.921 115.967 165.874 115.939C165.826 115.911 165.774 115.893 165.719 115.885C165.665 115.877 165.609 115.88 165.556 115.894C165.502 115.908 165.452 115.932 165.408 115.965Z" fill="#FBF1EC"/>
<path d="M40.482 108.027C40.482 108.027 49.4576 105.156 48.9696 113.419C48.4816 121.682 43.0095 122.587 39.6437 121.199V118.886C39.6437 118.886 44.5486 120.357 45.3911 115.803C46.2336 111.248 44.0606 109.969 40.9033 110.969L40.482 108.027Z" fill="#6A5ADF"/>
<path d="M39.5978 124.687H27.0312C26.6809 124.687 26.3436 124.554 26.0868 124.316C25.83 124.078 25.6727 123.752 25.6464 123.403L24.195 104.835C24.18 104.644 24.2048 104.452 24.2679 104.271C24.3309 104.09 24.4309 103.924 24.5614 103.783C24.6919 103.643 24.8501 103.531 25.0261 103.455C25.2021 103.378 25.392 103.339 25.5839 103.34H41.0493C41.2408 103.34 41.4303 103.379 41.6058 103.456C41.7813 103.532 41.939 103.645 42.069 103.785C42.1991 103.926 42.2986 104.091 42.3614 104.272C42.4242 104.453 42.4489 104.645 42.434 104.835L40.9825 123.403C40.9563 123.752 40.799 124.078 40.5422 124.316C40.2854 124.554 39.9481 124.687 39.5978 124.687Z" fill="#6A5ADF"/>
</svg>
