<svg width="18" height="24" viewBox="0 0 18 24" fill="none" xmlns="http://www.w3.org/2000/svg">
<path fill-rule="evenodd" clip-rule="evenodd" d="M3.14485 0H11.177L17.974 7.09489V20.873C17.974 22.5985 16.5814 24 14.8558 24H3.14485C1.42806 24 0.0266113 22.5985 0.0266113 20.873V3.11824C0.026581 1.40145 1.42806 0 3.14485 0Z" fill="white"/>
<path fill-rule="evenodd" clip-rule="evenodd" d="M11.1682 0V7.03358H17.9741L11.1682 0Z" fill="#6A5ADF"/>
<path d="M7.48947 17.4745H6.32452L5.52745 16.1344L4.73036 17.4745H3.55664L4.94059 15.1446L3.72309 13.1212H4.89678L5.52742 14.1723L6.14931 13.1212H7.32303L6.11425 15.1533L7.48947 17.4745ZM7.90115 17.4745V13.1212H9.01355V16.5285H10.9055V17.4745H7.90115V17.4745ZM12.7449 17.527C12.307 17.527 11.9216 17.3869 11.5888 17.1154C11.2647 16.8526 11.0807 16.5197 11.0544 16.1256L12.0092 15.8453C12.0355 16.0555 12.1231 16.2395 12.272 16.3796C12.4296 16.5198 12.6048 16.5898 12.7975 16.5898C12.9552 16.5898 13.0866 16.5548 13.1917 16.4847C13.288 16.4146 13.3406 16.3183 13.3406 16.2044C13.3406 16.1081 13.2968 16.0293 13.2179 15.9592C13.1391 15.8979 13.034 15.8453 12.9114 15.8015C12.7887 15.7577 12.6398 15.7139 12.4909 15.6789C12.3333 15.6351 12.1756 15.5826 12.0267 15.5125C11.869 15.4512 11.7289 15.3723 11.6063 15.276C11.4749 15.1884 11.3785 15.057 11.2997 14.8906C11.2208 14.7329 11.177 14.5402 11.177 14.3212C11.177 13.9621 11.3259 13.6643 11.6325 13.4278C11.9391 13.1825 12.307 13.0687 12.7362 13.0687C13.1654 13.0687 13.542 13.1738 13.8573 13.3752C14.1727 13.5854 14.3741 13.857 14.4529 14.1898L13.4544 14.6103C13.4106 14.4263 13.323 14.2774 13.2004 14.1636C13.0777 14.0585 12.9201 13.9972 12.7362 13.9972C12.596 13.9972 12.4909 14.0322 12.4033 14.0848C12.3245 14.1373 12.2894 14.2162 12.2894 14.3125C12.2894 14.4001 12.342 14.4789 12.4471 14.5402C12.5522 14.5928 12.6924 14.6366 12.85 14.6629C13.0077 14.6891 13.1829 14.7329 13.3668 14.7942C13.5595 14.8643 13.7259 14.9344 13.8923 15.0307C14.05 15.1184 14.1814 15.2672 14.2865 15.4599C14.4004 15.6614 14.4529 15.8979 14.4529 16.1694C14.4529 16.5724 14.2953 16.9052 13.9799 17.1504C13.6646 17.3957 13.253 17.527 12.7449 17.527Z" fill="#6A5ADF"/>
</svg>
