<svg width="24" height="24" viewBox="0 0 24 24" fill="none" xmlns="http://www.w3.org/2000/svg">
<path fill-rule="evenodd" clip-rule="evenodd" d="M6.14461 0H14.1767L20.9738 7.09489V20.873C20.9738 22.5985 19.5811 24 17.8556 24H6.14461C4.42782 24 3.02637 22.5985 3.02637 20.873V3.11824C3.02634 1.40145 4.42782 0 6.14461 0Z" fill="#6A5ADF"/>
<path fill-rule="evenodd" clip-rule="evenodd" d="M14.1677 0V7.03358H20.9736L14.1677 0Z" fill="white"/>
<path d="M7.72852 14.7344L8.53125 16.2227L9.33398 14.7344H10.3389L9.09961 16.8496L10.3711 19H9.35742L8.53125 17.4824L7.70508 19H6.68555L7.95996 16.8496L6.71777 14.7344H7.72852ZM13.5557 18.3145V19H11.4082V18.3145H13.5557ZM11.6924 14.7344V19H10.8135V14.7344H11.6924ZM16.2803 17.8838C16.2803 17.8076 16.2686 17.7393 16.2451 17.6787C16.2236 17.6162 16.1826 17.5596 16.1221 17.5088C16.0615 17.4561 15.9766 17.4043 15.8672 17.3535C15.7578 17.3027 15.6162 17.25 15.4424 17.1953C15.249 17.1328 15.0654 17.0625 14.8916 16.9844C14.7197 16.9062 14.5674 16.8154 14.4346 16.7119C14.3037 16.6064 14.2002 16.4844 14.124 16.3457C14.0498 16.207 14.0127 16.0459 14.0127 15.8623C14.0127 15.6846 14.0518 15.5234 14.1299 15.3789C14.208 15.2324 14.3174 15.1074 14.458 15.0039C14.5986 14.8984 14.7646 14.8174 14.9561 14.7607C15.1494 14.7041 15.3613 14.6758 15.5918 14.6758C15.9062 14.6758 16.1807 14.7324 16.415 14.8457C16.6494 14.959 16.8311 15.1143 16.96 15.3115C17.0908 15.5088 17.1562 15.7344 17.1562 15.9883H16.2832C16.2832 15.8633 16.2568 15.7539 16.2041 15.6602C16.1533 15.5645 16.0752 15.4893 15.9697 15.4346C15.8662 15.3799 15.7354 15.3525 15.5771 15.3525C15.4248 15.3525 15.2979 15.376 15.1963 15.4229C15.0947 15.4678 15.0186 15.5293 14.9678 15.6074C14.917 15.6836 14.8916 15.7695 14.8916 15.8652C14.8916 15.9375 14.9092 16.0029 14.9443 16.0615C14.9814 16.1201 15.0361 16.1748 15.1084 16.2256C15.1807 16.2764 15.2695 16.3242 15.375 16.3691C15.4805 16.4141 15.6025 16.458 15.7412 16.501C15.9736 16.5713 16.1777 16.6504 16.3535 16.7383C16.5312 16.8262 16.6797 16.9248 16.7988 17.0342C16.918 17.1436 17.0078 17.2676 17.0684 17.4062C17.1289 17.5449 17.1592 17.7021 17.1592 17.8779C17.1592 18.0635 17.123 18.2295 17.0508 18.376C16.9785 18.5225 16.874 18.6465 16.7373 18.748C16.6006 18.8496 16.4375 18.9268 16.248 18.9795C16.0586 19.0322 15.8467 19.0586 15.6123 19.0586C15.4014 19.0586 15.1934 19.0312 14.9883 18.9766C14.7832 18.9199 14.5967 18.835 14.4287 18.7217C14.2627 18.6084 14.1299 18.4639 14.0303 18.2881C13.9307 18.1123 13.8809 17.9043 13.8809 17.6641H14.7627C14.7627 17.7969 14.7832 17.9092 14.8242 18.001C14.8652 18.0928 14.9229 18.167 14.9971 18.2236C15.0732 18.2803 15.1631 18.3213 15.2666 18.3467C15.3721 18.3721 15.4873 18.3848 15.6123 18.3848C15.7646 18.3848 15.8896 18.3633 15.9873 18.3203C16.0869 18.2773 16.1602 18.2178 16.207 18.1416C16.2559 18.0654 16.2803 17.9795 16.2803 17.8838Z" fill="white"/>
</svg>
