<svg width="24" height="24" viewBox="0 0 24 24" fill="none" xmlns="http://www.w3.org/2000/svg">
<path opacity="0.12" d="M10.6667 20.5C6.17396 20.5 2.5 16.7124 2.5 12C2.5 7.28763 6.17396 3.5 10.6667 3.5C12.0522 3.5 13.3566 3.85876 14.5 4.49263V19.5074C13.3566 20.1412 12.0522 20.5 10.6667 20.5Z" fill="#6A5ADF" stroke="#6A5ADF"/>
<path d="M18 8L22 12M22 12L18 16M22 12H9M15 4.20404C13.7252 3.43827 12.2452 3 10.6667 3C5.8802 3 2 7.02944 2 12C2 16.9706 5.8802 21 10.6667 21C12.2452 21 13.7252 20.5617 15 19.796" stroke="#6A5ADF" stroke-width="2" stroke-linecap="round" stroke-linejoin="round"/>
</svg>
