<svg width="24" height="24" viewBox="0 0 24 24" fill="none" xmlns="http://www.w3.org/2000/svg">
<path opacity="0.12" d="M11.6117 2.21613C11.7535 2.13735 11.8244 2.09796 11.8995 2.08252C11.966 2.06885 12.0345 2.06885 12.1009 2.08252C12.176 2.09796 12.2469 2.13735 12.3887 2.21613L19.7414 6.30096C20.1524 6.52928 20.3579 6.64344 20.4261 6.79391C20.4855 6.92508 20.4855 7.0755 20.4261 7.20667C20.3579 7.35714 20.1524 7.4713 19.7414 7.69961L12.0002 12.0003L4.25901 7.69962C3.84804 7.4713 3.64255 7.35714 3.57436 7.20667C3.51493 7.0755 3.51493 6.92508 3.57436 6.79391C3.64255 6.64344 3.84804 6.52928 4.25901 6.30096L11.6117 2.21613Z" fill="white"/>
<path d="M20.5 7.27734L12 11.9996M12 11.9996L3.49997 7.27734M12 11.9996V21.4996M14 20.8885L12.777 21.5679C12.4934 21.7255 12.3516 21.8042 12.2015 21.8351C12.0685 21.8625 11.9315 21.8625 11.7986 21.8351C11.6484 21.8042 11.5066 21.7255 11.223 21.5679L3.82297 17.4568C3.52346 17.2904 3.37368 17.2072 3.26463 17.0888C3.16816 16.9842 3.09515 16.8601 3.05048 16.7249C3 16.5721 3 16.4008 3 16.0581V7.94104C3 7.5984 3 7.42708 3.05048 7.27428C3.09515 7.1391 3.16816 7.01502 3.26463 6.91033C3.37368 6.79199 3.52345 6.70879 3.82297 6.54239L11.223 2.43128C11.5066 2.27372 11.6484 2.19494 11.7986 2.16405C11.9315 2.13672 12.0685 2.13672 12.2015 2.16405C12.3516 2.19494 12.4934 2.27372 12.777 2.43128L20.177 6.54239C20.4766 6.70879 20.6263 6.79199 20.7354 6.91033C20.8318 7.01502 20.9049 7.1391 20.9495 7.27428C21 7.42708 21 7.5984 21 7.94104V12.4996M7.5 4.49959L16.5 9.49959M19 20.9996V14.9996M16 17.9996H22" stroke="white" stroke-width="2" stroke-linecap="round" stroke-linejoin="round"/>
</svg>
