<svg width="24" height="24" viewBox="0 0 24 24" fill="none" xmlns="http://www.w3.org/2000/svg">
<path opacity="0.12" d="M7.48049 3H16.5197C18.0982 3 18.8874 3 19.5063 3.29942C20.0513 3.56304 20.5037 3.98533 20.8042 4.51082C21.1455 5.10768 21.1998 5.89504 21.3084 7.46975L21.9665 17.0133C21.7297 15.3107 20.268 14 18.5001 14H5.50013C3.73227 14 2.27055 15.3107 2.03369 17.0133L2.69187 7.46975C2.80047 5.89503 2.85477 5.10768 3.19606 4.51082C3.49655 3.98533 3.94897 3.56304 4.49389 3.29942C5.11281 3 5.90204 3 7.48049 3Z" fill="white"/>
<path d="M22 17.5L21.3083 7.46975C21.1997 5.89504 21.1454 5.10768 20.8041 4.51082C20.5036 3.98533 20.0512 3.56304 19.5062 3.29942C18.8873 3 18.0981 3 16.5196 3H7.48037C5.90191 3 5.11268 3 4.49376 3.29942C3.94884 3.56304 3.49642 3.98533 3.19594 4.51082C2.85464 5.10768 2.80034 5.89503 2.69174 7.46975L2 17.5M22 17.5C22 19.433 20.433 21 18.5 21H5.5C3.567 21 2 19.433 2 17.5M22 17.5C22 15.567 20.433 14 18.5 14H5.5C3.567 14 2 15.567 2 17.5M6 17.5H6.01M12 17.5H18" stroke="white" stroke-width="2" stroke-linecap="round" stroke-linejoin="round"/>
</svg>
