<svg width="240" height="240" viewBox="0 0 240 240" fill="none" xmlns="http://www.w3.org/2000/svg">
<path fill-rule="evenodd" clip-rule="evenodd" d="M194.218 92.3145H55.4678C52.4841 92.3145 49.6226 93.4997 47.5128 95.6095C45.403 97.7193 44.2178 100.581 44.2178 103.564V126.064H194.218V92.3145Z" fill="url(#paint0_linear_1946_42030)"/>
<path fill-rule="evenodd" clip-rule="evenodd" d="M44.2178 106.133H194.218V113.119H44.2178V106.133Z" fill="url(#paint1_linear_1946_42030)"/>
<path fill-rule="evenodd" clip-rule="evenodd" d="M194.225 88.8574C194.225 85.8737 193.04 83.0123 190.93 80.9025C188.82 78.7927 185.959 77.6074 182.975 77.6074H135.583C133.229 77.6076 130.935 78.3458 129.023 79.7182C127.111 81.0905 125.678 83.0278 124.925 85.2574L120.009 99.8112H194.225V88.8574Z" fill="url(#paint2_linear_1946_42030)"/>
<path fill-rule="evenodd" clip-rule="evenodd" d="M203.55 128.378C203.883 126.239 203.749 124.052 203.157 121.969C202.565 119.886 201.529 117.956 200.121 116.312C198.713 114.667 196.965 113.346 194.998 112.44C193.032 111.535 190.892 111.065 188.727 111.064H51.2816C49.1158 111.064 46.9757 111.533 45.0082 112.438C43.0407 113.343 41.2926 114.664 39.8841 116.309C38.4755 117.954 37.4399 119.885 36.8485 121.968C36.257 124.052 36.1238 126.238 36.4578 128.378L50.5203 218.378C51.0729 221.913 52.8704 225.134 55.5885 227.46C58.3066 229.786 61.7665 231.064 65.3441 231.064H174.664C178.242 231.064 181.702 229.786 184.42 227.46C187.138 225.134 188.935 221.913 189.488 218.378L203.55 128.378Z" fill="url(#paint3_linear_1946_42030)"/>
<path fill-rule="evenodd" clip-rule="evenodd" d="M36.4578 128.378L38.3816 140.678C37.7028 136.347 39.1916 131.937 42.0416 128.607C43.4498 126.962 45.1976 125.641 47.1649 124.735C49.1321 123.83 51.2722 123.361 53.4378 123.361H186.57C190.954 123.361 195.117 125.277 197.967 128.607C200.817 131.937 202.305 136.347 201.627 140.678L203.55 128.378C203.883 126.239 203.749 124.052 203.157 121.969C202.565 119.886 201.529 117.956 200.121 116.312C198.713 114.667 196.965 113.346 194.998 112.44C193.032 111.535 190.892 111.065 188.727 111.064H51.2816C49.1158 111.064 46.9757 111.533 45.0082 112.438C43.0407 113.343 41.2926 114.664 39.8841 116.309C38.4755 117.954 37.4399 119.885 36.8485 121.968C36.257 124.052 36.1238 126.238 36.4578 128.378Z" fill="#E9F3FC"/>
<path fill-rule="evenodd" clip-rule="evenodd" d="M111.434 200.488C111.434 198.499 110.643 196.592 109.237 195.185C107.83 193.779 105.923 192.988 103.934 192.988H73.9336C71.9445 192.988 70.0368 193.779 68.6303 195.185C67.2238 196.592 66.4336 198.499 66.4336 200.488V207.988C66.4336 209.978 67.2238 211.885 68.6303 213.292C70.0368 214.698 71.9445 215.488 73.9336 215.488H103.934C105.923 215.488 107.83 214.698 109.237 213.292C110.643 211.885 111.434 209.978 111.434 207.988V200.488Z" fill="url(#paint4_linear_1946_42030)"/>
<path fill-rule="evenodd" clip-rule="evenodd" d="M88.3418 96.854C88.1792 95.8195 88.099 94.7737 88.1018 93.7265C88.1058 92.7319 87.7145 91.7765 87.0141 91.0705C86.3136 90.3644 85.3614 89.9655 84.3668 89.9615C83.3723 89.9575 82.4169 90.3488 81.7108 91.0492C81.0047 91.7497 80.6058 92.7019 80.6018 93.6965C80.5953 95.1444 80.7069 96.5905 80.9356 98.0202C81.0007 98.5166 81.1645 98.9949 81.4174 99.4269C81.6703 99.8589 82.0071 100.236 82.408 100.536C82.8089 100.836 83.2657 101.052 83.7516 101.172C84.2375 101.293 84.7426 101.315 85.2371 101.237C85.7315 101.159 86.2054 100.983 86.6308 100.719C87.0562 100.455 87.4244 100.109 87.7137 99.7002C88.0031 99.2917 88.2078 98.8295 88.3156 98.3406C88.4235 97.8518 88.4324 97.3463 88.3418 96.854ZM92.2793 82.4803C93.0143 81.6178 93.8393 80.8078 94.7543 80.0503C95.5206 79.4162 96.0037 78.5037 96.0972 77.5135C96.1908 76.5234 95.8871 75.5366 95.2531 74.7703C94.619 74.0039 93.7066 73.5209 92.7164 73.4274C91.7262 73.3338 90.7394 73.6375 89.9731 74.2715C88.7438 75.2863 87.6045 76.4054 86.5681 77.6165C85.9231 78.3739 85.6054 79.3564 85.6849 80.348C85.7643 81.3396 86.2345 82.259 86.9918 82.904C87.7492 83.549 88.7317 83.8667 89.7233 83.7872C90.7149 83.7077 91.6344 83.2376 92.2793 82.4803ZM106.413 74.639C107.928 74.2978 109.526 74.0428 111.202 73.874C112.185 73.7671 113.086 73.2761 113.709 72.508C114.332 71.7399 114.626 70.7569 114.528 69.7728C114.429 68.7888 113.946 67.8835 113.184 67.2539C112.421 66.6244 111.44 66.3216 110.456 66.4115C108.468 66.6103 106.571 66.9178 104.771 67.3228C104.281 67.4218 103.817 67.6176 103.405 67.8985C102.992 68.1794 102.64 68.5398 102.368 68.9586C102.097 69.3774 101.912 69.8462 101.824 70.3374C101.736 70.8287 101.747 71.3326 101.856 71.8195C101.966 72.3065 102.171 72.7667 102.46 73.1732C102.75 73.5798 103.118 73.9244 103.542 74.187C103.966 74.4496 104.439 74.6248 104.932 74.7025C105.425 74.7801 105.929 74.7585 106.413 74.639ZM125.609 73.859C127.897 73.919 130.068 73.9002 132.138 73.814C133.121 73.7576 134.042 73.3168 134.703 72.5869C135.364 71.8569 135.711 70.8964 135.67 69.9127C135.628 68.9289 135.202 68.0009 134.482 67.329C133.762 66.6571 132.807 66.2952 131.823 66.3215C129.914 66.4003 127.908 66.4153 125.801 66.3628C124.818 66.3561 123.872 66.7352 123.167 67.4185C122.461 68.1019 122.051 69.0349 122.026 70.017C122.001 70.9991 122.363 71.9518 123.033 72.6703C123.703 73.3888 124.628 73.8156 125.609 73.859ZM147.633 71.4628C150.052 70.7615 152.234 69.9253 154.192 68.9878C155.046 68.532 155.691 67.764 155.992 66.8441C156.293 65.9242 156.227 64.9235 155.808 64.051C155.389 63.1785 154.649 62.5016 153.743 62.1616C152.836 61.8216 151.834 61.8449 150.944 62.2265C149.332 62.999 147.536 63.6815 145.541 64.2628C144.607 64.5582 143.826 65.2071 143.365 66.0707C142.903 66.9343 142.798 67.9442 143.071 68.8845C143.344 69.8249 143.974 70.621 144.827 71.1027C145.679 71.5845 146.687 71.7137 147.633 71.4628ZM165.461 59.7778C167.167 57.3536 168.392 54.6241 169.068 51.7378C169.243 50.7894 169.045 49.8102 168.517 49.0032C167.989 48.1963 167.171 47.6235 166.232 47.4036C165.293 47.1837 164.306 47.3335 163.474 47.8221C162.643 48.3107 162.032 49.1005 161.767 50.0278C161.328 51.8953 160.533 53.7403 159.318 55.4728C158.796 56.2883 158.609 57.274 158.797 58.2239C158.985 59.1739 159.532 60.0145 160.325 60.5702C161.118 61.126 162.095 61.3538 163.052 61.2061C164.009 61.0584 164.872 60.5467 165.461 59.7778ZM167.684 36.6928C166.023 32.819 163.421 29.5565 160.331 27.4265C159.512 26.8697 158.506 26.6593 157.533 26.8412C156.56 27.023 155.698 27.5824 155.135 28.3973C154.573 29.2122 154.356 30.2164 154.531 31.1909C154.706 32.1654 155.26 33.031 156.071 33.599C158.077 34.9828 159.716 37.139 160.792 39.6515C161.184 40.5655 161.924 41.2862 162.847 41.6551C163.771 42.0239 164.803 42.0107 165.717 41.6184C166.631 41.226 167.352 40.4867 167.721 39.5629C168.09 38.6392 168.077 37.6068 167.684 36.6928Z" fill="black"/>
<path fill-rule="evenodd" clip-rule="evenodd" d="M119.599 25.6155C123.656 2.63926 158.82 4.12426 138.349 25.6155H119.599Z" fill="url(#paint5_linear_1946_42030)"/>
<path fill-rule="evenodd" clip-rule="evenodd" d="M119.599 31.4355C123.656 54.408 158.82 52.9268 138.349 31.4355H119.599Z" fill="url(#paint6_linear_1946_42030)"/>
<path fill-rule="evenodd" clip-rule="evenodd" d="M119.259 32.3145H144.369C145.363 32.3145 146.317 31.9194 147.02 31.2161C147.724 30.5128 148.119 29.559 148.119 28.5645C148.119 27.5699 147.724 26.6161 147.02 25.9128C146.317 25.2095 145.363 24.8145 144.369 24.8145H119.259C118.293 24.8576 117.382 25.2716 116.714 25.9701C116.046 26.6687 115.673 27.5979 115.673 28.5645C115.673 29.531 116.046 30.4602 116.714 31.1588C117.382 31.8573 118.293 32.2713 119.259 32.3145Z" fill="url(#paint7_linear_1946_42030)"/>
<defs>
<linearGradient id="paint0_linear_1946_42030" x1="44.2178" y1="92.3145" x2="194.218" y2="92.3145" gradientUnits="userSpaceOnUse">
<stop stop-color="#CADCF0"/>
<stop offset="1" stop-color="#6A5ADF"/>
</linearGradient>
<linearGradient id="paint1_linear_1946_42030" x1="44.2178" y1="109.624" x2="194.218" y2="109.624" gradientUnits="userSpaceOnUse">
<stop stop-color="#A4BBDB"/>
<stop offset="1" stop-color="#8DA3BE"/>
</linearGradient>
<linearGradient id="paint2_linear_1946_42030" x1="120.009" y1="77.6074" x2="194.225" y2="77.6074" gradientUnits="userSpaceOnUse">
<stop stop-color="#CADCF0"/>
<stop offset="1" stop-color="#6A5ADF"/>
</linearGradient>
<linearGradient id="paint3_linear_1946_42030" x1="36.2783" y1="111.064" x2="203.729" y2="111.064" gradientUnits="userSpaceOnUse">
<stop stop-color="#E9F3FC"/>
<stop offset="1" stop-color="#6A5ADF"/>
</linearGradient>
<linearGradient id="paint4_linear_1946_42030" x1="66.4336" y1="192.988" x2="111.434" y2="192.988" gradientUnits="userSpaceOnUse">
<stop stop-color="#6A5ADF"/>
<stop offset="1" stop-color="#2E69EF"/>
</linearGradient>
<linearGradient id="paint5_linear_1946_42030" x1="119.599" y1="8.93555" x2="144.706" y2="8.93555" gradientUnits="userSpaceOnUse">
<stop stop-color="#E9F3FC"/>
<stop offset="1" stop-color="#6A5ADF"/>
</linearGradient>
<linearGradient id="paint6_linear_1946_42030" x1="119.599" y1="31.4355" x2="144.706" y2="31.4355" gradientUnits="userSpaceOnUse">
<stop stop-color="#E9F3FC"/>
<stop offset="1" stop-color="#6A5ADF"/>
</linearGradient>
<linearGradient id="paint7_linear_1946_42030" x1="115.673" y1="24.8145" x2="148.119" y2="24.8145" gradientUnits="userSpaceOnUse">
<stop stop-color="#6A5ADF"/>
<stop offset="1" stop-color="#2E69EF"/>
</linearGradient>
</defs>
</svg>
