<svg width="24" height="24" viewBox="0 0 24 24" fill="none" xmlns="http://www.w3.org/2000/svg">
<path opacity="0.12" d="M3.31901 7.6635L3.31902 7.66349C3.45069 7.5964 3.62454 7.55031 3.92712 7.52559C4.23554 7.50039 4.6317 7.5 5.2 7.5H18.8C19.3683 7.5 19.7645 7.50039 20.0729 7.52559C20.3755 7.55031 20.5493 7.5964 20.681 7.66349L20.9079 7.21828L20.681 7.66349C20.9632 7.8073 21.1927 8.03678 21.3365 8.31897L21.3365 8.31903C21.4036 8.4507 21.4497 8.62454 21.4744 8.92712C21.4996 9.23554 21.5 9.6317 21.5 10.2V13.8C21.5 14.3683 21.4996 14.7645 21.4744 15.0729C21.4497 15.3755 21.4036 15.5493 21.3365 15.681L21.3365 15.681C21.1927 15.9632 20.9632 16.1927 20.681 16.3365L20.681 16.3365C20.5493 16.4036 20.3755 16.4497 20.0729 16.4744C19.7645 16.4996 19.3683 16.5 18.8 16.5H5.2C4.6317 16.5 4.23554 16.4996 3.92712 16.4744C3.62454 16.4497 3.4507 16.4036 3.31903 16.3365L3.31897 16.3365C3.03678 16.1927 2.80731 15.9632 2.66349 15.681L2.66349 15.681C2.5964 15.5493 2.55031 15.3755 2.52559 15.0729C2.50039 14.7645 2.5 14.3683 2.5 13.8V10.2C2.5 9.6317 2.50039 9.23554 2.52559 8.92712C2.55031 8.62454 2.5964 8.45069 2.66349 8.31902L2.6635 8.31901C2.8073 8.03676 3.03676 7.8073 3.31901 7.6635ZM21.782 8.09202C21.5903 7.71569 21.2843 7.40973 20.908 7.21799C20.4802 7 19.9201 7 18.8 7H5.2C4.0799 7 3.51984 7 3.09202 7.21799C2.71569 7.40973 2.40973 7.71569 2.21799 8.09202C2 8.51984 2 9.0799 2 10.2V13.8C2 14.9201 2 15.4802 2.21799 15.908C2.40973 16.2843 2.71569 16.5903 3.09202 16.782C3.51984 17 4.0799 17 5.2 17H18.8C19.9201 17 20.4802 17 20.908 16.782C21.2843 16.5903 21.5903 16.2843 21.782 15.908C22 15.4802 22 14.9201 22 13.8V10.2C22 9.0799 22 8.51984 21.782 8.09202Z" fill="#6A5ADF" stroke="#6A5ADF"/>
<path d="M12 12H12.005M17 12H17.005M7 12H7.005M5.2 7H18.8C19.9201 7 20.4802 7 20.908 7.21799C21.2843 7.40973 21.5903 7.71569 21.782 8.09202C22 8.51984 22 9.0799 22 10.2V13.8C22 14.9201 22 15.4802 21.782 15.908C21.5903 16.2843 21.2843 16.5903 20.908 16.782C20.4802 17 19.9201 17 18.8 17H5.2C4.0799 17 3.51984 17 3.09202 16.782C2.71569 16.5903 2.40973 16.2843 2.21799 15.908C2 15.4802 2 14.9201 2 13.8V10.2C2 9.0799 2 8.51984 2.21799 8.09202C2.40973 7.71569 2.71569 7.40973 3.09202 7.21799C3.51984 7 4.0799 7 5.2 7ZM12.25 12C12.25 12.1381 12.1381 12.25 12 12.25C11.8619 12.25 11.75 12.1381 11.75 12C11.75 11.8619 11.8619 11.75 12 11.75C12.1381 11.75 12.25 11.8619 12.25 12ZM17.25 12C17.25 12.1381 17.1381 12.25 17 12.25C16.8619 12.25 16.75 12.1381 16.75 12C16.75 11.8619 16.8619 11.75 17 11.75C17.1381 11.75 17.25 11.8619 17.25 12ZM7.25 12C7.25 12.1381 7.13807 12.25 7 12.25C6.86193 12.25 6.75 12.1381 6.75 12C6.75 11.8619 6.86193 11.75 7 11.75C7.13807 11.75 7.25 11.8619 7.25 12Z" stroke="#6A5ADF" stroke-width="2" stroke-linecap="round" stroke-linejoin="round"/>
</svg>
