<svg width="24" height="24" viewBox="0 0 24 24" fill="none" xmlns="http://www.w3.org/2000/svg">
<path opacity="0.12" d="M2.57438 4.72907C2.3929 4.18231 2.30217 3.90893 2.36821 3.74054C2.42557 3.5943 2.54832 3.48351 2.69966 3.4414C2.87392 3.39291 3.13659 3.51111 3.66194 3.74752L20.3792 11.2703C20.8936 11.5017 21.1507 11.6175 21.2302 11.7782C21.2993 11.9179 21.2993 12.0818 21.2302 12.2214C21.1507 12.3822 20.8936 12.4979 20.3792 12.7294L3.66776 20.2495C3.14083 20.4867 2.87736 20.6052 2.70293 20.5565C2.55144 20.5143 2.42868 20.4032 2.37152 20.2567C2.3057 20.0879 2.39742 19.814 2.58085 19.266L4.91577 12.2913C4.94718 12.1975 4.96289 12.1506 4.96916 12.1026C4.97473 12.06 4.97479 12.0169 4.96933 11.9742C4.96318 11.9262 4.94759 11.8793 4.91642 11.7854L2.57438 4.72907Z" fill="white"/>
<path d="M10.5004 11.9998H5.00043M4.91577 12.2913L2.58085 19.266C2.39742 19.814 2.3057 20.0879 2.37152 20.2567C2.42868 20.4032 2.55144 20.5143 2.70293 20.5565C2.87736 20.6052 3.14083 20.4867 3.66776 20.2495L20.3792 12.7294C20.8936 12.4979 21.1507 12.3822 21.2302 12.2214C21.2993 12.0818 21.2993 11.9179 21.2302 11.7782C21.1507 11.6175 20.8936 11.5017 20.3792 11.2703L3.66194 3.74752C3.13659 3.51111 2.87392 3.39291 2.69966 3.4414C2.54832 3.48351 2.42557 3.5943 2.36821 3.74054C2.30217 3.90893 2.3929 4.18231 2.57438 4.72907L4.91642 11.7854C4.94759 11.8793 4.96318 11.9262 4.96933 11.9742C4.97479 12.0169 4.97473 12.06 4.96916 12.1026C4.96289 12.1506 4.94718 12.1975 4.91577 12.2913Z" stroke="white" stroke-width="2" stroke-linecap="round" stroke-linejoin="round"/>
</svg>
