<svg width="54" height="61" viewBox="0 0 54 61" fill="none" xmlns="http://www.w3.org/2000/svg">
<g clip-path="url(#clip0_2723_46555)">
<path d="M42.5104 39.1798L27.3672 48.1756L12.2186 39.1798V34.7942C12.2187 33.8768 11.9696 32.9765 11.498 32.1896C11.0264 31.4026 10.35 30.7585 9.54088 30.3259L0.7229 25.6152V40.4819C0.72319 42.0793 1.13889 43.6492 1.92919 45.0374C2.71948 46.4256 3.85721 47.5844 5.23066 48.4001L22.6655 58.7518C24.0881 59.5973 25.7123 60.0436 27.3672 60.0436C29.0221 60.0436 30.6464 59.5973 32.0689 58.7518L49.5056 48.4001C50.8788 47.5843 52.0163 46.4254 52.8063 45.0372C53.5963 43.649 54.0116 42.0792 54.0115 40.4819V40.2484L42.5176 34.1082L42.5104 39.1798Z" fill="#3A2C81"/>
<path d="M16.7335 22.6554L28.258 28.7454L38.2846 23.0308L27.5091 17.2964L16.7335 22.6554Z" fill="#6F5ADD"/>
<path d="M27.5091 29.8231V43.2225L16.0314 36.899V23.4062L27.5091 29.8231Z" fill="#A99CEB"/>
<path d="M28.4933 29.7783V42.8311L38.2847 36.5705V24.1553L28.4933 29.7783Z" fill="#7D6AE0"/>
<path d="M49.4984 11.6878L32.0618 1.33427C30.6389 0.489667 29.0147 0.0439453 27.36 0.0439453C25.7053 0.0439453 24.0812 0.489667 22.6583 1.33427L5.22347 11.6878C3.84992 12.5029 2.71207 13.6613 1.92173 15.0493C1.1314 16.4373 0.715767 18.007 0.715698 19.6042V19.9149L12.2096 26.0569V20.9062L27.3672 11.9123L42.5176 20.9062V25.3691C42.5175 26.2868 42.7668 27.1872 43.2387 27.9742C43.7107 28.7612 44.3876 29.4052 45.1971 29.8374L54.0115 34.5481V19.6042C54.0111 18.0064 53.5947 16.4363 52.8034 15.0483C52.0121 13.6602 50.873 12.5021 49.4984 11.6878Z" fill="#6F5ADD"/>
</g>
<defs>
<clipPath id="clip0_2723_46555">
<rect width="53.2886" height="60" fill="white" transform="translate(0.715698 0.0449219)"/>
</clipPath>
</defs>
</svg>
